<svg width="147" height="52" viewBox="0 0 147 52" fill="none" xmlns="http://www.w3.org/2000/svg">
<g clip-path="url(#clip0_27_16)">
<path d="M142.816 0.910034H4.16403C2.13816 0.910034 0.48999 2.20165 0.48999 3.7803V48.0398C0.48999 49.6184 2.13816 50.91 4.16403 50.91H142.816C144.842 50.91 146.49 49.6184 146.49 48.0398V3.7803C146.49 2.20165 144.842 0.910034 142.816 0.910034ZM146.215 48.0398C146.215 49.5036 144.67 50.6804 142.816 50.6804H4.16403C2.2755 50.6804 0.764684 49.5036 0.764684 48.0398V3.7803C0.764684 2.31646 2.2755 1.13966 4.16403 1.13966H142.816C144.704 1.13966 146.215 2.31646 146.215 3.7803V48.0398Z" fill="white"/>
<path d="M135.436 31.7591C135.368 31.7935 135.333 31.8279 135.264 31.8624C134.782 32.2757 134.231 32.6201 133.611 32.8268C133.06 32.999 132.474 33.1023 131.889 33.1023C131.544 33.1023 131.234 33.0679 130.924 32.999C130.201 32.7923 129.616 32.379 129.099 31.8279C128.617 31.2769 128.272 30.6569 127.962 29.968C127.515 28.9003 127.205 27.7637 127.067 26.5927C127.067 26.5582 127.067 26.5238 127.101 26.5238C127.549 26.1794 128.031 25.8005 128.479 25.4561C129.03 25.0083 129.581 24.5606 130.063 24.0439C130.236 23.8717 130.373 23.6995 130.511 23.4928C130.615 23.3551 130.683 23.1829 130.649 22.9762C130.615 22.7695 130.477 22.6318 130.305 22.5284C130.098 22.4251 129.891 22.3562 129.65 22.2873C129.581 22.2873 129.512 22.2873 129.478 22.3562C128.892 23.0451 128.272 23.7339 127.584 24.3539C127.17 24.7672 126.722 25.1461 126.206 25.4561C126.103 25.5249 125.999 25.5594 125.896 25.6283C125.93 25.4905 125.93 25.3872 125.965 25.2839C126.137 24.7328 126.275 24.1817 126.447 23.665C126.688 22.9073 126.929 22.1496 127.101 21.3574C127.17 21.013 127.239 20.6685 127.239 20.3241C127.239 20.0141 127.101 19.7386 126.791 19.5664C126.585 19.4286 126.344 19.3942 126.068 19.3942C125.758 19.3942 125.483 19.4286 125.207 19.4975C125.173 19.4975 125.138 19.5319 125.138 19.5664C125.069 19.8419 125.035 20.1175 124.966 20.393C124.656 21.7363 124.312 23.0795 124.002 24.4228C123.623 25.9383 123.278 27.4537 122.968 28.9692C122.934 29.0725 122.968 29.1759 122.899 29.2448C122.693 29.5892 122.452 29.9336 122.142 30.2091C122.004 30.3125 121.866 30.4158 121.659 30.4502C121.556 30.4502 121.487 30.4158 121.453 30.3469C121.418 30.278 121.384 30.1747 121.349 30.1058C121.246 29.6236 121.246 29.107 121.349 28.6248C121.453 28.0737 121.556 27.5571 121.659 27.006C121.728 26.6271 121.797 26.2827 121.797 25.9038C121.797 25.766 121.797 25.6283 121.763 25.4905C121.728 25.3183 121.591 25.215 121.418 25.215C121.281 25.215 121.143 25.215 120.971 25.215C120.867 25.215 120.764 25.215 120.661 25.215C120.488 25.1805 120.351 25.0772 120.282 24.9394C120.144 24.7672 119.972 24.6983 119.765 24.6983C119.317 24.6983 118.87 24.8361 118.456 25.0428C117.457 25.5249 116.7 26.3171 116.217 27.316C115.839 28.0393 115.666 28.7626 115.632 29.5547C115.632 29.5892 115.632 29.6236 115.598 29.6581C115.322 29.8303 115.046 30.0025 114.771 30.1403C114.495 30.278 114.22 30.4158 113.91 30.4847C113.6 30.5536 113.359 30.4502 113.255 30.1403C113.187 29.968 113.187 29.7614 113.187 29.5547C113.221 29.2792 113.29 28.9692 113.359 28.6937C113.634 27.5915 113.91 26.4893 114.185 25.3527C114.185 25.2839 114.22 25.2494 114.289 25.2494C114.978 25.0772 115.666 24.9394 116.355 24.7672C116.527 24.7328 116.7 24.6639 116.803 24.5261C117.079 24.1817 117.354 23.8028 117.595 23.4584C117.802 23.1829 117.699 22.9418 117.354 22.8384C117.354 22.8384 117.32 22.8384 117.285 22.8384C117.044 22.804 116.803 22.8384 116.596 22.8729C116.011 22.9762 115.425 23.114 114.84 23.2173C114.805 23.2173 114.771 23.2173 114.702 23.2517C114.702 23.2173 114.702 23.2173 114.702 23.1829C114.874 22.4596 115.046 21.7363 115.219 21.0474C115.322 20.5997 115.425 20.1519 115.529 19.7041C115.563 19.5664 115.529 19.5319 115.391 19.5319C115.322 19.5319 115.288 19.5319 115.219 19.5319C114.874 19.5664 114.495 19.6697 114.151 19.8075C113.944 19.8764 113.738 19.9797 113.6 20.1175C113.29 20.393 113.049 20.703 112.945 21.0819C112.704 21.9429 112.498 22.8384 112.257 23.6995C112.257 23.7684 112.222 23.7684 112.153 23.8028C111.499 24.0095 110.879 24.2506 110.224 24.4572C109.639 24.6639 109.053 24.8705 108.468 25.0772C108.399 25.1116 108.365 25.1116 108.399 25.215C108.433 25.3183 108.468 25.4216 108.502 25.4905C108.606 25.8005 108.743 26.076 108.985 26.3516C109.157 26.5238 109.329 26.6616 109.57 26.6271C109.708 26.6271 109.846 26.5927 109.983 26.5582C110.569 26.4205 111.154 26.2138 111.706 25.9727C111.74 25.9727 111.74 25.9727 111.774 25.9383C111.774 25.9727 111.774 25.9727 111.774 25.9727C111.499 27.1093 111.223 28.2804 111.051 29.4514C110.982 29.7958 110.948 30.1403 110.948 30.5191C110.948 30.8291 111.017 31.1047 111.223 31.3802C111.464 31.7246 111.809 31.8624 112.222 31.9313C112.739 32.0002 113.255 31.9657 113.772 31.8279C114.495 31.6557 115.115 31.3113 115.701 30.898C115.735 30.8636 115.735 30.8636 115.77 30.8636C115.873 31.1391 116.045 31.3458 116.252 31.5524C116.734 31.9313 117.285 32.0346 117.871 31.9657C118.422 31.8968 118.904 31.6557 119.317 31.3458C119.524 31.208 119.696 31.0358 119.903 30.8636C119.903 30.8636 119.903 30.898 119.937 30.9324C120.041 31.1735 120.178 31.4146 120.385 31.5868C120.764 31.9657 121.453 32.2068 122.038 31.6557C122.279 31.4491 122.486 31.208 122.693 30.9324C122.693 30.898 122.727 30.898 122.762 30.8636C122.762 30.9669 122.762 31.0358 122.762 31.1047C122.796 31.6557 123.072 31.9657 123.588 32.0002C124.07 32.0346 124.553 31.8968 124.966 31.6902C125.069 31.6557 125.104 31.5868 125.104 31.4491C125.104 30.8636 125.138 30.2436 125.173 29.6581C125.207 29.0381 125.241 28.4181 125.379 27.8326C125.414 27.6604 125.448 27.4882 125.517 27.316C125.517 27.316 125.551 27.316 125.551 27.3504C125.586 27.4882 125.586 27.6604 125.62 27.7982C125.758 28.5903 125.93 29.3825 126.206 30.1403C126.55 31.0702 126.998 31.9657 127.652 32.689C128.514 33.6534 129.581 34.2389 130.89 34.4111C131.786 34.5145 132.681 34.48 133.577 34.2734C134.093 34.17 134.541 33.9634 134.954 33.6534C135.264 33.4467 135.471 33.1712 135.574 32.8268C135.609 32.7235 135.609 32.6201 135.643 32.5512V32.2757C135.643 32.1724 135.609 32.1035 135.574 32.0002C135.54 31.7591 135.505 31.7246 135.436 31.7591ZM119.765 28.5215C119.662 28.9348 119.49 29.3481 119.248 29.7269C119.007 30.0369 118.732 30.278 118.318 30.3469C118.146 30.3814 118.009 30.3814 117.836 30.3469C117.595 30.278 117.492 30.0714 117.457 29.8647C117.423 29.5892 117.457 29.2792 117.526 29.0037C117.836 28.0048 118.353 27.1438 119.076 26.386C119.283 26.1794 119.49 26.0416 119.765 25.9383C119.868 25.9038 119.972 25.9038 120.075 25.8694C120.075 25.9038 120.075 25.9038 120.075 25.9383C120.075 26.7649 120.006 27.6604 119.765 28.5215Z" fill="white"/>
<path d="M109.019 28.0048C108.743 27.6259 108.399 27.2815 107.986 27.006C107.366 26.5238 106.642 26.1449 105.953 25.766C105.196 25.3872 104.404 24.9739 103.611 24.595C103.095 24.3195 102.578 24.0439 102.096 23.665C101.786 23.424 101.51 23.1829 101.304 22.8729C101.097 22.5973 100.994 22.2529 100.994 21.9085C100.994 21.6329 101.028 21.3574 101.063 21.0819C101.269 19.9452 101.889 19.0842 102.957 18.602C103.474 18.3609 103.99 18.2576 104.541 18.1887C105.058 18.1198 105.54 18.1198 106.057 18.1887C106.47 18.2576 106.883 18.3609 107.228 18.6364C107.607 18.9464 107.848 19.3597 107.917 19.8419C107.951 20.1519 107.848 20.4274 107.71 20.703C107.435 21.1507 107.056 21.5296 106.677 21.874C106.573 21.9429 106.573 21.9429 106.642 22.0462C106.746 22.2185 106.918 22.3218 107.09 22.3907C107.435 22.5284 107.813 22.5284 108.192 22.4596C108.984 22.3218 109.536 21.874 109.846 21.1507C110.018 20.703 110.087 20.2208 110.087 19.7386C110.087 19.4631 110.018 19.1875 109.914 18.912C109.708 18.3264 109.294 17.8787 108.743 17.5343C108.02 17.0521 107.193 16.8454 106.332 16.7421C106.16 16.7421 106.022 16.7076 105.85 16.7076H105.058C104.886 16.7076 104.714 16.7076 104.576 16.7421C103.577 16.811 102.578 16.9832 101.614 17.3621C100.856 17.672 100.167 18.1198 99.616 18.7742C99.1338 19.3597 98.8239 20.0486 98.6861 20.8063C98.6517 21.0474 98.6172 21.323 98.5828 21.564C98.5828 21.5985 98.5828 21.5985 98.5828 21.6329V22.1496C98.6172 22.2873 98.6172 22.4596 98.6517 22.5973C98.755 23.1484 99.0305 23.665 99.375 24.0784C99.8227 24.595 100.374 25.0428 100.959 25.3872C101.683 25.8349 102.44 26.2138 103.198 26.5582C103.921 26.9027 104.645 27.2126 105.334 27.6259C105.747 27.867 106.16 28.1426 106.505 28.487C106.746 28.7626 106.952 29.0725 106.987 29.4514C107.021 29.727 106.987 30.0369 106.918 30.3125C106.746 31.2769 106.16 32.0002 105.368 32.5512C104.679 32.999 103.956 33.2745 103.164 33.4123C102.888 33.4468 102.647 33.4812 102.371 33.4812C102.061 33.4812 101.717 33.4468 101.442 33.2745C100.925 32.9646 100.649 32.5512 100.718 31.9313C100.787 31.2424 101.028 30.6225 101.476 30.1403C101.924 29.6581 102.475 29.3136 103.129 29.0725C103.198 29.0381 103.198 29.0037 103.198 28.9692C103.129 28.4526 102.716 28.0737 102.199 28.0393C101.338 28.0048 100.58 28.2459 99.926 28.797C99.4783 29.1759 99.1683 29.6925 98.9616 30.2091C98.6861 30.9324 98.5828 31.6902 98.6172 32.4824C98.6517 33.2057 98.9272 33.8256 99.4438 34.3078C99.8227 34.6522 100.305 34.8933 100.787 34.9967C100.994 35.0311 101.2 35.0656 101.442 35.1C101.442 35.1 101.476 35.1 101.51 35.1H102.13C102.165 35.1 102.165 35.1 102.199 35.1C103.026 35.0656 103.818 34.9622 104.61 34.7211C105.575 34.4456 106.505 34.0667 107.331 33.4812C107.917 33.0679 108.399 32.5512 108.778 31.9313C109.226 31.208 109.432 30.4158 109.432 29.5547C109.501 28.9692 109.329 28.4526 109.019 28.0048Z" fill="white"/>
<path d="M129.581 30.0025C129.822 30.7258 130.304 31.2425 131.028 31.518C131.613 31.7247 132.199 31.7591 132.819 31.6902C133.473 31.5869 134.093 31.3458 134.61 30.9669C134.816 30.8292 135.023 30.657 135.195 30.4503C135.333 30.3125 135.367 30.1403 135.298 29.9337C135.23 29.6926 135.057 29.4859 134.851 29.3137C134.816 29.3137 134.816 29.2793 134.782 29.2793C134.747 29.2448 134.713 29.2448 134.644 29.3137C134.506 29.4515 134.369 29.5892 134.196 29.727C133.645 30.2092 132.991 30.3814 132.233 30.3125C131.889 30.2781 131.613 30.0714 131.475 29.727C131.372 29.4515 131.372 29.1415 131.406 28.8315C131.475 28.8315 131.544 28.8315 131.613 28.8315C132.336 28.8659 133.06 28.7626 133.749 28.4871C134.747 28.0393 135.471 27.1438 135.402 25.8694C135.402 25.525 135.264 25.2839 135.023 25.0773C134.851 24.9395 134.678 24.8362 134.472 24.7328C133.749 24.4228 133.025 24.4573 132.302 24.7673C131.062 25.2839 130.166 26.1794 129.615 27.3849C129.305 28.246 129.271 29.107 129.581 30.0025ZM131.82 27.7638C132.095 27.0405 132.509 26.3861 133.06 25.835C133.266 25.6283 133.507 25.4906 133.817 25.4217C133.852 25.4217 133.852 25.4217 133.886 25.4217C134.059 25.3872 134.127 25.4561 134.162 25.6283C134.196 26.0072 134.127 26.3861 133.955 26.7305C133.68 27.2816 133.301 27.6949 132.75 27.9704C132.44 28.1082 132.13 28.1771 131.785 28.1771C131.785 28.1771 131.751 28.1771 131.716 28.1771C131.716 28.0738 131.751 27.936 131.82 27.7638Z" fill="white"/>
<path d="M91.4532 15.5022C91.3499 15.5022 91.281 15.5711 91.281 15.6744V36.5122C91.281 36.6155 91.3499 36.6844 91.4532 36.6844C91.5565 36.6844 91.6254 36.6155 91.6254 36.5122V15.6744C91.6254 15.5711 91.5221 15.5022 91.4532 15.5022Z" fill="white"/>
<path d="M40.9942 32.1724C40.9942 32.0346 40.8909 31.8969 40.7187 31.8969C40.5464 31.8969 40.4431 32.0002 40.4431 32.1724C40.4431 32.3446 40.5809 32.4479 40.7187 32.4479C40.8564 32.4479 40.9942 32.3102 40.9942 32.1724ZM40.512 32.1724C40.512 32.0691 40.6153 31.9657 40.7187 31.9657C40.822 31.9657 40.9253 32.0691 40.9253 32.1724C40.9253 32.2757 40.8564 32.379 40.7187 32.379C40.5809 32.379 40.512 32.2757 40.512 32.1724Z" fill="white"/>
<path d="M47.3318 36.5122H50.3627V35.6856H48.2617V34.5834H49.9494V33.7568H48.2617V32.6546H50.3627V31.828H47.3318V36.5122Z" fill="white"/>
<path d="M37.6882 32.9645L38.1015 33.6878L39.1004 33.0334V36.5121H40.0303V31.9657H39.1693L37.6882 32.9645Z" fill="white"/>
<path d="M40.7537 32.2412C40.7537 32.2757 40.7537 32.3101 40.7882 32.3101H40.8571C40.8571 32.3101 40.8571 32.2757 40.8226 32.2412C40.8226 32.2068 40.7882 32.1723 40.7882 32.1723C40.8226 32.1723 40.8571 32.1379 40.8571 32.1034C40.8571 32.069 40.8571 32.069 40.8226 32.0346C40.7882 32.0346 40.7882 32.0001 40.7193 32.0001C40.6849 32.0001 40.6504 32.0001 40.616 32.0001V32.2757H40.6849V32.1723H40.7193C40.7193 32.2068 40.7537 32.2068 40.7537 32.2412ZM40.6849 32.1379V32.069H40.7193C40.7537 32.069 40.7882 32.069 40.7882 32.1034C40.7882 32.1379 40.7537 32.1379 40.6849 32.1379Z" fill="white"/>
<path d="M46.5397 31.828H43.0955V32.6891H44.3698V36.5122H45.2998V32.6891H46.5397V31.828Z" fill="white"/>
<path d="M53.8759 36.5122H54.8403L53.7726 31.828H51.9815L50.9138 36.5122H51.8782L52.0504 35.6511H53.7037L53.8759 36.5122ZM52.2226 34.859L52.7048 32.6202H53.0493L53.5315 34.859H52.2226Z" fill="white"/>
<path d="M35.3457 34.859H37.0334V34.0323H35.3457V32.6546H37.3778V31.828H34.4158V36.5122H35.3457V34.859Z" fill="white"/>
<path d="M58.078 35.2378L57.2514 31.828H55.6326V36.5122H56.597V32.8957H56.6658L57.5958 36.3055H58.5602L59.4557 32.8957H59.559V36.5122H60.5234V31.828H58.9046L58.078 35.2378Z" fill="white"/>
<path d="M37.8602 25.6972C39.2724 25.3872 40.7879 24.3539 41.2012 23.5617C41.2012 23.5273 41.1667 23.5273 41.1323 23.5273H40.4434C40.4434 23.5273 40.409 23.5273 40.3746 23.5617C40.0301 24.1128 38.9969 24.8017 37.998 25.0772C36.0692 25.6283 37.2058 24.1128 37.2058 24.1128C38.8935 22.0463 38.9969 21.9085 39.1346 21.7018C39.1691 21.6674 39.1002 21.5641 38.9969 21.5641H37.7569C37.4469 21.5641 37.2403 21.7018 37.1025 21.874C37.1025 21.8396 37.0681 21.8396 37.0681 21.8052C36.517 20.9785 34.5538 21.1163 33.0383 22.0807C32.005 22.7351 31.3161 23.6306 31.1439 24.3884C30.3518 24.3884 29.6973 24.3195 29.1118 24.1128L30.4895 22.3907C33.4171 21.5641 38.2391 16.9143 35.8281 16.9832C33.8649 17.2243 31.2128 19.3253 27.6997 23.3551C27.5619 23.2862 26.9764 22.8384 26.5975 23.1829C26.3909 23.3551 26.4597 23.6995 26.6664 23.9406C23.1188 25.2494 23.3255 24.5606 23.6699 24.0784C23.9454 23.6995 24.8754 22.3907 24.8754 22.3907C28.4919 21.2885 33.2105 16.2943 30.0073 17.0176C28.6296 17.3276 25.7709 19.0842 21.7755 23.9062C19.9156 24.8017 18.5035 25.2839 19.8468 23.5962C21.19 21.9085 25.3576 17.1899 25.3576 17.0521C25.3576 16.9832 25.3231 16.9143 25.2198 16.9143H23.5321C23.2566 16.9143 23.0844 17.121 22.9466 17.2932C21.9478 16.6732 20.7078 16.8799 20.7078 16.8799C15.7136 17.1899 11.4428 21.7707 11.8561 24.285C11.9594 24.9394 12.5794 25.8694 13.9571 25.8694C14.3015 25.8694 15.4725 25.7316 16.7125 25.1117C16.7125 25.1117 16.1614 26.7649 20.9489 25.0428C20.9145 25.0772 20.2256 26.8682 26.3909 24.7328C26.322 24.8361 24.221 27.1782 23.1532 28.2459C20.6734 30.7947 18.9512 29.1414 18.8135 29.0381C18.8135 29.0381 18.779 29.0037 18.7446 29.0381L18.2624 29.4514C18.228 29.4859 18.228 29.5203 18.2624 29.5203C22.2577 32.4824 26.4942 26.9371 28.5952 24.6983C29.284 24.8361 30.1107 24.905 31.1439 24.7672C31.1439 24.9394 31.2128 25.1117 31.3161 25.2839C31.7983 26.0072 33.4171 26.0072 34.8293 25.3183C34.7949 25.3528 35.0015 26.3516 37.8602 25.6972ZM34.7949 17.8443C35.3804 17.4998 35.3804 18.2576 34.5193 19.1531C32.5561 21.2196 31.0062 21.5296 31.0062 21.5296C31.0062 21.5296 33.1072 18.8775 34.7949 17.8443ZM29.3529 17.8443C29.9384 17.4998 29.9384 18.2576 29.0774 19.1531C27.1142 21.2196 25.5642 21.5296 25.5642 21.5296C25.5642 21.5296 27.6308 18.8775 29.3529 17.8443ZM15.3003 24.5261C12.3038 24.1817 14.9559 20.6341 17.7458 18.7742C19.7434 17.4309 21.8789 17.0865 22.0166 18.1542C21.9822 18.4642 21.7755 18.8775 21.2589 19.4286C20.7423 20.0141 19.1579 21.8396 17.8491 23.3206C16.8847 24.2161 15.817 24.595 15.3003 24.5261ZM33.1416 24.7328C32.7627 24.3195 33.2105 23.3551 34.106 22.5973C35.0015 21.8396 36.0348 21.5641 36.3792 22.0118C36.517 22.1496 36.517 22.3907 36.4825 22.6318C36.0692 23.1484 35.5181 23.8028 35.1048 24.3884C34.3127 24.9394 33.486 25.1117 33.1416 24.7328Z" fill="white"/>
<path d="M81.8779 23.0451C83.9789 22.4596 84.2544 21.013 84.2544 20.9786C84.2544 20.9441 84.22 20.9441 84.1855 20.9097H83.5311C83.4967 20.9097 83.4967 20.9441 83.4967 20.9441C83.5311 21.5296 82.9456 22.0463 82.0501 22.3563C81.809 19.7731 76.5737 21.9085 75.9882 24.4228C73.6116 25.6283 72.5439 24.6639 72.4062 24.3539C72.4062 24.3539 75.7471 23.3551 75.8849 21.7707C75.9193 20.4275 71.4073 21.4608 70.5807 24.4228C69.6507 24.905 68.5486 24.9395 68.5141 24.7672C68.4452 24.285 69.9607 23.0451 70.2363 22.3563C70.5807 21.5296 69.6852 21.5985 69.6852 21.5985C68.9619 21.6674 66.9298 22.3218 66.9298 22.3218C67.2053 20.8408 65.001 22.0118 63.52 22.2874C63.6233 21.2541 62.7278 21.4608 59.4557 22.3907C59.2146 19.8075 53.9449 21.9429 53.3938 24.4573C52.085 25.0772 51.5339 24.905 51.5684 24.5261C51.6373 23.9406 52.6705 22.804 52.2917 22.0463C57.0103 20.7719 56.2181 17.2588 53.9449 16.2599C54.186 16.0877 54.4615 15.881 54.6338 15.7777C54.6682 15.7777 54.6682 15.7088 54.5993 15.7088H53.7383C53.7038 15.7088 53.6694 15.7088 53.6694 15.7433C53.5316 15.8122 53.4283 15.9155 53.2905 15.9844C45.6098 13.9867 39.9957 21.6674 45.4376 22.3563L46.5397 21.3574C46.7808 21.1508 46.712 21.1163 46.5053 21.1163C45.9887 21.1163 45.6098 21.013 45.4031 20.8408C42.9922 19.0842 47.573 15.4677 52.1539 16.811C49.364 18.912 46.092 25.6283 42.9922 23.5962C42.8888 23.5273 42.8199 23.5618 42.7166 23.6651C42.1311 24.285 41.1667 25.0428 41.1667 25.0428C41.0978 25.1117 41.0289 25.215 41.1667 25.2839C44.9554 27.006 47.1597 24.5261 49.2952 21.5641C49.5363 21.9774 50.0873 22.5285 51.1551 22.2185C51.1551 22.804 49.1574 24.6639 49.0541 25.0428C48.5719 26.4894 51.8784 25.6628 53.3938 25.0083C54.3582 27.1093 58.5602 24.9395 59.2835 23.0451C61.2812 22.3907 60.9712 23.114 60.7645 23.3551C59.5246 24.905 58.8013 25.6283 58.8013 25.7661C58.8013 25.835 58.8358 25.8694 58.9391 25.8694H60.2824C60.4546 25.8694 60.5923 25.7661 60.7301 25.6628C60.8679 25.525 62.6245 23.424 62.9344 23.0107C65.1388 22.1496 64.1744 23.3207 64.1744 23.3207C62.9344 24.8361 62.2111 25.5939 62.2111 25.7316C62.2111 25.8005 62.2456 25.835 62.3489 25.835H63.6922C63.8644 25.835 64.0366 25.7316 64.1399 25.6283C64.2777 25.4905 66.0687 23.2862 66.3442 22.9762C68.4452 22.2529 67.5153 23.2862 67.4464 23.3895C67.3086 23.5273 66.172 24.8361 66.1376 25.0428C65.9309 26.0761 67.102 26.2827 70.5462 24.905C71.5451 26.9716 75.4371 25.0772 75.8849 24.8361C75.8849 24.8706 75.9193 24.905 75.9193 24.9739C76.9526 27.1093 81.1546 24.9395 81.8779 23.0451ZM81.2235 22.0118C81.3612 22.1496 81.3612 22.4251 81.2923 22.7007C80.2935 23.114 80.569 23.8373 80.3968 23.9751C79.1569 25.0428 78.2614 25.0083 78.0203 24.6984C77.2626 23.8028 80.1213 21.0819 81.2235 22.0118ZM52.9461 17.1554C55.2193 18.6365 53.566 20.5308 51.9472 21.2885C51.6373 20.9441 50.9484 20.4619 49.984 20.8063C50.8795 19.532 51.8439 18.1887 52.9461 17.1554ZM49.9151 21.3574C50.3284 20.9097 51.2928 21.323 51.2584 21.633C50.4662 21.9774 49.8807 21.4263 49.9151 21.3574ZM58.8013 22.6318V22.6662C57.8025 23.114 58.0436 23.8028 57.9058 23.9406C56.6659 25.0083 55.8048 24.9395 55.5293 24.6639C54.7715 23.8028 57.5958 21.0819 58.7324 22.0118C58.8702 22.1496 58.8702 22.3907 58.8013 22.6318ZM74.7482 21.7363C74.9205 21.7018 74.9549 21.8052 74.9205 21.9085C74.576 23.2518 72.3717 23.8373 72.3717 23.8373C72.3717 23.8373 72.5784 22.0807 74.7482 21.7363Z" fill="white"/>
</g>
<defs>
<clipPath id="clip0_27_16">
<rect width="146" height="51" fill="white" transform="translate(0.48999 0.390015)"/>
</clipPath>
</defs>
</svg>
