<svg width="96" height="14" viewBox="0 0 96 14" fill="none" xmlns="http://www.w3.org/2000/svg">
<path d="M0.378174 0.306824H11.6532C14.4111 0.306824 15.709 0.611006 16.6012 1.52355C17.3313 2.23331 17.6152 3.04447 17.7571 4.70733C17.7977 5.3157 17.8383 6.20797 17.8383 6.83661C17.8383 8.01278 17.7571 9.37146 17.6355 10.1015C17.4124 11.663 16.3173 12.8797 14.8978 13.1636C14.1475 13.3258 13.5594 13.3664 12.1805 13.3664H0.378174V0.306824ZM11.0043 10.2435C12.0791 10.2435 12.1602 10.2435 12.6266 10.0812C13.5797 9.79732 13.8433 9.10784 13.8433 6.85689C13.8433 4.11924 13.3769 3.55144 11.0854 3.55144H4.35283V10.2435H11.0043Z" fill="white"/>
<path d="M20.9814 0.306824H32.2362C34.548 0.306824 35.5619 0.509612 36.3122 1.13826C37.0828 1.74662 37.4276 2.86196 37.4276 4.62621C37.4276 7.05967 36.8395 8.01278 35.1766 8.3778C36.7989 8.6617 37.2856 9.3309 37.2451 11.3182V13.3664H33.2096V11.7441C33.1893 10.3246 32.804 10.0407 31.0195 10.0812H24.9358V13.3664H20.9814V0.306824ZM31.1411 6.87717C33.0676 6.87717 33.4326 6.63382 33.4326 5.35625C33.4326 4.50454 33.3515 4.1598 33.1082 3.89618C32.8243 3.59199 32.4795 3.53116 31.2831 3.53116H24.9358V6.89744H31.1411V6.87717Z" fill="white"/>
<path d="M46.9181 0.306824H52.2514L59.3896 13.3664H55.0499L53.7521 11.0343H45.3363L44.0791 13.3664H39.5771L46.9181 0.306824ZM52.3731 8.29668L49.5543 3.08502L46.7761 8.29668H52.3731Z" fill="white"/>
<path d="M61.2146 0.306824H65.1893V5.17374H67.2577L72.6519 0.306824H78.1069L70.6037 6.77577L78.8167 13.3664H73.0372L67.1361 8.35752H65.1487V13.3664H61.1741V0.306824H61.2146Z" fill="white"/>
<path d="M95.648 0.306824V3.26753H85.103V5.51848H95.0396V8.0939H85.103V10.4057H95.79V13.3664H81.1892V0.306824H95.648Z" fill="white"/>
</svg>
