<svg width="84" height="61" viewBox="0 0 84 61" fill="none" xmlns="http://www.w3.org/2000/svg">
<g clip-path="url(#clip0_27_48)">
<path d="M64.1714 36.4333C64.1617 36.4116 64.1438 36.3944 64.1215 36.3857L61.3451 35.3151C61.3969 35.1246 61.4971 34.852 61.6874 34.5751L63.1191 35.2089C63.1659 35.2295 63.2146 35.2395 63.265 35.2395C63.3953 35.2395 63.5159 35.1693 63.5796 35.057C63.6194 34.9962 63.7292 34.8178 63.8207 34.582C63.9656 34.2101 63.9967 33.878 63.9135 33.5956C63.8276 33.3031 63.6181 33.0768 63.3083 32.9408L59.4875 31.1848C59.4808 31.1812 59.4719 31.1772 59.4627 31.1732L59.4571 31.1705C59.3133 31.1076 59.0365 31.0262 58.6999 31.1394C58.7021 31.022 58.703 30.9041 58.7026 30.7847C58.7017 30.4819 58.6921 30.1706 58.6744 29.8604C58.6558 29.5384 58.6281 29.2088 58.5919 28.8807C58.377 26.9344 57.9234 25.5168 57.7385 24.9977L57.6768 24.8244C56.9287 22.7269 56.3381 21.0702 56.3524 19.0886C56.3634 17.597 58.2271 15.4979 58.9443 14.8152L59.6157 14.1774L52.5443 7.7208L51.9868 8.08801C50.692 8.94051 49.0165 9.41014 47.2695 9.41014C45.4366 9.41014 43.7027 8.90115 42.3868 7.97642L41.8933 7.63L41.4002 7.97642C40.0843 8.90092 38.3502 9.41014 36.5178 9.41014C34.7705 9.41014 33.0948 8.94051 31.8 8.08801L31.2424 7.7208L24.8543 13.5536L24.172 14.1774L24.8416 14.8152C25.559 15.4984 27.423 17.5976 27.4337 19.0891C27.4483 21.0709 26.8574 22.7276 26.1096 24.8251L26.0476 24.9982C25.8627 25.5172 25.4089 26.9348 25.194 28.8809C25.1576 29.2101 25.1298 29.54 25.1115 29.8609C25.0938 30.1715 25.0844 30.4824 25.0833 30.7849C25.0829 30.9037 25.084 31.0213 25.086 31.1385C24.7508 31.0267 24.4755 31.1081 24.3321 31.1707L24.3263 31.1734C24.3174 31.1776 24.3084 31.1814 24.3017 31.185L20.4809 32.941C20.1712 33.0768 19.9619 33.3033 19.8758 33.5958C19.7926 33.8783 19.8236 34.2101 19.9683 34.5823C20.0603 34.818 20.1698 34.9964 20.2096 35.0573C20.2734 35.1695 20.3939 35.2398 20.5243 35.2398C20.5746 35.2398 20.6236 35.2295 20.6703 35.2091L22.102 34.5753C22.2924 34.8522 22.3925 35.1248 22.4444 35.3153L19.6682 36.3859C19.6456 36.3946 19.628 36.4118 19.6181 36.4335C19.6085 36.4554 19.6081 36.4803 19.617 36.5026L19.7845 36.9222C21.5195 41.2714 24.4674 44.9893 28.3097 47.6741C31.8789 50.1698 36.0598 51.6288 40.4025 51.8952L41.8313 53.3146C41.849 53.332 41.8718 53.3408 41.8951 53.3408C41.9179 53.3408 41.9411 53.332 41.9588 53.3146L43.3874 51.8952C47.7299 51.6286 51.9106 50.1696 55.4798 47.6741C59.3221 44.9893 62.2702 41.2714 64.005 36.9222L64.1722 36.5026C64.1814 36.48 64.181 36.4554 64.1714 36.4333ZM31.4216 43.2738C28.9929 41.5771 27.0258 39.3459 25.6534 36.7517L26.337 36.5055C26.3587 36.5467 26.3797 36.5887 26.4021 36.6294C26.5544 36.9081 26.7228 37.1807 26.9024 37.4394C26.9212 37.4663 26.9455 37.5029 26.9759 37.5488L26.9889 37.5682C30.0614 42.1881 34.5862 45.0694 39.7334 45.686L40.5562 46.5105C37.2636 46.2703 34.1291 45.164 31.4216 43.2738ZM52.3686 43.2738C49.6597 45.1644 46.5239 46.2714 43.2297 46.5114L44.0536 45.686C49.2008 45.0694 53.7258 42.1881 56.7981 37.5682L56.8111 37.549C56.8415 37.5034 56.8661 37.4663 56.8851 37.439C57.0645 37.1802 57.2326 36.9081 57.3849 36.6296C57.4075 36.5885 57.4294 36.5462 57.4511 36.5046L58.1366 36.7515C56.7643 39.3461 54.797 41.5771 52.3686 43.2738Z" fill="#00019E"/>
<path d="M63.8378 36.8555C62.1158 41.1723 59.19 44.8627 55.3766 47.5271C51.8252 50.0101 47.6638 51.4593 43.3423 51.718C43.3204 51.7193 43.2998 51.7285 43.2839 51.7439L41.8952 53.124L40.5062 51.7439C40.4905 51.7285 40.4699 51.7193 40.4478 51.718C36.1263 51.4593 31.9651 50.0101 28.4138 47.5271C24.6004 44.8625 21.6743 41.1723 19.9523 36.8555L19.8186 36.52L25.0832 34.4916C25.2227 34.4377 25.3663 34.4847 25.447 34.6055L25.4526 34.6146C25.4851 34.6687 25.5589 34.7709 25.6548 34.8631C25.6986 35.002 25.7454 35.1386 25.7944 35.2741C25.5211 35.1708 25.3232 34.9094 25.2462 34.7926L25.2279 34.7649C25.2192 34.7519 25.2042 34.7432 25.1872 34.7432C25.1805 34.7432 25.1742 34.7446 25.1684 34.747L24.7954 34.8915L24.6274 34.9566L24.6585 35.0344C24.6704 35.0635 24.6824 35.0921 24.6943 35.1212C24.8497 35.504 25.0179 35.8797 25.197 36.2494C25.2232 36.3035 25.2496 36.3576 25.2762 36.4113L25.4468 36.35L26.1358 36.1016C26.1741 36.1837 26.2137 36.2646 26.2537 36.3449L25.5692 36.5916L25.3983 36.6531C25.4258 36.707 25.4544 36.76 25.4824 36.8136C26.8687 39.4425 28.8588 41.7025 31.3179 43.4207C34.1084 45.3686 37.3478 46.4919 40.7477 46.7028L41.0373 46.993C37.4748 46.8291 34.0756 45.6808 31.1591 43.6448C28.1172 41.5194 25.7807 38.5772 24.402 35.1357L24.3709 35.0583L20.1769 36.6756L20.2084 36.7544C21.9105 41.0213 24.8028 44.669 28.5721 47.3028C32.1219 49.7849 36.2813 51.2193 40.6023 51.4521L41.8346 52.6774L41.8949 52.7364L43.1878 51.4521C47.5089 51.2191 51.6682 49.7849 55.218 47.3028C58.9876 44.669 61.8796 41.0213 63.5817 36.7544L63.6133 36.6756L59.419 35.0583L59.3879 35.1357C58.0094 38.5772 55.6729 41.5194 52.631 43.6448C49.713 45.6814 46.3122 46.8302 42.7481 46.9933L43.0379 46.703C46.4394 46.4926 49.6801 45.3692 52.4718 43.4205C54.9309 41.7023 56.9212 39.4422 58.3073 36.8134C58.3355 36.76 58.3641 36.7067 58.3918 36.6528L58.2207 36.5913L57.5335 36.344C57.5738 36.2635 57.6131 36.1823 57.6514 36.1007L58.3431 36.3498L58.5137 36.4111C58.5403 36.3572 58.5667 36.3033 58.5931 36.2492C58.772 35.8795 58.9404 35.5038 59.0958 35.1209C59.1077 35.0919 59.1198 35.0632 59.1316 35.0342L59.1627 34.9563L58.995 34.8913L58.6222 34.747C58.6164 34.7446 58.6101 34.7432 58.6034 34.7432C58.5864 34.7432 58.5719 34.7519 58.5629 34.7649L58.5446 34.7926C58.467 34.9096 58.2679 35.1728 57.9926 35.2755C58.0412 35.1411 58.0877 35.0053 58.1315 34.8673C58.2295 34.7743 58.3051 34.6692 58.3379 34.6146L58.3435 34.6055C58.4243 34.4847 58.5678 34.4377 58.7071 34.4916L63.972 36.52L63.8378 36.8555Z" fill="white"/>
<path d="M35.9372 48.072L36.2396 48.3343C36.4471 48.5152 36.5531 48.725 36.4694 49.0007C36.3373 49.4366 35.9101 49.586 35.4933 49.461C35.2951 49.4015 35.0666 49.2903 34.8899 49.1615C34.8456 49.1315 34.8369 49.1058 34.845 49.0788C34.8497 49.0638 34.8613 49.0472 34.8729 49.0311L35.0292 48.8104C35.0476 48.7829 35.0711 48.7601 35.1106 48.7722C35.1259 48.7766 35.1399 48.7842 35.1587 48.7997C35.2904 48.9019 35.4501 48.9893 35.6055 49.0356C35.7332 49.0741 35.9146 49.0557 35.9598 48.9075C35.9947 48.7925 35.9206 48.7077 35.8395 48.6371L35.4881 48.3273C35.294 48.1569 35.2017 47.9248 35.2788 47.6703C35.396 47.283 35.8518 47.1817 36.208 47.2883C36.4272 47.3539 36.6041 47.4496 36.7711 47.5889C36.8134 47.6247 36.8253 47.6515 36.817 47.6786C36.8134 47.6909 36.8027 47.7041 36.7908 47.7206L36.6249 47.9284C36.5978 47.9633 36.575 47.9729 36.5475 47.9646C36.5323 47.9601 36.5157 47.9483 36.4972 47.9331C36.3889 47.8414 36.2373 47.7497 36.1125 47.7124C35.9906 47.6759 35.8399 47.6806 35.797 47.8224C35.7677 47.919 35.8712 48.016 35.9372 48.072Z" fill="white"/>
<path d="M34.1462 48.6203C34.1934 48.6391 34.2028 48.684 34.186 48.7249L34.1229 48.8804C34.1086 48.9152 34.0719 48.9383 34.0308 48.9217L33.2729 48.6176C33.2286 48.5999 33.2123 48.5556 33.2253 48.5237L33.2894 48.3651C33.3109 48.3125 33.3501 48.3007 33.3941 48.3188L33.5296 48.3729L34.1124 46.9367L33.9561 46.8744C33.9089 46.8551 33.8998 46.8106 33.9163 46.7695L33.9791 46.6143C33.9935 46.5789 34.0301 46.5563 34.0713 46.5727L34.8614 46.8896C34.9059 46.9072 34.9222 46.9513 34.909 46.9835L34.8446 47.1418C34.8231 47.1944 34.7844 47.206 34.7402 47.1883L34.5807 47.1244L33.9979 48.5608L34.1462 48.6203Z" fill="white"/>
<path d="M31.7861 45.9049C31.7297 45.8756 31.7221 45.836 31.7514 45.7801L31.8603 45.573C31.8854 45.5251 31.9225 45.516 31.9733 45.5424L33.3453 46.2553L33.4891 46.33C33.5398 46.3564 33.5477 46.389 33.5286 46.4255C33.5271 46.4282 33.5255 46.4309 33.5226 46.4365L33.3837 46.646C33.3486 46.699 33.3046 46.6941 33.2455 46.6634L32.7497 46.4056L31.9558 47.9154C31.9234 47.9771 31.9091 47.9838 31.8527 47.9545L31.5343 47.789C31.475 47.7581 31.4737 47.7472 31.5047 47.6881L32.3016 46.1726L31.7861 45.9049Z" fill="white"/>
<path d="M31.2075 45.0594L30.9331 44.8818C30.8826 44.8489 30.8412 44.8599 30.7991 44.8892L29.053 46.1764C29.0409 46.1836 29.0338 46.1941 29.0268 46.2046C29.0112 46.2285 29.0123 46.2556 29.0418 46.2746L29.3455 46.4712C29.3934 46.5023 29.4339 46.4868 29.4672 46.4593L29.7818 46.2107L29.8751 46.271L30.344 46.5745L30.44 46.6365L30.3454 47.0128C30.332 47.0681 30.3367 47.1128 30.4006 47.1544L30.6992 47.3474C30.7363 47.3715 30.769 47.3624 30.7898 47.3304C30.7967 47.3199 30.8027 47.3049 30.8079 47.2857L31.2656 45.1797C31.2744 45.1365 31.2607 45.0936 31.2075 45.0594ZM30.7075 45.6144L30.5335 46.2449L30.0965 45.962L30.6044 45.5516C30.6596 45.508 30.7101 45.4653 30.7546 45.4261L30.76 45.4297C30.7437 45.4834 30.7269 45.544 30.7075 45.6144Z" fill="white"/>
<path d="M28.6058 44.8581L28.3985 44.4394C28.2836 44.2087 28.2865 43.9589 28.4544 43.7527C28.7105 43.438 29.1707 43.5156 29.4599 43.7482C29.6379 43.8913 29.7651 44.0465 29.8669 44.2382C29.8924 44.2869 29.8933 44.3162 29.8754 44.3381C29.8674 44.348 29.8526 44.3563 29.8354 44.367L29.6028 44.4972C29.5643 44.5193 29.5395 44.5195 29.5171 44.5018C29.5048 44.4918 29.4941 44.475 29.4827 44.4535C29.4174 44.3276 29.3121 44.1861 29.2105 44.1047C29.1117 44.0251 28.9704 43.9725 28.8764 44.0879C28.8125 44.1664 28.8713 44.2952 28.9111 44.3719L29.0913 44.7286C29.2148 44.9739 29.2327 45.2081 29.0509 45.4315C28.7628 45.7853 28.3106 45.7631 27.9718 45.4912C27.8113 45.3617 27.642 45.1728 27.5272 44.9871C27.4979 44.9431 27.4993 44.9158 27.5174 44.8937C27.5275 44.8816 27.5445 44.8708 27.5615 44.8599L27.7902 44.7145C27.8175 44.696 27.8479 44.6839 27.8801 44.7094C27.8924 44.7194 27.9029 44.732 27.9141 44.7534C27.9973 44.8975 28.1118 45.0381 28.2379 45.1394C28.3417 45.2231 28.5166 45.2743 28.6148 45.154C28.6906 45.0603 28.6546 44.954 28.6058 44.8581Z" fill="white"/>
<path d="M26.4286 43.481C26.4696 43.5255 26.4633 43.5697 26.421 43.6082L26.2435 43.771C26.192 43.818 26.1475 43.8025 26.1109 43.7634L25.2924 42.88C25.2472 42.8311 25.2351 42.7948 25.2982 42.7371L26.7806 41.3797C26.8227 41.3412 26.8656 41.3405 26.9063 41.3848L27.1237 41.6194C27.1711 41.6706 27.172 41.7044 27.1183 41.7534L25.8792 42.8881L26.4286 43.481Z" fill="white"/>
<path d="M24.8524 41.853C24.8832 41.8931 24.8687 41.9362 24.8331 41.9631L24.6996 42.065C24.6692 42.0881 24.626 42.0892 24.599 42.0541L24.1014 41.4098C24.0723 41.3722 24.0808 41.3259 24.1083 41.3047L24.2445 41.2009C24.2899 41.1663 24.3295 41.1759 24.3586 41.2132L24.4476 41.3286L25.6832 40.386L25.5807 40.2534C25.5497 40.2131 25.5644 40.17 25.5997 40.1431L25.7335 40.0409C25.7639 40.0181 25.8071 40.0168 25.8341 40.0519L26.3527 40.7237C26.3818 40.7615 26.3733 40.8076 26.3456 40.8288L26.2094 40.9328C26.164 40.9674 26.1246 40.9576 26.0955 40.9203L25.9911 40.7847L24.7555 41.7274L24.8524 41.853Z" fill="white"/>
<path d="M23.923 38.7416L22.8697 39.3859C22.81 39.4223 22.7718 39.4087 22.7384 39.3546L22.5835 39.1043C22.5452 39.0426 22.5421 39.0073 22.6069 38.9675L24.3238 37.9175C24.3942 37.8748 24.4278 37.8985 24.4627 37.9553L24.6027 38.1816C24.636 38.2351 24.6364 38.2722 24.6141 38.3268L24.0272 39.7911L24.0306 39.7965L25.092 39.1473C25.1517 39.1108 25.1888 39.1287 25.2221 39.1824L25.3838 39.4436C25.4272 39.5136 25.3925 39.5422 25.3465 39.5704L23.6352 40.6168C23.5648 40.6599 23.5328 40.6387 23.5028 40.5902L23.3613 40.3614C23.3313 40.3131 23.3252 40.2612 23.3474 40.2064L23.9259 38.747L23.923 38.7416Z" fill="white"/>
<path d="M42.002 50.0405C42.0528 50.0417 42.0778 50.0797 42.0772 50.124L42.0745 50.2915C42.0738 50.3295 42.0479 50.3637 42.0036 50.363L41.1867 50.351C41.1388 50.3503 41.1077 50.3149 41.1082 50.2805L41.1106 50.1099C41.1117 50.0528 41.1437 50.0282 41.1913 50.0289L41.3376 50.0312L41.3609 48.4832L41.1925 48.4805C41.1415 48.4798 41.1169 48.4413 41.1173 48.3973L41.1198 48.2298C41.1205 48.1918 41.1464 48.1575 41.1909 48.1582L42.0425 48.1707C42.0901 48.1716 42.1214 48.2067 42.1208 48.2414L42.1183 48.412C42.1174 48.4691 42.0852 48.4939 42.0376 48.4932L41.8658 48.4905L41.8426 50.0388L42.002 50.0405Z" fill="white"/>
<path d="M40.4158 48.2321L40.1687 50.2144C40.1587 50.296 40.122 50.3074 40.0649 50.3L39.7968 50.2669C39.74 50.26 39.6955 50.2323 39.6667 50.1808L38.8817 48.8198L38.8752 48.8191L38.7231 50.0393C38.7144 50.1082 38.68 50.1292 38.6169 50.1216L38.3235 50.0853C38.2508 50.0766 38.2213 50.0572 38.2307 49.9816L38.4787 47.993C38.4888 47.9116 38.5288 47.9006 38.595 47.9087L38.86 47.9414C38.9231 47.9492 38.9521 47.9718 38.9812 48.0232L39.7651 49.3939L39.7715 49.3945L39.9247 48.1652C39.9335 48.0963 39.9708 48.0784 40.0339 48.0863L40.34 48.1241C40.4219 48.1341 40.4225 48.1786 40.4158 48.2321Z" fill="white"/>
<path d="M43.2968 48.6999C43.3049 48.8007 43.4366 48.8537 43.5186 48.8821L43.8961 49.017C44.1556 49.1107 44.3309 49.2679 44.3537 49.5546C44.3902 50.0081 44.0469 50.3018 43.6128 50.336C43.4068 50.3523 43.1532 50.3308 42.9414 50.2749C42.8896 50.2631 42.8719 50.2423 42.8697 50.2139C42.8685 50.1982 42.8732 50.179 42.8782 50.1593L42.9432 49.8974C42.9504 49.8652 42.9638 49.8357 43.0052 49.8324C43.0211 49.831 43.0369 49.833 43.06 49.8406C43.2201 49.8883 43.4006 49.9117 43.5623 49.8992C43.6953 49.8885 43.8577 49.8062 43.8454 49.6517C43.836 49.532 43.736 49.4795 43.6343 49.4435L43.1942 49.2818C42.9511 49.193 42.7802 49.0101 42.759 48.7455C42.7268 48.3423 43.1143 48.0833 43.4849 48.054C43.713 48.0361 43.9129 48.0614 44.1193 48.1307C44.1719 48.1491 44.1927 48.1694 44.1949 48.1978C44.196 48.2101 44.1909 48.2267 44.1862 48.2459L44.1075 48.4995C44.0952 48.5418 44.0773 48.559 44.0487 48.5612C44.033 48.5626 44.0133 48.5576 43.9903 48.55C43.8561 48.5035 43.6812 48.4731 43.5513 48.4834C43.4236 48.493 43.2849 48.5516 43.2968 48.6999Z" fill="white"/>
<path d="M45.8634 49.6736L46.0201 49.6465C46.0702 49.6378 46.1018 49.6709 46.1096 49.7145L46.1384 49.8793C46.1449 49.9169 46.1257 49.9554 46.0821 49.963L45.277 50.1018C45.2303 50.1099 45.1929 50.0813 45.1866 50.0468L45.1573 49.8786C45.1477 49.8227 45.1746 49.7925 45.2215 49.7843L45.3658 49.7592L45.099 48.2338L44.933 48.2624C44.8829 48.2712 44.8514 48.2381 44.8438 48.1945L44.815 48.0296C44.8085 47.9921 44.8275 47.9538 44.8713 47.946L45.7108 47.8009C45.7578 47.793 45.7952 47.8219 45.8012 47.8561L45.8305 48.0243C45.8403 48.0802 45.8133 48.1104 45.7665 48.1186L45.5975 48.1479L45.8634 49.6736Z" fill="white"/>
<path d="M49.5397 47.8392C49.3337 47.2313 48.86 46.8729 48.2305 47.0837C47.6312 47.2846 47.4185 47.856 47.6359 48.4967C47.8541 49.1405 48.3399 49.4547 48.9452 49.2519C49.5113 49.0625 49.768 48.5128 49.5397 47.8392ZM48.8231 48.8426C48.5369 48.9383 48.3043 48.7863 48.144 48.3133C47.9939 47.8698 48.0934 47.58 48.3555 47.4919C48.642 47.3964 48.8674 47.5375 49.0309 48.0197C49.1879 48.4839 49.0881 48.7536 48.8231 48.8426Z" fill="white"/>
<path d="M53.372 47.0604C53.408 47.1199 53.4062 47.1358 53.3516 47.1682L53.0435 47.3512C52.986 47.3854 52.9757 47.3805 52.9415 47.3234L52.0597 45.8557L51.5603 46.1525C51.506 46.1849 51.4675 46.1706 51.4351 46.1163L51.3145 45.9157C51.2868 45.8696 51.2984 45.8331 51.3474 45.8041L52.6767 45.0149L52.8158 44.9323C52.865 44.9033 52.897 44.9135 52.9182 44.9487C52.92 44.9516 52.9214 44.954 52.9249 44.9594L53.0318 45.187C53.0589 45.2445 53.0316 45.2792 52.9744 45.3132L52.4938 45.5981L53.372 47.0604Z" fill="white"/>
<path d="M54.9923 45.6699L55.1202 45.5759C55.1614 45.5457 55.2043 45.5614 55.2307 45.597L55.3306 45.7316C55.3535 45.7622 55.3537 45.8054 55.3179 45.8313L54.6606 46.3139C54.6222 46.3423 54.5759 46.3332 54.5551 46.3052L54.4531 46.1679C54.4191 46.1218 54.4296 46.0829 54.4679 46.0547L54.5855 45.9684L53.6599 44.7228L53.5243 44.8221C53.4834 44.8523 53.4403 44.8366 53.4139 44.8013L53.3137 44.6664C53.2909 44.636 53.2906 44.5931 53.3267 44.5667L54.0121 44.0633C54.0503 44.0353 54.0966 44.0443 54.1174 44.0724L54.2194 44.2097C54.2534 44.2554 54.2431 44.2945 54.2044 44.3227L54.0664 44.4242L54.9923 45.6699Z" fill="white"/>
<path d="M55.9328 42.5188C55.9146 42.4622 55.9189 42.4153 55.9703 42.3685L56.1338 42.2182C56.1805 42.1753 56.2119 42.1766 56.253 42.2162L57.7062 43.6271C57.7084 43.6296 57.7104 43.6318 57.7127 43.6341C57.7536 43.6781 57.752 43.7186 57.71 43.7571L57.4763 43.9718C57.4155 44.0274 57.3734 44.01 57.3106 43.9472L56.5451 43.1738L56.5404 43.1781L56.9686 44.3425C56.993 44.4063 56.9668 44.4389 56.9364 44.4667L56.8499 44.546C56.8056 44.5865 56.7734 44.6033 56.7068 44.5785L55.5239 44.1109L55.5193 44.1151L56.2666 44.9479C56.327 45.013 56.3031 45.0477 56.2541 45.0928L56.0627 45.2686C56.0088 45.3178 55.9661 45.323 55.9207 45.2742C55.9184 45.2717 55.9162 45.2695 55.9142 45.267L54.6185 43.7461C54.5693 43.6882 54.5775 43.6459 54.622 43.6054L54.7902 43.4509C54.8439 43.4015 54.8823 43.4008 54.9443 43.4256L56.4355 44.0015L56.4402 43.997L55.9328 42.5188Z" fill="white"/>
<path d="M58.412 41.3958L57.566 40.6971C57.5168 40.6567 57.5266 40.6153 57.5633 40.5714L57.7644 40.331C57.803 40.2847 57.8355 40.2704 57.8867 40.3129L58.7573 41.0319C59.3074 41.4863 59.3182 41.9678 58.9282 42.4343C58.5097 42.935 58.047 42.935 57.5286 42.5068L56.6558 41.7858C56.6068 41.7453 56.6187 41.7017 56.6551 41.6579L56.8564 41.4175C56.8951 41.3712 56.9275 41.3569 56.979 41.3993L57.8223 42.0962C58.2063 42.4131 58.4261 42.3728 58.6148 42.147C58.7935 41.9329 58.7908 41.7086 58.412 41.3958Z" fill="white"/>
<path d="M59.2216 38.2977C59.1894 38.2479 59.1809 38.2016 59.218 38.1427L59.3361 37.9551C59.3699 37.9014 59.4005 37.8945 59.4506 37.922L61.226 38.9031C61.2287 38.9049 61.2316 38.9065 61.2341 38.908C61.2853 38.9398 61.2945 38.9791 61.2641 39.0272L61.0952 39.2954C61.0514 39.3649 61.0062 39.3593 60.9293 39.3148L59.9862 38.7694L59.9829 38.7747L60.7041 39.786C60.7443 39.841 60.7278 39.879 60.7059 39.9142L60.6435 40.0132C60.6115 40.064 60.5849 40.0886 60.514 40.0817L59.2493 39.9401L59.246 39.9455L60.1875 40.5533C60.2628 40.6003 60.249 40.6401 60.2136 40.6962L60.0752 40.9163C60.0363 40.9778 59.9963 40.9939 59.9397 40.9588C59.937 40.957 59.9343 40.9554 59.9316 40.9534L58.2792 39.8254C58.2161 39.7824 58.213 39.7397 58.2452 39.6887L58.3666 39.4957C58.4053 39.4342 58.442 39.4235 58.5087 39.4313L60.0996 39.5966L60.1029 39.5915L59.2216 38.2977Z" fill="white"/>
<path d="M51.3067 46.6247C51.2358 46.4729 51.1104 46.3389 50.9529 46.2723C50.7309 46.1797 50.4735 46.2289 50.1389 46.3832L49.689 46.591C49.6228 46.6214 49.6105 46.6482 49.644 46.7196L50.49 48.5312C50.5222 48.5999 50.5631 48.6053 50.615 48.5815L50.9035 48.4483C50.9699 48.4176 50.9766 48.3796 50.9538 48.3311L50.6781 47.7405C50.7112 47.7288 50.8031 47.6933 50.8407 47.6758C51.285 47.4712 51.5225 47.0863 51.3067 46.6247ZM50.6734 47.3247C50.6504 47.3355 50.5551 47.3793 50.5162 47.3938L50.2257 46.7719L50.3668 46.7066C50.5831 46.6066 50.7528 46.6399 50.8548 46.8575C50.9512 47.0644 50.8897 47.225 50.6734 47.3247Z" fill="white"/>
<path d="M25.091 31.3322C24.9664 31.2817 24.8512 31.2622 24.7502 31.2622C24.6021 31.2622 24.4809 31.3018 24.4053 31.3349C24.3943 31.34 24.3872 31.3432 24.38 31.347L20.5557 33.1045C20.2947 33.2192 20.12 33.4062 20.0493 33.6462C19.9599 33.9499 20.0478 34.2875 20.1372 34.5177C20.2251 34.744 20.3334 34.9168 20.3644 34.9645C20.4125 35.049 20.5141 35.0817 20.5977 35.045L22.1631 34.3522L22.2061 34.4108C22.4331 34.7201 22.552 35.0296 22.6133 35.2498L22.8685 35.1517C22.8039 34.9283 22.688 34.6333 22.4791 34.3285L22.4183 34.2395L24.2342 33.4382C24.3217 33.4002 24.3651 33.2989 24.3313 33.2121L24.3009 33.1405C24.1501 32.8001 24.0962 32.4437 24.1504 32.138C24.1964 31.8759 24.3217 31.6762 24.4936 31.5905L24.5162 31.58C24.5905 31.5478 24.6663 31.5321 24.7434 31.5321C24.8624 31.5321 24.9827 31.5697 25.1024 31.6415C25.0979 31.5391 25.0941 31.436 25.091 31.3322ZM20.5583 34.7686L20.5185 34.6959C20.4212 34.5183 20.2066 34.0682 20.3085 33.7215C20.3575 33.5554 20.4747 33.4339 20.6668 33.3494L23.9375 31.8459L23.8981 32.0226C23.8932 32.0456 23.8885 32.0686 23.8842 32.0919C23.8277 32.4124 23.8731 32.7881 24.0122 33.1497L24.0426 33.2289L20.5583 34.7686Z" fill="white"/>
<path d="M63.7407 33.6462C63.67 33.4062 63.4956 33.219 63.2346 33.1045L59.41 31.347C59.4029 31.3434 59.3957 31.34 59.385 31.3349C59.3092 31.3018 59.1882 31.2622 59.0401 31.2622C58.9379 31.2622 58.8219 31.2817 58.6962 31.3338C58.693 31.4375 58.6892 31.5409 58.6843 31.6433C58.8051 31.5706 58.9265 31.5324 59.0466 31.5324C59.1238 31.5324 59.1996 31.548 59.2738 31.58L59.2966 31.5905C59.4682 31.6764 59.5934 31.8761 59.6397 32.1382C59.6938 32.4439 59.6401 32.8004 59.4892 33.1405L59.459 33.2123C59.4254 33.2991 59.4688 33.4004 59.5561 33.4384L61.372 34.2397L61.3111 34.3287C61.1023 34.6335 60.9864 34.9285 60.9218 35.1519L61.1767 35.2501C61.2382 35.0298 61.357 34.7203 61.584 34.411L61.6269 34.3524L63.1924 35.0452C63.2762 35.0819 63.3775 35.049 63.4258 34.9647C63.4567 34.9171 63.5652 34.7444 63.6528 34.5179C63.7423 34.2875 63.8304 33.9496 63.7407 33.6462ZM63.2715 34.6959L63.2319 34.7686L59.7477 33.2291L59.7781 33.1497C59.9172 32.7878 59.9626 32.4124 59.906 32.0919C59.9018 32.0684 59.8971 32.0454 59.8922 32.0226L59.853 31.8459L63.1235 33.3494C63.3154 33.4337 63.4325 33.5554 63.4817 33.7213C63.5835 34.0682 63.3686 34.5183 63.2715 34.6959Z" fill="white"/>
<path d="M52.5173 8.06414L52.1358 8.31528C50.7973 9.19685 49.0688 9.68213 47.2693 9.68213C45.3813 9.68213 43.592 9.15547 42.231 8.19943L41.8933 7.96216L41.5558 8.19943C40.1946 9.1557 38.4055 9.68213 36.5178 9.68213C34.718 9.68213 32.9897 9.19685 31.651 8.3155L31.2695 8.06436L25.0373 13.755L24.5703 14.1817L25.0285 14.6182C25.769 15.3233 27.6936 17.5011 27.7052 19.0873C27.72 21.1173 27.122 22.7941 26.3652 24.9168L26.3035 25.0899C26.1217 25.6 25.6757 26.9935 25.4642 28.9112C25.4284 29.2354 25.4011 29.5606 25.383 29.8766C25.3656 30.1823 25.3562 30.4885 25.3553 30.7861C25.3468 33.0014 25.7793 34.9236 26.6403 36.4989C26.7879 36.7695 26.9511 37.0334 27.1251 37.2841C27.1446 37.3122 27.1701 37.3505 27.2018 37.3981L27.2148 37.4173C30.2518 41.984 34.7256 44.8266 39.8122 45.4217L39.8589 45.4273L41.8933 47.4659L43.9288 45.4273L43.9756 45.4217C49.0619 44.8268 53.5357 41.9842 56.5727 37.4178L56.5857 37.3983C56.6176 37.3505 56.6431 37.312 56.6628 37.2836C56.8366 37.0331 56.9998 36.7692 57.1474 36.4991C58.0084 34.9234 58.4407 33.0014 58.4324 30.7863C58.4315 30.4882 58.4222 30.1821 58.4049 29.8766C58.3866 29.5595 58.3593 29.2345 58.3235 28.9112C58.1117 26.9935 57.666 25.5998 57.4842 25.0897L57.4225 24.9166C56.6655 22.7936 56.0677 21.117 56.0825 19.0871C56.0943 17.5004 58.0185 15.3233 58.7589 14.6182L59.2183 14.1819L52.5173 8.06414ZM55.4937 19.0829C55.4778 21.2738 56.1319 23.049 56.9296 25.288C57.2295 26.1298 57.5703 27.4524 57.7383 28.9758C57.772 29.2799 57.7989 29.5919 57.8168 29.9101C57.8333 30.1986 57.8429 30.4918 57.8438 30.7884C57.8505 32.6081 57.5444 34.545 56.6313 36.216C56.4946 36.466 56.3446 36.71 56.18 36.9466C55.7025 37.6329 51.8491 44.0293 43.6591 44.8633L43.6303 44.8921V44.8912L41.8929 46.6324L40.1565 44.8921L40.1275 44.8633C31.9377 44.0293 28.0845 37.6331 27.6068 36.9466C27.4422 36.71 27.2922 36.466 27.1555 36.216C26.2424 34.545 25.9361 32.6081 25.943 30.7884C25.9441 30.4918 25.9533 30.1986 25.9698 29.9101C25.9879 29.5921 26.0148 29.2799 26.0485 28.9758C26.2167 27.4524 26.5569 26.1298 26.857 25.288C27.6549 23.0488 28.309 21.2738 28.2932 19.0829C28.2773 16.8919 25.4331 14.1902 25.4331 14.1902L31.3279 8.80772C32.7113 9.71859 34.5279 10.2712 36.5173 10.2712C38.5985 10.2712 40.4882 9.66872 41.8929 8.68159C43.2979 9.66849 45.1879 10.2712 47.2688 10.2712C49.2583 10.2712 51.0746 9.71859 52.4583 8.80772L58.3533 14.1902C58.3537 14.1904 55.5095 16.8919 55.4937 19.0829Z" fill="white"/>
<path d="M36.2369 16.9269C36.0674 16.8876 35.8343 16.9392 35.6127 17.0822C35.3909 17.2248 35.235 17.4239 35.1804 17.6068C35.3502 17.6462 35.5832 17.5943 35.8046 17.452C36.0262 17.3094 36.183 17.1101 36.2369 16.9269Z" fill="white"/>
<path d="M35.3242 13.7373C35.3457 13.5458 35.2804 13.2913 35.1348 13.0572C34.9892 12.8228 34.7985 12.6652 34.6303 12.62C34.6086 12.8117 34.6739 13.0657 34.8195 13.3003C34.9651 13.5344 35.1558 13.6919 35.3242 13.7373Z" fill="white"/>
<path d="M35.3358 14.5698C35.3087 14.7407 35.3561 14.9719 35.4766 15.19C35.5972 15.4076 35.7616 15.559 35.9105 15.6086C35.9378 15.4382 35.8904 15.2065 35.7701 14.9889C35.6491 14.7709 35.4849 14.6199 35.3358 14.5698Z" fill="white"/>
<path d="M35.6696 14.0262C35.7772 13.8751 35.8405 13.6199 35.8253 13.3357C35.8105 13.0508 35.7213 12.8059 35.5983 12.6697C35.4905 12.8211 35.4279 13.076 35.4429 13.3607C35.4576 13.6447 35.5469 13.8901 35.6696 14.0262Z" fill="white"/>
<path d="M35.9965 15.3636C36.1591 15.2974 36.3329 15.1169 36.4534 14.8655C36.5744 14.6144 36.6133 14.3534 36.5726 14.1658C36.4096 14.232 36.2363 14.4127 36.1153 14.6638C35.9947 14.9152 35.9558 15.1757 35.9965 15.3636Z" fill="white"/>
<path d="M35.155 14.2704C35.3341 14.4311 35.5342 14.513 35.6897 14.5045C35.6642 14.3336 35.5503 14.1328 35.3717 13.972C35.1928 13.8115 34.9926 13.7296 34.8374 13.7379C34.8627 13.9087 34.9765 14.1096 35.155 14.2704Z" fill="white"/>
<path d="M35.8765 14.8351C36.0122 14.7152 36.1259 14.4833 36.1699 14.2022C36.2135 13.9213 36.1768 13.6601 36.0849 13.4962C35.9492 13.6161 35.8356 13.8487 35.7917 14.1295C35.7481 14.4104 35.7848 14.6714 35.8765 14.8351Z" fill="white"/>
<path d="M36.6749 16.1093C36.5054 16.0702 36.2721 16.1221 36.0507 16.2645C35.8293 16.407 35.6723 16.606 35.6187 16.7894C35.7882 16.8285 36.0212 16.7769 36.2426 16.6342C36.4642 16.4917 36.6205 16.2925 36.6749 16.1093Z" fill="white"/>
<path d="M36.3392 15.8804C36.5029 15.6612 36.5881 15.4139 36.5821 15.2213C36.4106 15.2499 36.2079 15.3881 36.0449 15.6073C35.881 15.8265 35.7962 16.0734 35.802 16.2666C35.9736 16.238 36.176 16.0993 36.3392 15.8804Z" fill="white"/>
<path d="M35.3402 16.9368C35.4755 16.8156 35.5878 16.5827 35.6294 16.3014C35.6717 16.0205 35.633 15.7591 35.5404 15.5961C35.4051 15.7173 35.2933 15.9505 35.251 16.2312C35.2092 16.5125 35.2474 16.7735 35.3402 16.9368Z" fill="white"/>
<path d="M35.3079 17.7432C35.0558 17.7937 34.8478 17.9219 34.7407 18.0737C34.889 18.1748 35.1234 18.2137 35.3754 18.1636C35.6272 18.1128 35.835 17.9849 35.9421 17.8329C35.7943 17.732 35.5592 17.6926 35.3079 17.7432Z" fill="white"/>
<path d="M30.7012 16.7894C30.6471 16.606 30.4906 16.4072 30.2689 16.2645C30.0475 16.1221 29.8145 16.0702 29.6448 16.1093C29.6989 16.2927 29.8557 16.4915 30.0773 16.6342C30.2989 16.7769 30.5317 16.8285 30.7012 16.7894Z" fill="white"/>
<path d="M31.1395 17.6068C31.0849 17.4236 30.9286 17.2248 30.707 17.0822C30.4853 16.9395 30.2525 16.8878 30.0833 16.927C30.1371 17.1099 30.2935 17.3091 30.5151 17.4518C30.7365 17.5943 30.9693 17.6462 31.1395 17.6068Z" fill="white"/>
<path d="M31.5788 18.0737C31.4719 17.9219 31.2642 17.7937 31.0119 17.7432C30.7603 17.6926 30.5255 17.732 30.3777 17.8331C30.4841 17.9849 30.6921 18.1131 30.9439 18.1638C31.1964 18.2139 31.4312 18.1748 31.5788 18.0737Z" fill="white"/>
<path d="M35.0819 17.4465C35.1986 17.1933 35.2337 16.9312 35.1901 16.7445C35.028 16.8138 34.8576 16.9981 34.7404 17.2517C34.6239 17.5055 34.5892 17.767 34.633 17.9535C34.7943 17.8842 34.9651 17.7003 35.0819 17.4465Z" fill="white"/>
<path d="M31.0229 18.5468C31.1647 18.6577 31.3969 18.7141 31.6509 18.6816C31.9054 18.6488 32.1201 18.5363 32.2355 18.3916C32.0939 18.2804 31.8614 18.2245 31.6073 18.2569C31.353 18.2896 31.1383 18.4025 31.0229 18.5468Z" fill="white"/>
<path d="M32.2463 18.2806C32.4597 18.4387 32.6893 18.5062 32.8604 18.4787C32.817 18.2922 32.6714 18.0826 32.4585 17.9248C32.245 17.7675 32.0155 17.6998 31.844 17.7273C31.8878 17.9138 32.033 18.1236 32.2463 18.2806Z" fill="white"/>
<path d="M31.1299 16.7443C31.0863 16.9312 31.1212 17.1931 31.2379 17.4463C31.3547 17.7001 31.5255 17.8841 31.687 17.953C31.7306 17.7665 31.6959 17.5048 31.5788 17.2512C31.4622 16.9979 31.2916 16.8136 31.1299 16.7443Z" fill="white"/>
<path d="M31.5003 13.3001C31.6461 13.0657 31.7112 12.8114 31.69 12.62C31.5213 12.6652 31.3306 12.8228 31.185 13.0572C31.0394 13.2913 30.9745 13.5458 30.9956 13.7375C31.164 13.6921 31.3549 13.5344 31.5003 13.3001Z" fill="white"/>
<path d="M31.1647 14.2705C31.3431 14.1097 31.4574 13.9088 31.4824 13.7378C31.3272 13.7295 31.1269 13.8113 30.9486 13.9719C30.7697 14.1329 30.6552 14.3335 30.6306 14.5044C30.7858 14.5131 30.9855 14.4312 31.1647 14.2705Z" fill="white"/>
<path d="M34.6686 18.6816C34.9231 18.7141 35.1548 18.6577 35.2968 18.5468C35.1816 18.4026 34.9665 18.2898 34.7124 18.2572C34.4582 18.2248 34.2263 18.2807 34.0845 18.3918C34.1999 18.5361 34.4146 18.6486 34.6686 18.6816Z" fill="white"/>
<path d="M32.3853 18.5852C32.1357 18.6476 31.9331 18.7858 31.8323 18.9428C31.9837 19.0363 32.2198 19.0647 32.4699 19.0019C32.7105 18.9415 32.9075 18.8109 33.0117 18.6604C33.0428 18.6886 33.073 18.7176 33.1025 18.7472C32.8241 18.9088 32.5826 19.1235 32.3728 19.3988C32.4553 19.5297 32.4967 19.5952 32.5792 19.7258C32.7387 19.3646 32.9335 19.0636 33.168 18.8158C33.3924 19.0616 33.5616 19.3579 33.7222 19.7211C33.8047 19.5905 33.8459 19.525 33.9284 19.3941C33.718 19.1182 33.5006 18.9082 33.2336 18.7492C33.2633 18.7199 33.2937 18.6913 33.3248 18.6633C33.4297 18.8122 33.6256 18.9417 33.8649 19.0017C34.1145 19.0645 34.3509 19.0363 34.5023 18.9426C34.4016 18.7858 34.1988 18.6476 33.949 18.585C33.7408 18.5329 33.5422 18.5445 33.3939 18.6038C33.2521 18.6606 33.1672 18.7109 33.1672 18.7109C33.1036 18.676 33.037 18.6441 32.9672 18.6143C32.9632 18.6125 32.9592 18.611 32.9554 18.6092C32.9538 18.6083 32.952 18.6076 32.9502 18.6069L32.9509 18.6076C32.8013 18.545 32.5985 18.532 32.3853 18.5852Z" fill="white"/>
<path d="M30.3231 15.3636C30.364 15.1757 30.3253 14.9152 30.2041 14.6638C30.0834 14.4124 29.9098 14.232 29.747 14.1658C29.7063 14.3534 29.7452 14.6144 29.866 14.8655C29.987 15.1169 30.1603 15.2974 30.3231 15.3636Z" fill="white"/>
<path d="M34.0733 18.2806C34.2867 18.1236 34.4318 17.9138 34.4756 17.7275C34.3043 17.7 34.0744 17.7678 33.8613 17.925C33.6482 18.0827 33.5028 18.2924 33.4592 18.4789C33.6305 18.5062 33.8602 18.4385 34.0733 18.2806Z" fill="white"/>
<path d="M30.9795 16.9368C31.0719 16.7735 31.1106 16.5125 31.0687 16.2312C31.0269 15.9503 30.9144 15.7171 30.7796 15.5961C30.687 15.7591 30.6483 16.0205 30.6901 16.3014C30.7322 16.5827 30.8447 16.8158 30.9795 16.9368Z" fill="white"/>
<path d="M29.7379 15.2213C29.7316 15.4139 29.8168 15.6612 29.9801 15.8804C30.1438 16.0995 30.3464 16.238 30.5179 16.2666C30.5242 16.0734 30.439 15.8265 30.275 15.6073C30.1116 15.3881 29.9092 15.2499 29.7379 15.2213Z" fill="white"/>
<path d="M30.8438 15.19C30.9639 14.9719 31.0117 14.7407 30.9842 14.5698C30.8353 14.6199 30.6709 14.7709 30.5504 14.9887C30.43 15.2065 30.3824 15.4382 30.4099 15.6086C30.5589 15.559 30.7232 15.4076 30.8438 15.19Z" fill="white"/>
<path d="M30.8773 13.3607C30.8923 13.076 30.8292 12.8211 30.7216 12.6697C30.5986 12.8061 30.5092 13.0508 30.4944 13.3357C30.4792 13.6199 30.5427 13.8751 30.6503 14.0262C30.7733 13.8901 30.8625 13.6447 30.8773 13.3607Z" fill="white"/>
<path d="M30.443 14.8351C30.5347 14.6714 30.5716 14.4104 30.5277 14.1293C30.4841 13.8484 30.3705 13.6158 30.2343 13.496C30.1426 13.6599 30.106 13.9211 30.1498 14.202C30.1936 14.4831 30.307 14.7152 30.443 14.8351Z" fill="white"/>
<path d="M35.8046 17.4521C35.5832 17.5943 35.3502 17.6462 35.1804 17.6068C35.2348 17.4237 35.3909 17.2249 35.6127 17.0822C35.8343 16.9395 36.0674 16.8878 36.2369 16.9272C36.183 17.1101 36.0262 17.3092 35.8046 17.4521Z" fill="white"/>
<path d="M35.9421 17.8331C35.835 17.985 35.6272 18.1131 35.3754 18.1639C35.1234 18.2142 34.8888 18.1751 34.7407 18.074C34.8478 17.9221 35.0558 17.794 35.3079 17.7434C35.5592 17.6927 35.7943 17.732 35.9421 17.8331Z" fill="white"/>
<path d="M35.9103 15.6086C35.7611 15.559 35.5967 15.4076 35.4764 15.19C35.3561 14.9719 35.3087 14.7407 35.3358 14.5698C35.4849 14.6197 35.6491 14.7709 35.7698 14.9889C35.8901 15.2065 35.9378 15.4382 35.9103 15.6086Z" fill="white"/>
<path d="M36.0447 15.6073C36.2082 15.3881 36.4103 15.2499 36.5821 15.2213C36.5879 15.4139 36.5029 15.6612 36.339 15.8804C36.1758 16.0995 35.9734 16.238 35.8021 16.2666C35.796 16.0734 35.881 15.8265 36.0447 15.6073Z" fill="white"/>
<path d="M35.5404 15.5961C35.6327 15.7591 35.6717 16.0205 35.6294 16.3014C35.5878 16.5825 35.4755 16.8156 35.3402 16.9368C35.2474 16.7735 35.2092 16.5125 35.251 16.2312C35.2933 15.9503 35.4051 15.7171 35.5404 15.5961Z" fill="white"/>
<path d="M35.6187 16.7894C35.6725 16.606 35.8293 16.4072 36.0507 16.2645C36.2721 16.1221 36.5054 16.0702 36.6749 16.1093C36.6208 16.2927 36.4642 16.4915 36.2426 16.6342C36.0212 16.7769 35.7882 16.8285 35.6187 16.7894Z" fill="white"/>
<path d="M36.5729 14.1658C36.6136 14.3534 36.5746 14.6144 36.4537 14.8655C36.3331 15.1169 36.1594 15.2974 35.9968 15.3636C35.9561 15.1757 35.995 14.9152 36.1157 14.664C36.2365 14.4127 36.4098 14.232 36.5729 14.1658Z" fill="white"/>
<path d="M36.0854 13.4962C36.1773 13.6601 36.214 13.9213 36.1704 14.2022C36.1263 14.4831 36.0127 14.7152 35.8769 14.8351C35.785 14.6714 35.7486 14.4104 35.7924 14.1293C35.8358 13.8487 35.9496 13.6161 36.0854 13.4962Z" fill="white"/>
<path d="M35.5983 12.6697C35.7213 12.8061 35.8108 13.0508 35.8253 13.3357C35.8405 13.6199 35.7774 13.8748 35.6696 14.0262C35.5469 13.8898 35.4574 13.6447 35.4429 13.3605C35.4279 13.0758 35.4905 12.8211 35.5983 12.6697Z" fill="white"/>
<path d="M35.6897 14.5045C35.5345 14.513 35.3341 14.4311 35.155 14.2704C34.9765 14.1098 34.8624 13.9087 34.8374 13.7379C34.9926 13.7296 35.1928 13.8115 35.3717 13.972C35.5503 14.133 35.6642 14.3336 35.6897 14.5045Z" fill="white"/>
<path d="M34.63 12.6198C34.798 12.6649 34.989 12.8226 35.1346 13.057C35.2802 13.2911 35.3455 13.5456 35.324 13.737C35.1556 13.6916 34.9651 13.5342 34.8192 13.2998C34.6737 13.0657 34.6084 12.8114 34.63 12.6198Z" fill="white"/>
<path d="M34.7402 17.2515C34.8572 16.9979 35.0276 16.8136 35.1899 16.7443C35.2338 16.9312 35.1984 17.1931 35.0817 17.4463C34.965 17.7001 34.7941 17.8841 34.6326 17.9532C34.589 17.7667 34.6237 17.5051 34.7402 17.2515Z" fill="white"/>
<path d="M34.7124 18.257C34.9665 18.2898 35.1816 18.4026 35.2968 18.5468C35.1548 18.6579 34.9231 18.7141 34.6686 18.6816C34.4146 18.6488 34.1999 18.5363 34.0845 18.3916C34.226 18.2802 34.4582 18.2245 34.7124 18.257Z" fill="white"/>
<path d="M33.8613 17.9248C34.0747 17.7675 34.3046 17.6998 34.4756 17.7273C34.432 17.9138 34.2867 18.1236 34.0733 18.2806C33.8602 18.4387 33.6308 18.5062 33.4592 18.4787C33.5031 18.2922 33.6484 18.0826 33.8613 17.9248Z" fill="white"/>
<path d="M32.9551 18.6094C32.9589 18.6112 32.963 18.6128 32.967 18.6145C33.0368 18.6443 33.1036 18.6763 33.1669 18.7112C33.1669 18.7112 33.2517 18.6608 33.3935 18.6043C33.5419 18.5448 33.7403 18.5331 33.9485 18.5853C34.1983 18.6479 34.4012 18.7859 34.5018 18.9428C34.3506 19.0365 34.1142 19.0647 33.8644 19.0019C33.6251 18.9419 33.4292 18.8125 33.3243 18.6635C33.2935 18.6915 33.2631 18.7201 33.2333 18.7494C33.5003 18.9084 33.7179 19.1182 33.9282 19.3944C33.8456 19.5252 33.8045 19.5907 33.722 19.7213C33.5614 19.3581 33.3919 19.062 33.1678 18.816C32.9332 19.0638 32.7384 19.3646 32.579 19.7258C32.4965 19.5952 32.4551 19.5297 32.3726 19.3988C32.5823 19.1238 32.8239 18.9089 33.1023 18.7474C33.0728 18.7179 33.0426 18.6888 33.0115 18.6606C32.9073 18.8109 32.7102 18.9415 32.4696 19.0021C32.2198 19.0649 31.9837 19.0368 31.832 18.9431C31.9329 18.7863 32.1355 18.6481 32.3851 18.5855C32.598 18.5322 32.8008 18.5452 32.9502 18.6081L32.9495 18.6076C32.952 18.6081 32.9536 18.6087 32.9551 18.6094Z" fill="white"/>
<path d="M32.4585 17.9248C32.6714 18.0826 32.8168 18.292 32.8604 18.4787C32.6891 18.506 32.4597 18.4387 32.2463 18.2806C32.033 18.1236 31.8878 17.9138 31.844 17.7273C32.0157 17.6998 32.2452 17.7675 32.4585 17.9248Z" fill="white"/>
<path d="M32.2355 18.3916C32.1203 18.536 31.9054 18.6488 31.6509 18.6816C31.3966 18.7141 31.1647 18.6577 31.0229 18.5468C31.1383 18.4025 31.353 18.2898 31.6071 18.2572C31.8616 18.2245 32.0939 18.2804 32.2355 18.3916Z" fill="white"/>
<path d="M31.687 17.9532C31.5255 17.8841 31.3547 17.7001 31.2379 17.4463C31.1212 17.1931 31.0863 16.9312 31.1299 16.7443C31.2916 16.8136 31.4622 16.9976 31.579 17.2515C31.6959 17.5051 31.7308 17.7667 31.687 17.9532Z" fill="white"/>
<path d="M31.185 13.057C31.3306 12.8228 31.5213 12.6649 31.69 12.6198C31.7114 12.8114 31.6463 13.0655 31.5003 13.3C31.3549 13.5344 31.164 13.6921 30.9956 13.7373C30.9745 13.5458 31.0394 13.2913 31.185 13.057Z" fill="white"/>
<path d="M30.9486 13.972C31.1268 13.8115 31.327 13.7296 31.4824 13.7379C31.4574 13.909 31.3433 14.1098 31.1649 14.2706C30.9857 14.4314 30.7856 14.513 30.6304 14.5047C30.6552 14.3334 30.7695 14.1328 30.9486 13.972Z" fill="white"/>
<path d="M30.4098 15.6086C30.3825 15.4382 30.43 15.2065 30.5503 14.9889C30.6708 14.7709 30.8352 14.6199 30.9841 14.5698C31.0114 14.7407 30.9635 14.9719 30.8435 15.19C30.7231 15.4076 30.5588 15.559 30.4098 15.6086Z" fill="white"/>
<path d="M30.5179 16.2666C30.3463 16.238 30.1437 16.0995 29.98 15.8804C29.8165 15.6612 29.7316 15.4139 29.7376 15.2213C29.9089 15.2499 30.1113 15.3881 30.275 15.6073C30.4389 15.8265 30.5241 16.0734 30.5179 16.2666Z" fill="white"/>
<path d="M30.7796 15.5961C30.9142 15.7173 31.0269 15.9505 31.0687 16.2312C31.1106 16.5125 31.0721 16.7735 30.9795 16.9368C30.8449 16.8156 30.7322 16.5825 30.6901 16.3014C30.6483 16.0205 30.687 15.7591 30.7796 15.5961Z" fill="white"/>
<path d="M30.4944 13.3357C30.5092 13.0505 30.5984 12.8061 30.7214 12.6697C30.8292 12.8211 30.8923 13.0758 30.8773 13.3607C30.8625 13.6449 30.7733 13.8901 30.6501 14.0265C30.5427 13.8751 30.4792 13.6199 30.4944 13.3357Z" fill="white"/>
<path d="M30.2346 13.4962C30.3705 13.6161 30.4842 13.8487 30.528 14.1293C30.5718 14.4102 30.5349 14.6714 30.4432 14.8351C30.3073 14.7152 30.1939 14.4833 30.15 14.2022C30.1062 13.9213 30.1429 13.6601 30.2346 13.4962Z" fill="white"/>
<path d="M29.7472 14.1658C29.9098 14.2322 30.0833 14.4127 30.2041 14.664C30.325 14.9152 30.364 15.1759 30.323 15.3636C30.1602 15.2974 29.9869 15.1169 29.8659 14.8655C29.7454 14.6144 29.7067 14.3534 29.7472 14.1658Z" fill="white"/>
<path d="M29.6448 16.1093C29.8145 16.0702 30.0475 16.1221 30.2689 16.2645C30.4906 16.407 30.6471 16.606 30.7012 16.7894C30.5319 16.8285 30.2989 16.7769 30.0775 16.6342C29.8557 16.4917 29.6989 16.2925 29.6448 16.1093Z" fill="white"/>
<path d="M30.0833 16.9269C30.2525 16.8876 30.4853 16.9392 30.707 17.0822C30.9286 17.2248 31.0851 17.4239 31.1397 17.6068C30.9695 17.6462 30.7369 17.5943 30.5151 17.452C30.2935 17.3094 30.1369 17.1101 30.0833 16.9269Z" fill="white"/>
<path d="M30.3779 17.8331C30.5255 17.7322 30.7606 17.6929 31.0122 17.7434C31.264 17.794 31.472 17.9221 31.5789 18.074C31.4313 18.175 31.1962 18.2142 30.9444 18.1639C30.6924 18.1129 30.4844 17.9849 30.3779 17.8331Z" fill="white"/>
<path d="M39.4073 42.5258C39.3655 42.5231 39.2823 42.5187 39.1937 42.5187C39.1286 42.5187 39.0548 42.5209 38.9685 42.5258L38.941 42.5276L38.9453 42.5006C38.9772 42.293 38.9929 42.0759 38.9929 41.8364V40.5999C38.9929 40.2584 38.9641 40.2213 38.8511 40.2213C38.8191 40.2213 38.7728 40.2287 38.7138 40.2423L38.5204 40.2861C38.4627 40.2995 38.4242 40.3132 38.3848 40.3291L38.373 40.3335L38.3191 40.2926L38.3278 40.2758C38.3547 40.2255 38.3915 40.1361 38.4099 40.0585L38.4135 40.0433L38.4293 40.0417C38.5293 40.031 38.5953 40.0238 38.7113 39.9983L39.1199 39.9106C39.1946 39.8959 39.2771 39.8733 39.3485 39.8527L39.3608 39.8494L39.4073 39.8954L39.4055 39.9064C39.3731 40.1332 39.3585 40.391 39.3585 40.5455V41.8768C39.3585 42.1468 39.3831 42.361 39.4299 42.4965L39.4408 42.5281L39.4073 42.5258Z" fill="white"/>
<path d="M42.2944 42.5508L42.2926 42.5711L42.2724 42.5714C42.2693 42.5714 41.9643 42.5749 41.7851 42.5893L41.7702 42.5904L41.7362 42.5224L43.0719 40.2511H42.2358C42.1054 40.2511 41.9377 40.2646 41.7966 40.3672L41.7867 40.3746L41.7185 40.3475L41.7259 40.3274C41.7702 40.2055 41.8064 40.0013 41.8198 39.9193L41.8232 39.8994L41.8435 39.9007C41.941 39.9076 42.0434 39.9076 42.1517 39.9076H43.1106C43.2354 39.9076 43.2922 39.9076 43.4043 39.8971L43.4264 39.8949L43.4286 39.917C43.432 39.9535 43.4575 40.1217 43.4711 40.1597L43.4754 40.172L43.4667 40.1818C43.2618 40.4131 43.0158 40.8407 42.8022 41.2282C42.4585 41.8551 42.3255 42.2012 42.2944 42.5508Z" fill="white"/>
<path d="M40.9273 41.0612C41.1754 40.9212 41.4075 40.7508 41.4075 40.412C41.4075 40.0463 41.1033 39.7806 40.6845 39.7806C40.2529 39.7806 39.9147 40.0899 39.9147 40.4849C39.9147 40.8109 40.1348 40.9968 40.3602 41.1336C40.0033 41.3432 39.7834 41.5478 39.7834 41.8962C39.7834 42.3088 40.1153 42.5969 40.5901 42.5969C41.1143 42.5969 41.4949 42.2652 41.4949 41.8086C41.4951 41.4375 41.2268 41.2282 40.9273 41.0612ZM40.2542 40.4097C40.2542 40.1637 40.4412 39.9801 40.691 39.9801C40.9446 39.9801 41.1322 40.1671 41.1322 40.4207C41.1322 40.7038 40.9267 40.8474 40.7169 40.9648C40.4821 40.829 40.2542 40.6821 40.2542 40.4097ZM40.6254 42.4052C40.3202 42.4052 40.0997 42.1852 40.0997 41.8873C40.0997 41.5673 40.3459 41.3725 40.6033 41.2477C40.9524 41.4389 41.1727 41.5968 41.1727 41.8906C41.1727 42.1809 40.9338 42.4052 40.6254 42.4052Z" fill="white"/>
<path d="M44.6012 41.1153C44.8488 40.9757 45.0809 40.8053 45.0809 40.4665C45.0809 40.1004 44.7772 39.835 44.3583 39.835C43.9267 39.835 43.5886 40.1445 43.5886 40.5396C43.5886 40.8661 43.808 41.0518 44.0334 41.1882C43.6769 41.3973 43.4575 41.6019 43.4575 41.951C43.4575 42.3636 43.7889 42.6516 44.2635 42.6516C44.7881 42.6516 45.1686 42.3202 45.1686 41.8636C45.1683 41.4919 44.9004 41.2825 44.6012 41.1153ZM43.9551 40.4649C43.9551 40.2185 44.1425 40.0349 44.3923 40.0349C44.6457 40.0349 44.8331 40.2221 44.8331 40.4759C44.8331 40.7586 44.6271 40.9021 44.418 41.0196C44.1828 40.8836 43.9551 40.7367 43.9551 40.4649ZM44.3261 42.46C44.0211 42.46 43.8008 42.2393 43.8008 41.9418C43.8008 41.6222 44.047 41.4272 44.304 41.3025C44.6533 41.4934 44.8738 41.6511 44.8738 41.9454C44.8736 42.2357 44.6345 42.46 44.3261 42.46Z" fill="white"/>
<path d="M33.8734 37.0342C33.8255 37.2062 33.6741 37.7534 33.6618 37.7982C32.8663 37.7718 32.3381 37.7653 31.8707 37.7653C31.2823 37.7653 30.8992 37.7653 30.5806 37.7722C30.6371 37.3974 30.6794 36.9654 30.6794 36.4277V34.2064C30.6794 33.8456 30.6655 33.1586 30.5378 32.8406C30.7791 32.8547 30.9417 32.8547 31.1191 32.8547H32.4519C32.9269 32.8547 33.1181 32.8406 33.6359 32.8333C33.5417 33.1727 33.4424 33.5312 33.4046 33.6679C33.3668 33.8047 33.295 33.7023 33.2816 33.6826C33.0616 33.3644 32.6364 33.3288 32.2325 33.3288C32.1046 33.3288 31.9559 33.336 31.7786 33.3434C31.7716 33.4632 31.7504 33.8032 31.7504 34.1075V34.8292H32.3388C32.7704 34.8292 33.2047 34.7972 33.3738 34.7724C33.4447 34.7617 33.4301 34.822 33.4301 34.822C33.3776 35.0124 33.306 35.27 33.2602 35.4357C32.8062 35.3934 32.5582 35.3811 32.2464 35.3811H31.743V36.3859C31.743 37.0369 31.8139 37.2494 32.5861 37.2494C33.0265 37.2494 33.2604 37.2518 33.7343 36.8909C33.8192 36.8254 33.921 36.8627 33.8734 37.0342Z" fill="white"/>
<path d="M36.0036 37.0416C35.8972 37.2967 35.8471 37.4812 35.7833 37.765C35.7122 37.7583 35.5485 37.7583 35.385 37.7583C35.2432 37.7583 35.0655 37.765 34.9302 37.7724C34.8805 37.46 34.8237 37.2614 34.7168 36.9496L34.2481 35.5166C34.1061 35.0908 33.935 34.6227 33.6226 34.2607C34.0917 34.2747 34.461 34.2539 34.9089 34.2184C34.9375 34.5659 35.0154 34.8994 35.1149 35.2321L35.3783 36.1336C35.4423 36.3458 35.5774 36.8213 35.5774 36.8213C35.6268 36.6656 35.684 36.5162 35.7332 36.3816L36.1456 35.3175C36.2163 35.1333 36.3091 34.8495 36.3373 34.5588C36.3373 34.4595 36.3444 34.3669 36.3373 34.2463C36.437 34.2537 36.6217 34.2537 36.7709 34.2537C36.9131 34.2537 37.1441 34.2358 37.2526 34.2215C37.3499 34.2094 37.336 34.2691 37.3038 34.3101C37.0594 34.6203 36.8633 35.0409 36.6785 35.4736L36.0036 37.0416Z" fill="white"/>
<path d="M41.7046 37.7711C41.5896 37.7639 41.3595 37.7568 41.137 37.7568C40.9147 37.7568 40.6915 37.7639 40.5553 37.7711C40.62 37.3547 40.6417 37.0107 40.6417 36.4946V35.634C40.6417 35.2898 40.6128 34.6733 40.4905 34.2931C40.7638 34.2931 41.1878 34.2788 41.4745 34.2645L41.4606 35.0819L41.7191 34.7448C42.0423 34.3213 42.265 34.1853 42.6025 34.1853C42.7246 34.1853 42.7821 34.1956 42.9111 34.2531C42.8098 34.6171 42.704 35 42.6423 35.2225C42.6291 35.2702 42.5848 35.3355 42.5202 35.263C42.3829 35.1103 42.3585 35.0532 42.193 35.0532C41.9922 35.0532 41.8269 35.1606 41.7046 35.3616C41.604 35.5262 41.561 35.6629 41.561 36.0068V36.5883C41.561 37.2046 41.604 37.4627 41.7046 37.7711Z" fill="white"/>
<path d="M45.6739 34.3204C45.646 34.4209 45.5646 34.7165 45.5308 34.8384C45.2515 34.806 45.0813 34.8039 44.8935 34.8039H44.5755C44.5605 35.0419 44.5535 35.3308 44.5535 35.533V36.3484C44.5535 36.8969 44.611 37.301 45.0885 37.301C45.2405 37.301 45.3629 37.2664 45.5512 37.1709C45.5814 37.1552 45.6552 37.1593 45.629 37.2548C45.5847 37.4131 45.5445 37.5589 45.4946 37.7403C45.0654 37.8536 44.8863 37.8854 44.6555 37.8854C44.0401 37.8854 43.6424 37.6179 43.6424 36.7377V35.6408C43.6424 35.2872 43.6424 35.0347 43.6284 34.7966C43.4401 34.7966 43.2388 34.8194 43.1406 34.8366C43.1189 34.8402 43.0715 34.8312 43.0928 34.7538C43.0988 34.7319 43.1885 34.4081 43.2207 34.2923C43.3119 34.3012 43.4834 34.3055 43.6572 34.3055C43.6572 34.0243 43.6422 33.8727 43.6281 33.6558C43.8808 33.5838 44.3395 33.3758 44.5374 33.2508C44.6106 33.2047 44.6479 33.2709 44.6416 33.3485C44.6352 33.4322 44.5855 33.6703 44.5752 34.3052H45.0742C45.2473 34.3052 45.4418 34.2983 45.6234 34.2547C45.6496 34.2489 45.6898 34.2632 45.6739 34.3204Z" fill="white"/>
<path d="M52.6713 37.7579C52.4389 37.7579 52.2066 37.7653 52.0831 37.7722C52.1484 37.3806 52.1704 36.9242 52.1704 36.4022V35.772C52.1704 35.3514 52.1411 34.8658 51.5464 34.8658C51.3351 34.8658 51.1246 34.9528 50.9652 35.1047C50.7836 35.2861 50.7328 35.4386 50.7328 35.8876V36.4022C50.7328 37.0619 50.7762 37.4607 50.8777 37.7722C50.7695 37.7653 50.5295 37.7579 50.3043 37.7579C50.0648 37.7579 49.8399 37.7653 49.7162 37.7722C49.7815 37.3806 49.8034 36.9242 49.8034 36.4022V35.5182C49.8034 35.1702 49.7743 34.6411 49.6509 34.2569C49.9705 34.2569 50.4135 34.2569 50.7183 34.2276L50.6966 34.8513L50.9869 34.6049C51.3427 34.3074 51.6332 34.1842 51.9961 34.1842C52.824 34.1842 53.1069 34.6482 53.1069 35.4672V36.4022C53.1069 37.0619 53.1508 37.4607 53.2525 37.7722C53.1362 37.7653 52.896 37.7579 52.6713 37.7579Z" fill="white"/>
<path d="M40.0807 35.9416C40.203 35.9416 40.203 35.6377 40.203 35.5668C40.203 34.7176 39.6575 34.1941 38.7851 34.1941C37.7719 34.1941 37.0703 34.958 37.0703 36.0619C37.0703 37.1517 37.7647 37.8946 38.8565 37.8946C39.2322 37.8946 39.6394 37.7897 39.965 37.6837C40.023 37.4741 40.0409 37.4113 40.1093 37.164C40.141 37.0492 40.0769 37.0128 40.0185 37.0528C39.7669 37.2275 39.5862 37.2861 39.2814 37.2861C38.5233 37.2861 38.0697 36.8046 38.0548 35.9628C38.2889 35.9485 38.8064 35.9414 39.1747 35.9414L40.0807 35.9416ZM38.0478 35.5243C38.0834 34.9439 38.2748 34.604 38.7283 34.604C39.0475 34.604 39.2885 34.8449 39.2885 35.1774C39.2885 35.4035 39.168 35.4956 38.863 35.5028L38.0478 35.5243Z" fill="white"/>
<path d="M47.6891 34.1851C46.4231 34.1851 45.7471 34.9948 45.7471 36.1099C45.7471 37.2319 46.4017 37.8855 47.5189 37.8855C48.6928 37.8855 49.4464 37.1252 49.4464 35.9321C49.4467 34.8244 48.8136 34.1851 47.6891 34.1851ZM47.5968 37.4877C47.0562 37.4877 46.7577 36.9622 46.7577 35.9681C46.7577 35.1228 46.9853 34.5898 47.5755 34.5898C48.1306 34.5898 48.4367 35.1228 48.4367 36.1101C48.437 37.0187 48.1447 37.4877 47.5968 37.4877Z" fill="white"/>
<path d="M45.8203 19.4055L42.258 11.9126C42.3882 11.6344 42.1301 11.2766 41.8541 11.2766C41.5784 11.2766 41.3601 11.6367 41.4912 11.9182L37.955 19.4458C37.2504 19.8242 37.0967 20.3043 37.2419 20.6234C37.2419 20.6234 37.3253 20.8491 37.6395 20.9428C37.6426 21.4312 37.648 26.092 37.6527 26.9881C37.6529 27.0006 37.6565 27.0286 37.6469 27.0272C37.5033 27.0051 37.3414 27.0999 37.3414 27.3468C37.3414 27.7238 37.343 27.9455 37.3436 28.3113C37.3436 28.4006 37.3456 28.662 37.3456 28.6899C37.3456 28.9889 37.6527 29.0833 37.6527 29.0833C37.6527 29.0833 44.4036 31.4954 44.6261 31.5802C44.9472 31.703 45.2379 31.8041 45.5148 31.9134C45.6072 31.9499 45.6121 32.0029 45.6192 32.1695V32.5116C45.6192 32.5116 45.791 32.5195 45.8798 32.5195C46.5321 32.5195 46.4509 32.1876 46.4702 31.192C46.4903 30.1463 46.4923 29.8291 46.1929 29.7623C46.1694 27.0131 46.2291 22.1954 46.2159 20.8379C46.4364 20.7527 46.6292 20.5807 46.6582 20.3162C46.6862 20.0719 46.4219 19.7003 45.8203 19.4055ZM41.9047 12.7432C42.0239 12.9979 42.1567 13.2813 42.2969 13.5818C42.1732 13.5897 41.9297 13.6089 41.7745 13.6447C41.6833 13.6648 41.6667 13.6979 41.6667 13.7294C41.6667 13.7581 41.7032 13.8037 41.798 13.8057C41.9932 13.8097 42.2707 13.8229 42.413 13.8307C42.4559 13.9202 42.4971 14.0112 42.54 14.1027C42.4378 14.1331 42.2915 14.1776 42.2506 14.1937C42.1864 14.2196 42.1193 14.2431 42.1245 14.2912C42.1287 14.3337 42.1985 14.3393 42.2546 14.3469C42.3763 14.3621 42.5586 14.374 42.6657 14.371C42.7366 14.5231 42.7882 14.6336 42.8609 14.7895C42.9059 14.8863 42.7703 14.9055 42.655 14.9131C42.5192 14.923 42.1712 14.9221 42.0055 14.9438C41.9404 14.9516 41.9156 14.9869 41.9156 15.0241C41.9156 15.0592 41.9646 15.0894 42.0263 15.0936C42.2638 15.1066 42.5559 15.1307 42.7113 15.1609C42.8401 15.1858 42.9844 15.2182 43.0774 15.2531C43.123 15.3488 43.1657 15.4443 43.2105 15.5395C43.2357 15.5939 43.1619 15.6209 43.1076 15.6256C43.0186 15.633 42.6219 15.6082 42.4101 15.6288C42.3168 15.6386 42.2967 15.6612 42.2967 15.7084C42.2967 15.7424 42.3144 15.7636 42.4051 15.7788C42.5738 15.8063 42.9139 15.82 43.0213 15.8379C43.1346 15.8558 43.2834 15.8951 43.4014 15.9466C43.4741 16.1033 43.5202 16.2015 43.5911 16.3554C43.6204 16.4184 43.5799 16.4399 43.5405 16.4426C43.4781 16.4475 42.7605 16.4562 42.6992 16.4598C42.6259 16.4652 42.544 16.486 42.5322 16.5452C42.523 16.5915 42.5854 16.6582 42.752 16.6689C42.9184 16.6794 43.5455 16.7159 43.8693 16.9484C43.9572 17.137 44.0424 17.3201 44.124 17.4939C43.8789 17.4713 43.0273 17.3991 42.6382 17.4102C42.3034 17.4196 42.165 17.4102 42.1522 17.4785C42.1401 17.5464 42.2099 17.5769 42.4212 17.5981C42.6225 17.618 43.7313 17.684 44.319 17.9125C44.434 18.1581 44.5366 18.3784 44.6245 18.5649C44.3157 18.5032 43.5989 18.3963 43.1644 18.386C42.9969 18.3819 42.9314 18.4175 42.9314 18.4877C42.9314 18.5586 43.0823 18.5676 43.1852 18.5778C43.7284 18.6317 44.4948 18.818 44.7954 18.9323C44.8269 19.0001 44.8519 19.0531 44.8721 19.096C43.8856 18.8903 42.4792 18.7907 41.857 18.7907C41.2418 18.7907 39.9177 18.8786 38.9276 19.1146C39.2096 18.515 40.9571 14.7702 41.9047 12.7432ZM39.2653 29.2278C39.2653 29.2573 39.2412 29.2725 39.211 29.262C38.9046 29.1547 38.7514 29.1014 38.4457 28.9965C38.4155 28.986 38.3911 28.9538 38.3911 28.9243V27.6489C38.3911 27.6192 38.4155 27.6044 38.4457 27.6158C38.7516 27.731 38.9046 27.788 39.2112 27.901C39.2414 27.9121 39.2658 27.9446 39.2658 27.9736C39.2655 28.4703 39.2655 28.7228 39.2653 29.2278ZM40.5447 29.6806C40.5447 29.7099 40.5199 29.7252 40.4897 29.7144C40.1838 29.6055 40.0304 29.5509 39.7242 29.4427C39.694 29.432 39.6696 29.3998 39.6696 29.3702C39.6699 28.8668 39.6699 28.6144 39.6703 28.1212C39.6703 28.0924 39.6947 28.0781 39.7251 28.0888C40.0317 28.1997 40.1851 28.2545 40.492 28.3619C40.5221 28.3726 40.5465 28.4041 40.5465 28.433C40.5456 28.9248 40.5454 29.1786 40.5447 29.6806ZM41.8233 30.1344C41.823 30.1635 41.7984 30.1787 41.7685 30.1679C41.4625 30.0595 41.3093 30.0056 41.0034 29.8969C40.9732 29.8859 40.9486 29.8535 40.9488 29.8242C40.9497 29.3217 40.9502 29.0665 40.9513 28.5732C40.9513 28.5444 40.9761 28.5296 41.0063 28.5397C41.3127 28.645 41.4661 28.696 41.772 28.7971C41.8022 28.8071 41.8268 28.8391 41.8268 28.8684C41.8253 29.3702 41.8246 29.6303 41.8233 30.1344ZM43.1 30.5823C43.0998 30.6119 43.0754 30.6271 43.0452 30.6166C42.7395 30.5101 42.587 30.4564 42.2815 30.3489C42.2513 30.3381 42.2267 30.3059 42.2269 30.2764C42.2285 29.7714 42.2294 29.5084 42.2307 29.0008C42.2309 28.9711 42.2555 28.9552 42.2857 28.965C42.5917 29.0636 42.7444 29.1117 43.0497 29.2068C43.0801 29.2162 43.1045 29.2486 43.1042 29.2792C43.1024 29.8041 43.1018 30.0742 43.1 30.5823ZM44.3751 31.0249C44.3751 31.0547 44.3506 31.0703 44.3206 31.0596C44.0153 30.9543 43.8628 30.901 43.5573 30.795C43.5271 30.7845 43.503 30.7521 43.503 30.7223C43.505 30.2129 43.5057 29.9394 43.5074 29.4047C43.5074 29.3736 43.532 29.3559 43.562 29.3651C43.8671 29.4584 44.0196 29.5042 44.3244 29.5957C44.3546 29.6046 44.3787 29.6384 44.3787 29.6713C44.3776 30.2299 44.3767 30.5128 44.3751 31.0249ZM40.5745 28.0101C39.0654 27.485 38.3826 27.2097 38.3672 26.7709C38.3578 26.4992 38.3211 25.3705 38.3491 25.0836L38.3209 20.875C38.3196 20.7502 38.5235 20.6769 38.7087 20.6315C38.8867 20.5877 39.9986 20.3412 41.8575 20.3412C43.7174 20.3412 45.0172 20.5648 45.3518 20.6995C45.4251 20.729 45.5139 20.7637 45.5669 20.8095L45.5714 21.172C45.2552 21.1282 44.0547 20.9629 43.5417 20.9285C43.3048 20.9121 42.9967 20.9012 42.6957 20.8938C42.6945 20.8618 42.6825 20.831 42.661 20.807C42.6366 20.78 42.6022 20.7637 42.5655 20.7621C41.9093 20.7344 41.6783 20.7341 41.0108 20.7621C40.9741 20.7637 40.9399 20.7798 40.9153 20.807C40.8909 20.8341 40.8779 20.8699 40.88 20.9063L40.9674 22.5118C40.9406 22.5138 40.9171 22.5152 40.8965 22.5165C40.5696 22.5433 39.2595 22.7276 39.1716 22.7502C39.052 22.7813 39.0222 22.8148 39.0334 22.8589C39.0509 22.9298 39.1448 22.9056 39.2405 22.8947C39.8915 22.8206 40.4776 22.7808 40.9808 22.7612L40.9947 23.017C40.9989 23.0899 41.0589 23.1463 41.1311 23.1463H41.1367C41.6922 23.123 41.8832 23.123 42.4387 23.1463C42.512 23.1489 42.5767 23.0919 42.5807 23.017L42.5946 22.7629C42.8037 22.7735 42.9162 22.7842 42.9162 22.7842C43.8509 22.866 45.0718 23.0443 45.5984 23.3627L45.6025 23.7414C45.2952 23.6752 44.5084 23.5115 44.2186 23.4893C43.8565 23.4618 43.6843 23.4804 43.624 23.4893C43.5634 23.4976 43.5124 23.5334 43.5202 23.5797C43.5287 23.6244 43.5801 23.6521 43.658 23.6599C43.7326 23.6684 44.8949 23.7116 45.6076 24.1976L45.6121 24.5813C45.2017 24.4988 43.8424 24.2376 42.8994 24.192C41.6649 24.1334 40.1288 24.2819 40.0085 24.3007C39.8881 24.3177 39.8278 24.3534 39.836 24.4167C39.8448 24.4807 39.8653 24.5109 40.0346 24.4986C40.1563 24.4896 42.3987 24.4085 43.5723 24.5791C44.5295 24.7186 45.1887 24.8774 45.6181 25.0829L45.6237 25.5658C45.2431 25.4877 44.41 25.3263 43.9865 25.2905C43.1065 25.2164 42.546 25.2299 42.4508 25.2299C42.3636 25.2299 42.3273 25.2699 42.3313 25.3242C42.3354 25.3909 42.3982 25.3904 42.4584 25.3924C42.574 25.3963 43.2243 25.4141 43.9431 25.5257C44.4132 25.598 45.1438 25.7129 45.6288 25.9638L45.6347 26.4529C45.382 26.4239 44.885 26.3688 44.6755 26.3621C44.3912 26.3539 44.154 26.3603 44.0634 26.3802C44.0044 26.3937 43.9728 26.4335 43.9809 26.4693C43.9905 26.5055 44.0214 26.5341 44.0806 26.5341C44.1412 26.5341 44.5643 26.5609 44.8837 26.6144C45.1355 26.6573 45.4359 26.7459 45.6394 26.847C45.6394 26.847 45.6409 27.3253 45.6416 27.4843C45.6416 27.5024 45.0991 27.3146 44.5621 27.2804C44.0762 27.2493 43.6132 27.2564 43.2476 27.2864C43.214 27.2893 43.1118 27.307 43.1143 27.3958C43.1168 27.4924 43.2275 27.4754 43.2805 27.4774C43.5575 27.4877 43.7861 27.4769 44.2729 27.525C44.9812 27.5955 45.6483 27.8225 45.6483 27.837C45.6492 28.0322 45.6494 28.2082 45.6494 28.4415C45.6494 28.4502 45.3448 28.3547 44.8703 28.2917C44.6746 28.2657 44.3351 28.2293 44.2063 28.2409C44.1193 28.2485 44.0377 28.2639 44.0341 28.3429C44.0294 28.456 44.2291 28.4583 44.2996 28.467C44.3747 28.4764 44.5838 28.49 44.9497 28.5504C45.2478 28.5994 45.6494 28.7134 45.6494 28.7233C45.6494 29.2256 45.6483 29.6312 45.6483 29.6312C44.1444 29.2139 42.1542 28.5965 40.5745 28.0101ZM43.8395 21.904C43.904 21.904 45.0733 21.9357 45.5857 22.3644L45.5919 22.8515C45.2648 22.7723 44.5051 22.6037 43.6155 22.5165C43.3791 22.4928 43.1436 22.4787 42.9135 22.4689C42.9135 22.4689 42.7949 22.4653 42.6118 22.4626L42.6863 21.1009C43.0324 21.1257 43.3947 21.159 43.7105 21.2009C44.2184 21.2677 45.1639 21.4375 45.577 21.6083L45.5814 21.959C45.3784 21.912 44.9432 21.8181 44.6417 21.7774C44.2358 21.7237 43.9236 21.7237 43.8545 21.7333C43.7848 21.7416 43.7004 21.747 43.7018 21.823C43.7027 21.8863 43.7695 21.904 43.8395 21.904ZM42.4069 21.1114L42.3137 22.8676C42.3137 22.8676 41.8141 22.8589 41.4167 22.8676L41.3149 21.1199C41.3149 21.1199 41.9921 21.0861 42.4069 21.1114ZM45.6514 31.4682C45.6514 31.4981 45.6266 31.5136 45.5969 31.5028C45.2909 31.3957 45.1384 31.3429 44.8329 31.2371C44.803 31.2266 44.7788 31.1944 44.7788 31.1642C44.7799 30.6514 44.7804 30.3641 44.7817 29.7927C44.7817 29.7594 44.8061 29.7397 44.8361 29.7486C45.1407 29.8392 45.2927 29.8842 45.5971 29.9752C45.6271 29.9839 45.6514 30.0199 45.6514 30.055V31.4682ZM45.88 20.4009C45.8078 20.5268 45.6479 20.4772 45.4804 20.4009C45.3254 20.3305 44.0303 19.8617 41.8577 19.8617C39.6855 19.8617 38.5003 20.2862 38.3424 20.3244C38.1858 20.3631 37.968 20.4881 37.8472 20.2611C37.7676 20.1127 37.8714 19.9709 38.1129 19.8705C38.3556 19.7687 40.1113 19.3861 41.8577 19.3688C43.6056 19.3516 45.2744 19.7309 45.7463 20.0342C45.8668 20.11 45.9529 20.2737 45.88 20.4009Z" fill="white"/>
<path d="M47.5475 16.6342C47.7691 16.7769 48.0019 16.8285 48.1714 16.7894C48.1175 16.606 47.961 16.4072 47.7392 16.2648C47.518 16.1223 47.2847 16.0704 47.115 16.1095C47.1696 16.2927 47.3259 16.4915 47.5475 16.6342Z" fill="white"/>
<path d="M48.6001 16.7443C48.556 16.9312 48.5914 17.1931 48.7081 17.4463C48.8251 17.7001 48.9955 17.8841 49.1572 17.953C49.2008 17.7665 49.1661 17.5048 49.0498 17.2512C48.9324 16.9979 48.762 16.8136 48.6001 16.7443Z" fill="white"/>
<path d="M47.7934 15.3636C47.8344 15.1757 47.7957 14.9152 47.6747 14.6638C47.5537 14.4124 47.3804 14.232 47.2176 14.1658C47.1766 14.3534 47.2158 14.6144 47.3365 14.8655C47.4571 15.1169 47.6308 15.2974 47.7934 15.3636Z" fill="white"/>
<path d="M48.9709 13.3001C49.1163 13.0657 49.1818 12.8114 49.1603 12.62C48.9919 12.6652 48.8012 12.8228 48.6556 13.0572C48.5098 13.2913 48.4447 13.5458 48.4662 13.7375C48.6343 13.6921 48.8253 13.5344 48.9709 13.3001Z" fill="white"/>
<path d="M48.6351 14.2705C48.8138 14.1097 48.9278 13.9088 48.9529 13.7378C48.7979 13.7295 48.5971 13.8113 48.4186 13.9719C48.2401 14.1329 48.1261 14.3335 48.1006 14.5044C48.256 14.5131 48.4559 14.4312 48.6351 14.2705Z" fill="white"/>
<path d="M47.9133 14.8351C48.0049 14.6714 48.0416 14.4104 47.9982 14.1293C47.9544 13.8484 47.8406 13.6158 47.7051 13.496C47.6134 13.6599 47.5765 13.9211 47.6201 14.202C47.6637 14.4831 47.7777 14.7152 47.9133 14.8351Z" fill="white"/>
<path d="M48.3477 13.3607C48.3627 13.076 48.2996 12.8211 48.192 12.6697C48.0688 12.8061 47.9798 13.0508 47.9648 13.3357C47.9499 13.6199 48.0129 13.8751 48.1205 14.0262C48.2435 13.8901 48.3327 13.6447 48.3477 13.3607Z" fill="white"/>
<path d="M52.6256 14.2704C52.8043 14.4311 53.0043 14.513 53.1597 14.5045C53.1349 14.3336 53.0206 14.1328 52.8419 13.972C52.6637 13.8115 52.4631 13.7296 52.3079 13.7379C52.3329 13.9087 52.4467 14.1096 52.6256 14.2704Z" fill="white"/>
<path d="M52.1388 18.6816C52.3928 18.7141 52.625 18.6577 52.7668 18.5468C52.6514 18.4026 52.4367 18.2898 52.1826 18.2572C51.9286 18.2248 51.6958 18.2807 51.5544 18.3918C51.6696 18.5361 51.8848 18.6486 52.1388 18.6816Z" fill="white"/>
<path d="M52.7946 13.7373C52.8156 13.5458 52.7507 13.2913 52.6052 13.0572C52.4594 12.8228 52.2688 12.6652 52.1002 12.62C52.0787 12.8117 52.1438 13.0657 52.2896 13.3003C52.4352 13.5344 52.6262 13.6919 52.7946 13.7373Z" fill="white"/>
<path d="M52.5522 17.4465C52.6689 17.1933 52.7036 16.9312 52.6602 16.7445C52.4985 16.8138 52.3279 16.9981 52.2112 17.2517C52.094 17.5055 52.0593 17.767 52.1034 17.9535C52.2648 17.8842 52.4355 17.7003 52.5522 17.4465Z" fill="white"/>
<path d="M53.1402 14.0262C53.2475 13.8751 53.3111 13.6199 53.2961 13.3357C53.2811 13.0508 53.1916 12.8059 53.0691 12.6697C52.9615 12.8211 52.898 13.076 52.9134 13.3607C52.9277 13.6447 53.017 13.8901 53.1402 14.0262Z" fill="white"/>
<path d="M53.3469 14.8351C53.4829 14.7152 53.5965 14.4833 53.6401 14.2022C53.684 13.9213 53.6475 13.6601 53.5556 13.4962C53.4196 13.6161 53.3058 13.8487 53.2624 14.1295C53.2183 14.4104 53.2555 14.6714 53.3469 14.8351Z" fill="white"/>
<path d="M53.3803 15.6086C53.4076 15.4382 53.3604 15.2065 53.2399 14.9889C53.1196 14.7709 52.955 14.6199 52.8061 14.5698C52.7788 14.7407 52.8264 14.9719 52.9465 15.19C53.067 15.4076 53.2312 15.559 53.3803 15.6086Z" fill="white"/>
<path d="M53.4668 15.3636C53.6296 15.2974 53.8031 15.1169 53.9239 14.8655C54.0446 14.6144 54.0833 14.3534 54.0431 14.1658C53.8805 14.232 53.707 14.4127 53.5857 14.6638C53.4648 14.9152 53.4261 15.1757 53.4668 15.3636Z" fill="white"/>
<path d="M52.7215 16.2312C52.6795 16.5125 52.7182 16.7737 52.8105 16.9368C52.9454 16.8158 53.0579 16.5827 53.1001 16.3014C53.142 16.0205 53.1033 15.7591 53.0111 15.5961C52.8758 15.7171 52.7636 15.9503 52.7215 16.2312Z" fill="white"/>
<path d="M47.2083 15.2213C47.2023 15.4139 47.2873 15.6612 47.4512 15.8804C47.6144 16.0995 47.8168 16.238 47.9886 16.2666C47.9946 16.0734 47.9094 15.8265 47.7457 15.6073C47.5822 15.3881 47.3796 15.2499 47.2083 15.2213Z" fill="white"/>
<path d="M48.4146 18.1637C48.6666 18.214 48.9014 18.1748 49.049 18.0738C48.9424 17.9219 48.7339 17.7938 48.4819 17.7432C48.2305 17.6927 47.9957 17.7318 47.8479 17.8329C47.955 17.985 48.163 18.1129 48.4146 18.1637Z" fill="white"/>
<path d="M51.5438 18.2806C51.7571 18.1236 51.9023 17.9138 51.9461 17.7275C51.7746 17.7 51.5451 17.7678 51.3318 17.925C51.1189 18.0827 50.9733 18.2924 50.9297 18.4789C51.101 18.5062 51.3307 18.4385 51.5438 18.2806Z" fill="white"/>
<path d="M47.5532 16.927C47.6073 17.1101 47.7639 17.3092 47.9855 17.4518C48.2069 17.5941 48.4397 17.6459 48.6099 17.6066C48.5553 17.4237 48.3992 17.2246 48.1772 17.0819C47.9558 16.9395 47.723 16.8878 47.5532 16.927Z" fill="white"/>
<path d="M48.3141 15.19C48.4342 14.9719 48.4816 14.7407 48.4545 14.5698C48.3056 14.6199 48.1414 14.7709 48.0207 14.9887C47.9003 15.2065 47.8525 15.4382 47.8798 15.6086C48.0291 15.559 48.1935 15.4076 48.3141 15.19Z" fill="white"/>
<path d="M48.4499 16.9368C48.5427 16.7735 48.581 16.5125 48.5389 16.2312C48.4969 15.9503 48.385 15.7171 48.2498 15.5961C48.1569 15.7591 48.1185 16.0205 48.1605 16.3014C48.2028 16.5827 48.3148 16.8158 48.4499 16.9368Z" fill="white"/>
<path d="M48.4934 18.5468C48.6352 18.6577 48.8673 18.7141 49.1216 18.6816C49.3759 18.6488 49.5906 18.5363 49.7057 18.3916C49.5642 18.2804 49.332 18.2245 49.078 18.2569C48.8235 18.2896 48.6088 18.4025 48.4934 18.5468Z" fill="white"/>
<path d="M49.8416 18.5853C49.5916 18.6476 49.3892 18.7859 49.2883 18.9428C49.4395 19.0363 49.6757 19.0647 49.9257 19.0019C50.1648 18.9419 50.3607 18.8125 50.4655 18.6635C50.4964 18.6915 50.5268 18.7199 50.5566 18.7494C50.2895 18.9084 50.0722 19.1182 49.8617 19.3944C49.9445 19.5252 49.9856 19.5907 50.0681 19.7213C50.2285 19.3581 50.3982 19.0618 50.6223 18.816C50.8569 19.0638 51.0515 19.3648 51.2109 19.726C51.2934 19.5954 51.3348 19.5297 51.4173 19.3991C51.2078 19.124 50.966 18.9091 50.6874 18.7474C50.7169 18.7179 50.7471 18.6888 50.7784 18.6606C50.8824 18.8109 51.0794 18.9415 51.3203 19.0021C51.5701 19.0649 51.8065 19.0368 51.9576 18.9431C51.857 18.7863 51.6544 18.6481 51.4046 18.5855C51.1917 18.5322 50.9886 18.5452 50.8395 18.6081L50.8401 18.6074C50.8383 18.6083 50.8368 18.609 50.835 18.6096C50.831 18.6112 50.8269 18.613 50.8231 18.6148C50.7531 18.6445 50.6865 18.6765 50.6228 18.7114C50.6228 18.7114 50.538 18.6611 50.3964 18.6043C50.2482 18.5448 50.05 18.5331 49.8416 18.5853Z" fill="white"/>
<path d="M49.7168 18.2806C49.9301 18.4387 50.1598 18.5062 50.3309 18.4787C50.2875 18.2922 50.1419 18.0826 49.929 17.9248C49.7157 17.7675 49.4855 17.6998 49.3145 17.7273C49.3583 17.9138 49.5034 18.1236 49.7168 18.2806Z" fill="white"/>
<path d="M53.8099 15.8804C53.9734 15.6612 54.0586 15.4139 54.0525 15.2213C53.8812 15.2499 53.6784 15.3881 53.5149 15.6073C53.351 15.8265 53.2662 16.0734 53.2723 16.2666C53.4438 16.238 53.6462 16.0993 53.8099 15.8804Z" fill="white"/>
<path d="M53.0832 17.0822C52.8615 17.2246 52.705 17.4236 52.6509 17.6068C52.8206 17.6462 53.0532 17.5943 53.275 17.4518C53.4969 17.3091 53.653 17.1099 53.7071 16.927C53.5376 16.8878 53.3048 16.9395 53.0832 17.0822Z" fill="white"/>
<path d="M53.5214 16.2645C53.2998 16.407 53.1432 16.606 53.0889 16.7894C53.2586 16.8288 53.4914 16.7769 53.713 16.6342C53.9344 16.4917 54.091 16.2927 54.1453 16.1095C53.9758 16.0702 53.7426 16.1221 53.5214 16.2645Z" fill="white"/>
<path d="M52.7781 17.7432C52.5265 17.7937 52.3185 17.9219 52.2114 18.0737C52.3592 18.1748 52.5938 18.2137 52.8459 18.1636C53.0979 18.1128 53.3057 17.9849 53.4126 17.8329C53.2645 17.732 53.0299 17.6926 52.7781 17.7432Z" fill="white"/>
<path d="M54.0431 14.1658C54.0836 14.3534 54.0449 14.6144 53.9239 14.8655C53.8032 15.1169 53.6301 15.2974 53.4671 15.3636C53.4264 15.1757 53.4648 14.9152 53.5858 14.664C53.7068 14.4127 53.8803 14.232 54.0431 14.1658Z" fill="white"/>
<path d="M52.9466 15.19C52.8263 14.9719 52.7786 14.7407 52.8062 14.5698C52.9549 14.6199 53.1195 14.7709 53.2398 14.9887C53.3603 15.2065 53.4077 15.4382 53.3804 15.6086C53.2311 15.559 53.0669 15.4076 52.9466 15.19Z" fill="white"/>
<path d="M53.1002 16.3014C53.0581 16.5825 52.9456 16.8155 52.8108 16.9367C52.7184 16.7735 52.6797 16.5125 52.7218 16.2309C52.764 15.9503 52.8761 15.717 53.0112 15.5958C53.1031 15.7591 53.142 16.0205 53.1002 16.3014Z" fill="white"/>
<path d="M53.5149 15.6073C53.6784 15.3881 53.8812 15.2499 54.0525 15.2213C54.0588 15.4139 53.9734 15.6612 53.8099 15.8804C53.6462 16.0995 53.4438 16.238 53.2723 16.2666C53.2662 16.0734 53.3512 15.8265 53.5149 15.6073Z" fill="white"/>
<path d="M53.5556 13.4962C53.6475 13.6601 53.684 13.9213 53.6401 14.2022C53.5965 14.4831 53.4831 14.7152 53.3469 14.8351C53.2555 14.6714 53.2183 14.4104 53.2624 14.1293C53.3058 13.8487 53.4194 13.6161 53.5556 13.4962Z" fill="white"/>
<path d="M53.069 12.6697C53.1916 12.8061 53.281 13.0508 53.296 13.3357C53.3112 13.6199 53.2477 13.8748 53.1401 14.0262C53.0169 13.8898 52.9277 13.6447 52.9131 13.3605C52.8979 13.0758 52.9612 12.8211 53.069 12.6697Z" fill="white"/>
<path d="M53.1597 14.5045C53.0045 14.513 52.8043 14.4311 52.6256 14.2704C52.4467 14.1098 52.3329 13.9087 52.3079 13.7379C52.4631 13.7296 52.6637 13.8115 52.8419 13.972C53.0204 14.133 53.1349 14.3336 53.1597 14.5045Z" fill="white"/>
<path d="M52.1002 12.6198C52.2688 12.6649 52.4594 12.8226 52.6052 13.057C52.7505 13.2911 52.8156 13.5456 52.7944 13.737C52.626 13.6916 52.435 13.5342 52.2896 13.2998C52.1438 13.0657 52.0787 12.8114 52.1002 12.6198Z" fill="white"/>
<path d="M52.2112 17.2515C52.3278 16.9979 52.4984 16.8136 52.6601 16.7443C52.7035 16.9312 52.6688 17.1931 52.5523 17.4463C52.4353 17.7001 52.2647 17.8841 52.1032 17.9532C52.0594 17.7667 52.0941 17.5051 52.2112 17.2515Z" fill="white"/>
<path d="M52.1826 18.257C52.4367 18.2898 52.6514 18.4026 52.767 18.5468C52.6252 18.6579 52.3931 18.7141 52.139 18.6816C51.885 18.6488 51.6698 18.5363 51.5544 18.3916C51.6958 18.2802 51.9284 18.2245 52.1826 18.257Z" fill="white"/>
<path d="M51.3315 17.9248C51.5449 17.7675 51.7743 17.6998 51.9459 17.7273C51.902 17.9138 51.7569 18.1236 51.5435 18.2806C51.3304 18.4387 51.1007 18.5062 50.9294 18.4787C50.9733 18.2922 51.1186 18.0826 51.3315 17.9248Z" fill="white"/>
<path d="M50.6232 18.7112C50.6869 18.6763 50.7533 18.6443 50.8233 18.6148C50.8271 18.613 50.8312 18.6114 50.8352 18.6096C50.8368 18.6087 50.8385 18.6081 50.8401 18.6074L50.8394 18.6081C50.9888 18.5452 51.1919 18.5323 51.4046 18.5855C51.6544 18.6481 51.857 18.7861 51.9576 18.9431C51.8064 19.0368 51.5701 19.065 51.3203 19.0021C51.0794 18.9417 50.8824 18.8111 50.7784 18.6606C50.7469 18.6888 50.7167 18.7179 50.6874 18.7474C50.9658 18.9091 51.2075 19.1238 51.4173 19.3989C51.3348 19.5297 51.2934 19.5952 51.2109 19.7258C51.0514 19.3646 50.8569 19.0638 50.6221 18.8161C50.3982 19.0618 50.2285 19.3582 50.0679 19.7213C49.9856 19.591 49.9445 19.5252 49.8617 19.3944C50.0722 19.1184 50.2893 18.9084 50.5565 18.7494C50.5268 18.7201 50.4964 18.6915 50.4655 18.6638C50.3606 18.8127 50.1647 18.9422 49.9257 19.0021C49.6756 19.065 49.4393 19.0368 49.2881 18.9431C49.3889 18.7863 49.5916 18.6481 49.8414 18.5855C50.0496 18.5334 50.2479 18.545 50.3964 18.6043C50.5382 18.6609 50.6232 18.7112 50.6232 18.7112Z" fill="white"/>
<path d="M49.929 17.9248C50.1419 18.0826 50.2873 18.292 50.3309 18.4787C50.1598 18.506 49.9299 18.4387 49.7168 18.2806C49.5034 18.1236 49.3583 17.9138 49.3145 17.7273C49.4855 17.6998 49.7157 17.7675 49.929 17.9248Z" fill="white"/>
<path d="M49.7057 18.3916C49.5906 18.536 49.3759 18.6488 49.1216 18.6816C48.8673 18.7141 48.6352 18.6577 48.4934 18.5468C48.6088 18.4025 48.8235 18.2898 49.078 18.2572C49.332 18.2245 49.5642 18.2804 49.7057 18.3916Z" fill="white"/>
<path d="M47.8798 15.6086C47.8525 15.4382 47.9001 15.2065 48.0207 14.9889C48.1414 14.7709 48.3056 14.6199 48.4545 14.5698C48.4816 14.7407 48.4339 14.9719 48.3141 15.19C48.1935 15.4076 48.0294 15.559 47.8798 15.6086Z" fill="white"/>
<path d="M47.9883 16.2666C47.8168 16.238 47.6142 16.0995 47.4509 15.8804C47.2872 15.6612 47.202 15.4139 47.2081 15.2213C47.3796 15.2499 47.5822 15.3881 47.7455 15.6073C47.9092 15.8265 47.9944 16.0734 47.9883 16.2666Z" fill="white"/>
<path d="M48.2496 15.5961C48.3851 15.7173 48.4967 15.9505 48.5388 16.2312C48.5806 16.5125 48.5424 16.7735 48.4495 16.9368C48.3147 16.8156 48.2024 16.5825 48.1604 16.3014C48.1186 16.0205 48.157 15.7591 48.2496 15.5961Z" fill="white"/>
<path d="M48.6099 17.6068C48.4397 17.6462 48.2072 17.5943 47.9858 17.4521C47.7641 17.3094 47.6074 17.1101 47.5535 16.9272C47.723 16.8878 47.956 16.9395 48.1774 17.0824C48.3993 17.2248 48.5554 17.4239 48.6099 17.6068Z" fill="white"/>
<path d="M48.4819 17.7432C48.734 17.7937 48.9424 17.9219 49.0491 18.0737C48.9012 18.1748 48.6664 18.2137 48.4146 18.1636C48.163 18.1128 47.955 17.9849 47.8481 17.8329C47.996 17.732 48.2308 17.6926 48.4819 17.7432Z" fill="white"/>
<path d="M49.1571 17.9532C48.9956 17.8841 48.8252 17.7001 48.708 17.4463C48.5913 17.1931 48.5562 16.9312 48.6 16.7443C48.7619 16.8136 48.9325 16.9976 49.0495 17.2515C49.166 17.5051 49.2009 17.7667 49.1571 17.9532Z" fill="white"/>
<path d="M48.6557 13.057C48.8015 12.8228 48.992 12.6649 49.1604 12.6198C49.1819 12.8114 49.1163 13.0655 48.971 13.3C48.8254 13.5344 48.6344 13.6921 48.4662 13.7373C48.4445 13.5458 48.5096 13.2913 48.6557 13.057Z" fill="white"/>
<path d="M48.4186 13.972C48.5973 13.8115 48.7979 13.7296 48.9531 13.7379C48.9278 13.909 48.8138 14.1098 48.6353 14.2706C48.4564 14.4314 48.2563 14.513 48.1008 14.5047C48.1261 14.3334 48.2399 14.1328 48.4186 13.972Z" fill="white"/>
<path d="M47.9648 13.3357C47.9798 13.0505 48.0688 12.8061 48.192 12.6697C48.2996 12.8211 48.3627 13.0758 48.3477 13.3607C48.3327 13.6449 48.2435 13.8901 48.1205 14.0265C48.0129 13.8751 47.9499 13.6199 47.9648 13.3357Z" fill="white"/>
<path d="M47.7051 13.4962C47.8406 13.6161 47.9546 13.8487 47.9982 14.1293C48.0416 14.4102 48.0052 14.6714 47.9133 14.8351C47.7777 14.7152 47.6639 14.4833 47.6201 14.2022C47.5765 13.9213 47.6134 13.6601 47.7051 13.4962Z" fill="white"/>
<path d="M47.2176 14.1658C47.3802 14.2322 47.5537 14.4127 47.6745 14.664C47.7954 14.9152 47.8341 15.1759 47.7934 15.3636C47.6308 15.2974 47.4571 15.1169 47.3365 14.8655C47.2158 14.6144 47.1766 14.3534 47.2176 14.1658Z" fill="white"/>
<path d="M52.8459 18.1637C52.5938 18.214 52.359 18.1748 52.2114 18.0738C52.3185 17.9219 52.5265 17.7938 52.7781 17.7432C53.0299 17.6927 53.2645 17.7318 53.4126 17.8329C53.3057 17.985 53.0979 18.1129 52.8459 18.1637Z" fill="white"/>
<path d="M53.275 17.4521C53.0534 17.5943 52.8206 17.6462 52.6509 17.6068C52.705 17.4237 52.8613 17.2249 53.0832 17.0822C53.3048 16.9395 53.5376 16.8878 53.7071 16.9272C53.6532 17.1101 53.4971 17.3092 53.275 17.4521Z" fill="white"/>
<path d="M53.713 16.6342C53.4914 16.7769 53.2586 16.8285 53.0889 16.7894C53.1432 16.606 53.2998 16.4072 53.5214 16.2648C53.7428 16.1223 53.9758 16.0704 54.1453 16.1095C54.091 16.2927 53.9344 16.4915 53.713 16.6342Z" fill="white"/>
<path d="M47.7394 16.2645C47.961 16.407 48.1176 16.606 48.1717 16.7894C48.0022 16.8288 47.7694 16.7769 47.5478 16.6342C47.3261 16.4917 47.1696 16.2927 47.1155 16.1095C47.285 16.0702 47.518 16.1221 47.7394 16.2645Z" fill="white"/>
</g>
<defs>
<clipPath id="clip0_27_48">
<rect x="0.48999" y="0.890015" width="82.81" height="60" rx="2" fill="white"/>
</clipPath>
</defs>
</svg>
