<svg width="631" height="283" viewBox="0 0 631 283" fill="none" xmlns="http://www.w3.org/2000/svg">
<g clip-path="url(#clip0_9_2026)">
<path d="M528.505 238.173L563.809 299.607L599.094 238.173H528.505Z" fill="#122431" stroke="#112330" stroke-width="0.865046" stroke-miterlimit="2" stroke-linejoin="round"/>
<path d="M457.914 238.173L493.218 299.607L528.505 238.173H457.914Z" fill="#152834" stroke="#112330" stroke-width="0.865046" stroke-miterlimit="2" stroke-linejoin="round"/>
<path d="M387.323 238.173L422.628 299.607L457.914 238.173H387.323Z" fill="#152834" stroke="#112330" stroke-width="0.865046" stroke-miterlimit="2" stroke-linejoin="round"/>
<path d="M246.14 238.173L281.446 299.607L316.731 238.173H246.14Z" fill="#152834" stroke="#112330" stroke-width="0.865046" stroke-miterlimit="2" stroke-linejoin="round"/>
<path d="M140.254 299.607H210.845L175.542 238.173L140.254 299.607Z" fill="#122531" stroke="#112330" stroke-width="0.865046" stroke-miterlimit="2" stroke-linejoin="round"/>
<path d="M210.846 299.607H281.437L246.133 238.173L210.846 299.607Z" fill="#122531" stroke="#122431" stroke-width="0.865046" stroke-miterlimit="2" stroke-linejoin="round"/>
<path d="M281.437 299.607H352.028L316.724 238.173L281.437 299.607Z" fill="#122431" stroke="#122431" stroke-width="0.865046" stroke-miterlimit="2" stroke-linejoin="round"/>
<path d="M352.027 299.607H422.618L387.315 238.173L352.027 299.607Z" fill="#192C38" stroke="#192C38" stroke-width="0.865046" stroke-miterlimit="2" stroke-linejoin="round"/>
<path d="M246.141 238.173L281.428 176.738L316.732 238.173H246.141Z" fill="#122531" stroke="#122431" stroke-width="0.865046" stroke-miterlimit="2" stroke-linejoin="round"/>
<path d="M316.732 238.173L352.019 176.738L387.323 238.173H316.732Z" fill="#122431" stroke="#112330" stroke-width="0.865046" stroke-miterlimit="2" stroke-linejoin="round"/>
<path d="M387.323 238.173L422.61 176.738L457.914 238.173H387.323Z" fill="#192C38" stroke="#192C38" stroke-width="0.865046" stroke-miterlimit="2" stroke-linejoin="round"/>
<path d="M457.914 238.173L493.201 176.738L528.505 238.173H457.914Z" fill="#0F212E" stroke="#112330" stroke-width="0.865046" stroke-miterlimit="2" stroke-linejoin="round"/>
<path d="M281.437 176.738L316.724 115.303L352.028 176.738H281.437Z" fill="#162836" stroke="#152834" stroke-width="0.865046" stroke-miterlimit="2" stroke-linejoin="round"/>
<path d="M352.027 176.738L387.315 115.303L422.618 176.738H352.027Z" fill="#122531" stroke="#112330" stroke-width="0.865046" stroke-miterlimit="2" stroke-linejoin="round"/>
<path d="M422.618 176.738L457.906 115.303L493.209 176.738H422.618Z" fill="#122431" stroke="#112330" stroke-width="0.865046" stroke-miterlimit="2" stroke-linejoin="round"/>
<path d="M493.209 176.738L528.497 115.303L563.8 176.738H493.209Z" fill="#122431" stroke="#112330" stroke-width="0.865046" stroke-miterlimit="2" stroke-linejoin="round"/>
<path d="M246.141 115.303L281.428 53.8689L316.732 115.303H246.141Z" fill="#122531" stroke="#112330" stroke-width="0.865046" stroke-miterlimit="2" stroke-linejoin="round"/>
<path d="M387.323 115.303L422.61 53.8689L457.914 115.303H387.323Z" fill="#152834" stroke="#152834" stroke-width="0.865046" stroke-miterlimit="2" stroke-linejoin="round"/>
<path d="M457.914 115.303L493.201 53.8689L528.505 115.303H457.914Z" fill="#122431" stroke="#112330" stroke-width="0.865046" stroke-miterlimit="2" stroke-linejoin="round"/>
<path d="M422.618 53.8687L457.906 -7.56589L493.209 53.8687H422.618Z" fill="#172835" stroke="#112330" stroke-width="0.865046" stroke-miterlimit="2" stroke-linejoin="round"/>
<path d="M493.209 53.8687L528.497 -7.56589L563.8 53.8687H493.209Z" fill="#172A36" stroke="#112330" stroke-width="0.865046" stroke-miterlimit="2" stroke-linejoin="round"/>
<path d="M563.8 176.738L528.513 238.173L493.209 176.738H563.8Z" fill="#152834" stroke="#112330" stroke-width="0.865046" stroke-miterlimit="2" stroke-linejoin="round"/>
<path d="M493.209 176.738L457.922 238.173L422.618 176.738H493.209Z" fill="#10222F" stroke="#112330" stroke-width="0.865046" stroke-miterlimit="2" stroke-linejoin="round"/>
<path d="M422.618 176.738L387.331 238.173L352.027 176.738H422.618Z" fill="#152834" stroke="#152834" stroke-width="0.865046" stroke-miterlimit="2" stroke-linejoin="round"/>
<path d="M352.028 176.738L316.74 238.173L281.437 176.738H352.028Z" fill="#152834" stroke="#152834" stroke-width="0.865046" stroke-miterlimit="2" stroke-linejoin="round"/>
<path d="M528.505 115.303L563.809 176.74L599.094 115.303H528.505Z" fill="#172A36" stroke="#112330" stroke-width="0.865046" stroke-miterlimit="2" stroke-linejoin="round"/>
<path d="M528.505 115.303L493.218 176.738L457.914 115.303H528.505Z" fill="#152834" stroke="#112330" stroke-width="0.865046" stroke-miterlimit="2" stroke-linejoin="round"/>
<path d="M457.914 115.303L422.627 176.738L387.323 115.303H457.914Z" fill="#152835" stroke="#152835" stroke-width="0.865046" stroke-miterlimit="2" stroke-linejoin="round"/>
<path d="M387.323 115.303L352.036 176.738L316.732 115.303H387.323Z" fill="#152834" stroke="#152834" stroke-width="0.865046" stroke-miterlimit="2" stroke-linejoin="round"/>
<path d="M493.209 53.8689L457.922 115.303L422.618 53.8689H493.209Z" fill="#142532" stroke="#142532" stroke-width="0.865046" stroke-miterlimit="2" stroke-linejoin="round"/>
</g>
<defs>
<clipPath id="clip0_9_2026">
<rect width="600" height="368.607" fill="white" transform="translate(0.799805 -69)"/>
</clipPath>
</defs>
</svg>
