<svg width="185" height="52" viewBox="0 0 185 52" fill="none" xmlns="http://www.w3.org/2000/svg">
<path d="M71.6747 0.0482788H71.4719V51.2118H71.6747V0.0482788Z" fill="white"/>
<g clip-path="url(#clip0_9_3589)">
<path d="M3.52164 19.7603C3.50791 16.1499 5.83118 14.1462 10.0965 14.1307C13.1667 14.1204 13.7145 16.1173 13.7145 16.8424C13.7145 18.2326 11.7364 19.7071 11.7364 19.7071C11.7364 19.7071 11.8463 20.5731 13.5445 20.5663C15.2427 20.5594 16.8963 19.4441 16.886 16.6551C16.8792 13.4537 13.5033 11.9879 10.1669 11.9999C7.37487 12.0102 -0.0259339 12.4003 -0.00017708 19.7088C0.0238627 26.201 12.3425 26.7732 12.3528 30.9301C12.37 35.4445 7.27871 36.6594 5.55644 36.6594C3.83416 36.6594 3.13357 35.4462 3.13014 34.7811C3.11812 31.1243 6.77559 30.107 6.77559 30.107C6.77559 29.8338 6.56095 28.6188 5.14433 28.624C1.49544 28.6309 0.0410339 31.7515 0.0513366 34.8C0.0616394 37.3914 1.9024 39.0102 4.68414 38.9999C10.0021 38.981 16 36.3999 15.9777 30.6672C15.9588 25.3057 3.53538 23.9069 3.51993 19.7603H3.52164Z" fill="white"/>
<path d="M54.2232 34.1248C54.1803 34.0217 54.0618 34.0475 53.9038 34.1763C53.3011 34.6712 51.9205 36.0735 48.6923 36.0855C42.806 36.1079 41.7843 26.4571 41.7843 26.4571C41.7843 26.4571 46.2712 23.1251 46.9718 21.7813C47.6724 20.4375 45.4418 20.1436 45.4418 20.1436C45.4418 20.1436 42.3046 23.9414 40.0792 25.0549C40.3214 23.4035 41.9664 19.6384 42.0608 17.4732C42.1552 15.308 39.4405 15.8355 39.006 16.0434C39.006 16.9886 36.6072 25.5704 35.7332 30.2892C35.2181 31.1072 34.4831 32.0438 33.8255 32.0455C33.4443 32.0455 33.3035 31.3426 33.3 30.3356C33.3 28.9386 34.0727 26.6994 34.0676 25.3402C34.0676 24.3985 33.6332 24.3435 33.2588 24.3435C33.1781 24.3435 32.7282 24.3555 32.6458 24.3555C31.6859 24.3555 32.0019 23.5375 31.1365 23.5444C28.4921 23.5547 25.1231 26.4262 24.9771 30.7601C24.0842 31.3478 22.8342 32.0884 22.1971 32.0919C21.5274 32.0919 21.3626 31.4767 21.3609 30.944C21.3609 30.0091 22.8805 24.4569 22.8805 24.4569C22.8805 24.4569 24.8157 23.9637 25.6606 23.8004C26.2993 23.6767 26.4831 23.6303 26.732 23.3227C26.981 23.0151 27.4652 22.381 27.8585 21.8105C28.2517 21.24 27.8653 20.8001 27.139 20.8018C26.1877 20.8018 23.6412 21.4015 23.6412 21.4015C23.6412 21.4015 24.8638 16.1551 24.8638 16.0486C24.8638 15.9421 24.7264 15.8871 24.5204 15.8871C24.0568 15.8871 23.2291 16.1345 22.7002 16.3235C21.8897 16.6122 21.2304 17.5986 21.0964 18.0592C20.9642 18.5197 20.0473 22.1198 20.0473 22.1198C20.0473 22.1198 15.1414 23.8039 14.4701 24.0565C14.4288 24.0702 14.4014 24.108 14.4014 24.1527C14.4014 24.1974 14.9629 26.3351 16.1133 26.3265C16.9358 26.3265 19.3536 25.3419 19.3536 25.3419C19.3536 25.3419 18.1104 30.2532 18.1189 31.8908C18.1189 32.9408 18.6169 34.1712 20.6792 34.1643C22.5989 34.1643 24.28 33.1779 25.221 32.4923C25.7361 33.7862 26.9501 34.142 27.7795 34.1385C29.6391 34.1385 31.0712 32.6624 31.2549 32.4648C31.4971 33.0319 32.0654 34.1231 33.3653 34.1179C34.1002 34.1179 34.8609 33.2999 35.4224 32.506C35.4121 32.671 35.4138 32.836 35.4293 33.0009C35.6542 35.0355 38.6918 33.8395 38.8584 33.556C38.9614 32.0833 38.8961 29.0743 39.4886 27.2167C40.2733 33.5543 43.2491 37.8177 48.5996 37.7988C51.5908 37.7885 53.126 36.9327 53.7613 36.2264C54.2799 35.6559 54.4567 34.8534 54.2232 34.1196V34.1248ZM28.5539 32.0352C25.9851 32.0455 29.3403 25.4209 31.5314 25.414C31.5348 26.2681 31.4868 32.0266 28.5539 32.0352Z" fill="white"/>
<path d="M49.4085 34.0647C51.7284 34.0561 53.5228 32.5387 53.8525 32.0438C54.2783 31.4011 53.3579 30.4319 53.066 30.4474C52.3328 31.1451 51.5687 31.9871 49.8498 31.9922C47.8271 32.0008 48.2855 29.7858 48.2855 29.7858C48.2855 29.7858 52.18 30.2858 53.7443 27.502C54.2457 26.6118 54.2663 25.3797 54.0637 24.8487C53.8628 24.3177 52.7294 23.3365 50.9265 23.4843C48.7131 23.6699 45.9228 25.9657 45.3098 28.7221C44.8169 30.9406 45.7493 34.075 49.4085 34.0612V34.0647ZM51.8778 24.7748C52.2418 24.7628 52.2092 25.3608 52.113 25.9846C51.9756 26.8318 50.8063 28.9867 48.574 28.9008C48.7286 27.6463 50.389 24.8229 51.8829 24.7748H51.8795H51.8778Z" fill="white"/>
</g>
<path d="M89.3782 20.3068H100.653C103.411 20.3068 104.709 20.611 105.601 21.5236C106.331 22.2333 106.615 23.0445 106.757 24.7073C106.798 25.3157 106.838 26.208 106.838 26.8366C106.838 28.0128 106.757 29.3715 106.635 30.1015C106.412 31.663 105.317 32.8797 103.898 33.1636C103.148 33.3258 102.559 33.3664 101.18 33.3664H89.3782V20.3068ZM100.004 30.2435C101.079 30.2435 101.16 30.2435 101.627 30.0812C102.58 29.7973 102.843 29.1078 102.843 26.8569C102.843 24.1192 102.377 23.5514 100.085 23.5514H93.3528V30.2435H100.004Z" fill="white"/>
<path d="M109.981 20.3068H121.236C123.548 20.3068 124.562 20.5096 125.312 21.1383C126.083 21.7466 126.428 22.862 126.428 24.6262C126.428 27.0597 125.839 28.0128 124.177 28.3778C125.799 28.6617 126.286 29.3309 126.245 31.3182V33.3664H122.21V31.7441C122.189 30.3246 121.804 30.0407 120.019 30.0812H113.936V33.3664H109.981V20.3068ZM120.141 26.8772C122.068 26.8772 122.433 26.6338 122.433 25.3563C122.433 24.5045 122.352 24.1598 122.108 23.8962C121.824 23.592 121.48 23.5312 120.283 23.5312H113.936V26.8974H120.141V26.8772Z" fill="white"/>
<path d="M135.918 20.3068H141.251L148.39 33.3664H144.05L142.752 31.0343H134.336L133.079 33.3664H128.577L135.918 20.3068ZM141.373 28.2967L138.554 23.085L135.776 28.2967H141.373Z" fill="white"/>
<path d="M150.215 20.3068H154.189V25.1737H156.258L161.652 20.3068H167.107L159.604 26.7758L167.817 33.3664H162.037L156.136 28.3575H154.149V33.3664H150.174V20.3068H150.215Z" fill="white"/>
<path d="M184.648 20.3068V23.2675H174.103V25.5185H184.04V28.0939H174.103V30.4057H184.79V33.3664H170.189V20.3068H184.648Z" fill="white"/>
<defs>
<clipPath id="clip0_9_3589">
<rect width="54" height="27" fill="white" transform="translate(0 12)"/>
</clipPath>
</defs>
</svg>
