<svg width="84" height="27" viewBox="0 0 84 27" fill="none" xmlns="http://www.w3.org/2000/svg">
<g clip-path="url(#clip0_9_4526)">
<path d="M3.52164 7.76034C3.50791 4.14992 5.83118 2.14623 10.0965 2.13076C13.1667 2.12045 13.7145 4.11727 13.7145 4.84245C13.7145 6.23266 11.7364 7.70707 11.7364 7.70707C11.7364 7.70707 11.8463 8.57316 13.5445 8.56629C15.2427 8.55941 16.8963 7.44415 16.886 4.65514C16.8792 1.4537 13.5033 -0.0121235 10.1669 -9.44311e-05C7.37487 0.0102162 -0.0259339 0.400301 -0.00017708 7.70879C0.0238627 14.201 12.3425 14.7733 12.3528 18.9302C12.37 23.4445 7.27871 24.6594 5.55644 24.6594C3.83416 24.6594 3.13357 23.4462 3.13014 22.7812C3.11812 19.1243 6.77559 18.107 6.77559 18.107C6.77559 17.8338 6.56095 16.6189 5.14433 16.624C1.49544 16.6309 0.0410339 19.7516 0.0513366 22.8001C0.0616394 25.3915 1.9024 27.0102 4.68414 26.9999C10.0021 26.981 16 24.3999 15.9777 18.6672C15.9588 13.3057 3.53538 11.9069 3.51993 7.76034H3.52164Z" fill="white"/>
<path d="M54.2232 22.1248C54.1803 22.0217 54.0618 22.0475 53.9038 22.1764C53.3011 22.6713 51.9205 24.0735 48.6923 24.0855C42.806 24.1079 41.7843 14.4572 41.7843 14.4572C41.7843 14.4572 46.2712 11.1251 46.9718 9.78131C47.6724 8.4375 45.4418 8.14365 45.4418 8.14365C45.4418 8.14365 42.3046 11.9414 40.0792 13.0549C40.3214 11.4035 41.9664 7.63843 42.0608 5.47321C42.1552 3.30798 39.4405 3.83554 39.006 4.04347C39.006 4.98861 36.6072 13.5705 35.7332 18.2893C35.2181 19.1072 34.4831 20.0438 33.8255 20.0455C33.4443 20.0455 33.3035 19.3427 33.3 18.3357C33.3 16.9386 34.0727 14.6995 34.0676 13.3402C34.0676 12.3985 33.6332 12.3435 33.2588 12.3435C33.1781 12.3435 32.7282 12.3555 32.6458 12.3555C31.6859 12.3555 32.0019 11.5376 31.1365 11.5444C28.4921 11.5547 25.1231 14.4262 24.9771 18.7601C24.0842 19.3478 22.8342 20.0885 22.1971 20.0919C21.5274 20.0919 21.3626 19.4767 21.3609 18.944C21.3609 18.0092 22.8805 12.4569 22.8805 12.4569C22.8805 12.4569 24.8157 11.9637 25.6606 11.8005C26.2993 11.6767 26.4831 11.6303 26.732 11.3227C26.981 11.0151 27.4652 10.381 27.8585 9.81053C28.2517 9.24001 27.8653 8.80009 27.139 8.80181C26.1877 8.80181 23.6412 9.40154 23.6412 9.40154C23.6412 9.40154 24.8638 4.15517 24.8638 4.04863C24.8638 3.94208 24.7264 3.88709 24.5204 3.88709C24.0568 3.88709 23.2291 4.13455 22.7002 4.32357C21.8897 4.61227 21.2304 5.59865 21.0964 6.05919C20.9642 6.51973 20.0473 10.1198 20.0473 10.1198C20.0473 10.1198 15.1414 11.8039 14.4701 12.0565C14.4288 12.0703 14.4014 12.1081 14.4014 12.1528C14.4014 12.1974 14.9629 14.3352 16.1133 14.3266C16.9358 14.3266 19.3536 13.3419 19.3536 13.3419C19.3536 13.3419 18.1104 18.2532 18.1189 19.8908C18.1189 20.9408 18.6169 22.1712 20.6792 22.1643C22.5989 22.1643 24.28 21.178 25.221 20.4923C25.7361 21.7863 26.9501 22.142 27.7795 22.1386C29.6391 22.1386 31.0712 20.6624 31.2549 20.4648C31.4971 21.0319 32.0654 22.1231 33.3653 22.1179C34.1002 22.1179 34.8609 21.3 35.4224 20.506C35.4121 20.671 35.4138 20.836 35.4293 21.001C35.6542 23.0356 38.6918 21.8396 38.8584 21.556C38.9614 20.0833 38.8961 17.0743 39.4886 15.2167C40.2733 21.5543 43.2491 25.8177 48.5996 25.7988C51.5908 25.7885 53.126 24.9327 53.7613 24.2265C54.2799 23.6559 54.4567 22.8534 54.2232 22.1197V22.1248ZM28.5539 20.0352C25.9851 20.0455 29.3403 13.421 31.5314 13.4141C31.5348 14.2681 31.4868 20.0266 28.5539 20.0352Z" fill="white"/>
<path d="M49.4085 22.0647C51.7284 22.0561 53.5228 20.5387 53.8525 20.0438C54.2783 19.4011 53.3579 18.4319 53.066 18.4474C52.3328 19.1451 51.5687 19.9871 49.8498 19.9922C47.8271 20.0008 48.2855 17.7858 48.2855 17.7858C48.2855 17.7858 52.18 18.2858 53.7443 15.502C54.2457 14.6118 54.2663 13.3797 54.0637 12.8487C53.8628 12.3177 52.7294 11.3365 50.9265 11.4843C48.7131 11.6699 45.9228 13.9657 45.3098 16.7221C44.8169 18.9406 45.7493 22.075 49.4085 22.0612V22.0647ZM51.8778 12.7748C52.2418 12.7628 52.2092 13.3608 52.113 13.9846C51.9756 14.8318 50.8063 16.9867 48.574 16.9008C48.7286 15.6463 50.389 12.8229 51.8829 12.7748H51.8795H51.8778Z" fill="white"/>
<path d="M56.258 19.3014C56.7079 17.0881 58.2619 14.8404 60.3705 13.665C59.2647 12.627 58.3667 11.0375 59.0913 7.92541C59.7472 4.91643 61.7511 2.53125 65.206 2.53125C69.7666 2.53125 71.1833 5.08999 70.7694 7.92541C70.1478 10.8983 67.8675 12.5927 66.0697 13.8042C69.5589 16.3629 68.8342 20.7535 66.2414 23.3122C64.8934 24.6612 63.0973 25.352 61.1965 25.352C57.8446 25.352 55.53 22.6558 56.2563 19.3014H56.258ZM61.1638 23.6577C63.1334 23.6577 64.3422 21.3412 64.7217 19.7499C65.2403 17.3648 64.1345 16.0845 62.7178 15.117C60.6453 16.3268 59.1943 19.7499 59.6768 22.2056C59.9189 23.2074 60.5062 23.6577 61.1621 23.6577H61.1638ZM63.6863 12.0737C66.001 11.0358 67.7988 8.71932 67.2802 6.12621C67.0381 5.01954 66.3822 4.50057 65.6558 4.50057C64.8608 4.50057 64.1362 5.05391 63.6863 5.67598C62.304 7.5422 61.8559 10.3089 63.6863 12.072V12.0737Z" fill="white"/>
<path d="M69.4199 19.3014C69.8698 17.0881 71.4238 14.8404 73.5324 13.665C72.4266 12.627 71.5285 11.0375 72.2531 7.92541C72.9091 4.91643 74.913 2.53125 78.3678 2.53125C82.9285 2.53125 84.3451 5.08999 83.9313 7.92541C83.3097 10.8983 81.0294 12.5927 79.2315 13.8042C82.7207 16.3629 81.9961 20.7535 79.4033 23.3122C78.0553 24.6612 76.2592 25.352 74.3583 25.352C71.0065 25.352 68.6918 22.6558 69.4182 19.3014H69.4199ZM74.3257 23.6577C76.2953 23.6577 77.5041 21.3412 77.8836 19.7499C78.4022 17.3648 77.2963 16.0845 75.8797 15.117C73.8071 16.3268 72.3562 19.7499 72.8387 22.2056C73.0808 23.2074 73.6681 23.6577 74.324 23.6577H74.3257ZM76.8482 12.0737C79.1629 11.0358 80.9607 8.71932 80.4421 6.12621C80.2 5.01954 79.5441 4.50057 78.8177 4.50057C78.0227 4.50057 77.2981 5.05391 76.8482 5.67598C75.4659 7.5422 75.0177 10.3089 76.8482 12.072V12.0737Z" fill="white"/>
</g>
<defs>
<clipPath id="clip0_9_4526">
<rect width="84" height="27" fill="white"/>
</clipPath>
</defs>
</svg>
