<svg width="152" height="61" viewBox="0 0 152 61" fill="none" xmlns="http://www.w3.org/2000/svg">
<path d="M91.0877 21.8224H66.2822L68.3421 14.3971H93.1476L91.0877 21.8224Z" fill="#CF202E"/>
<path d="M74.2799 34.3627L87.6097 34.3649L89.6695 26.9396H64.864L58.9819 48.1465H70.4576L74.2799 34.3627Z" fill="#CF202E"/>
<path fill-rule="evenodd" clip-rule="evenodd" d="M102.411 40.4707C102.275 40.4017 102.155 40.3053 102.058 40.1875C101.961 40.0697 101.889 39.9331 101.847 39.7863C101.827 39.7007 101.819 39.6126 101.823 39.5247C101.828 39.4415 101.841 39.359 101.863 39.2786L106.356 23.0749C106.398 22.8741 106.48 22.684 106.597 22.5163C106.715 22.3485 106.866 22.2068 107.041 22.0997C107.369 21.9164 107.935 21.8224 108.734 21.8224H121.124L123.182 14.3971H105.811C102.646 14.3971 100.443 14.7728 99.1547 15.4863C97.8664 16.1997 96.9785 17.4634 96.4708 19.322L90.0542 42.4277C89.9598 42.7572 89.9028 43.0963 89.8842 43.4386C89.8672 43.7845 89.9004 44.131 89.9826 44.4674C90.2801 45.5857 91.0136 46.4803 92.199 47.1513C93.3844 47.8222 94.8314 48.1398 96.5715 48.1398H114.755L116.814 40.7145H103.525C103.139 40.7292 102.756 40.6453 102.411 40.4707Z" fill="#CF202E"/>
<path fill-rule="evenodd" clip-rule="evenodd" d="M33.8613 14.3971L26.0871 42.4277C25.9934 42.7573 25.9372 43.0964 25.9194 43.4386C25.9024 43.7845 25.9355 44.131 26.0178 44.4674C26.3152 45.5857 27.0466 46.4803 28.2342 47.1513C29.4218 47.8222 30.8643 48.1398 32.6066 48.1398H45.5405C48.7052 48.1398 50.9082 47.7641 52.1965 47.0529C53.4847 46.3416 54.3727 45.0735 54.8803 43.215L62.8827 14.3971H51.407L44.4536 39.4687C44.4114 39.6685 44.329 39.8577 44.2113 40.0245C44.0937 40.1914 43.9432 40.3326 43.7692 40.4394C43.4427 40.6206 42.8746 40.7167 42.0761 40.7167H40.099C39.711 40.7305 39.3259 40.6443 38.9808 40.4662C38.8446 40.3973 38.7243 40.3008 38.6273 40.1831C38.5303 40.0653 38.4587 39.9287 38.4172 39.7819C38.3966 39.6955 38.3883 39.6066 38.3926 39.5179C38.3965 39.4354 38.41 39.3536 38.4328 39.2742L45.3348 14.3971H33.8613Z" fill="#CF202E"/>
<path d="M124.687 14.397C124.864 14.397 125.037 14.4495 125.185 14.5478C125.332 14.6461 125.446 14.7858 125.514 14.9493C125.582 15.1127 125.599 15.2926 125.565 15.4662C125.53 15.6397 125.445 15.7991 125.32 15.9242C125.195 16.0493 125.036 16.1345 124.862 16.169C124.688 16.2036 124.509 16.1858 124.345 16.1181C124.182 16.0504 124.042 15.9358 123.944 15.7886C123.845 15.6415 123.793 15.4686 123.793 15.2916C123.787 15.1727 123.807 15.054 123.85 14.943C123.893 14.832 123.959 14.7312 124.043 14.647C124.127 14.5628 124.228 14.4971 124.339 14.4541C124.45 14.411 124.569 14.3916 124.687 14.397ZM124.687 15.9872C124.779 15.9906 124.869 15.9747 124.954 15.9406C125.039 15.9065 125.115 15.855 125.178 15.7893C125.242 15.7237 125.29 15.6454 125.322 15.5597C125.353 15.4739 125.365 15.3826 125.358 15.2916C125.358 15.1101 125.286 14.936 125.158 14.8077C125.03 14.6793 124.856 14.6072 124.674 14.6072C124.493 14.6072 124.318 14.6793 124.19 14.8077C124.062 14.936 123.99 15.1101 123.99 15.2916C123.983 15.3849 123.996 15.4785 124.029 15.566C124.062 15.6536 124.113 15.7331 124.179 15.7991C124.246 15.8651 124.325 15.9161 124.413 15.9485C124.501 15.981 124.594 15.9942 124.687 15.9872ZM124.717 15.4102H124.549V15.6808H124.412V14.8622H124.732C124.916 14.8622 124.989 14.9405 124.989 15.0859V15.1977C124.992 15.2381 124.982 15.2783 124.961 15.3128C124.94 15.3473 124.908 15.3743 124.871 15.39L125.095 15.6875H124.927L124.717 15.4102ZM124.717 14.9897H124.538V15.2804H124.717C124.806 15.2804 124.835 15.2469 124.835 15.1865V15.0881C124.846 15.0098 124.811 14.9897 124.728 14.9897H124.717Z" fill="#CF202E"/>
</svg>
