<svg width="84" height="61" viewBox="0 0 84 61" fill="none" xmlns="http://www.w3.org/2000/svg">
<g clip-path="url(#clip0_37_157)">
<path fill-rule="evenodd" clip-rule="evenodd" d="M41.6841 53.6008L62.0687 33.2706L55.3603 17.9216H59.1507V7.89001H24.2165V17.9216H28.0082L21.2998 33.2706L41.6841 53.6008Z" fill="#ED2127"/>
<path fill-rule="evenodd" clip-rule="evenodd" d="M26.1279 16.0153H57.2407V9.79626H26.1279V16.0153Z" fill="#FBEE23"/>
<path fill-rule="evenodd" clip-rule="evenodd" d="M41.6847 17.9216H30.0941C28.3176 21.9862 24.2606 31.2679 23.5723 32.8419C25.1341 34.4008 39.4425 48.6708 41.6847 50.9069V17.9216Z" fill="black"/>
<path fill-rule="evenodd" clip-rule="evenodd" d="M53.2741 17.9216H41.6836V50.9069C43.926 48.6705 58.2328 34.4008 59.796 32.8419C59.1077 31.2677 55.0505 21.9862 53.2741 17.9216Z" fill="#FBEE23"/>
<path fill-rule="evenodd" clip-rule="evenodd" d="M30.5606 12.0966L31.2389 15.2273H32.1234L33.1698 10.802H32.3618L31.6884 14.2044L31.014 10.802H30.1639L29.4796 14.2044L28.7939 10.802H27.9736L29.02 15.2273H29.9392L30.5606 12.0966Z" fill="black"/>
<path fill-rule="evenodd" clip-rule="evenodd" d="M36.1606 15.2277H37.01L35.5845 11.3619H34.7419L33.3164 15.2277H34.1658L34.4578 14.3273H35.8694L36.1606 15.2277ZM34.6761 13.6558L35.1639 12.1523L35.6514 13.6558H34.6761Z" fill="black"/>
<path fill-rule="evenodd" clip-rule="evenodd" d="M37.0244 11.3628V12.0348H38.0856V15.2272H38.8985V12.0348H39.9388L40.0994 11.3628H37.0244Z" fill="black"/>
<path fill-rule="evenodd" clip-rule="evenodd" d="M40.7886 11.3628V15.2272H41.5744V13.552H42.7492V12.8811H41.5744V12.0348H42.9384L43.0989 11.3628H40.7886Z" fill="black"/>
<path fill-rule="evenodd" clip-rule="evenodd" d="M45.4024 11.3132C44.0825 11.3132 43.5297 12.2078 43.5297 13.3128C43.5297 14.4162 44.0825 15.312 45.4024 15.312C46.7223 15.312 47.276 14.4164 47.276 13.3128C47.2751 12.2089 46.7223 11.3132 45.4024 11.3132ZM45.4024 14.7132C44.6295 14.7132 44.4383 14.0856 44.4383 13.3125C44.4383 12.5392 44.6295 11.9117 45.4024 11.9117C46.1753 11.9117 46.3665 12.5392 46.3665 13.3125C46.3667 14.0859 46.1744 14.7132 45.4024 14.7132ZM50.1131 13.5945V13.5529C50.3729 13.5529 51.0253 13.3078 51.0253 12.4817C51.0253 11.6565 50.3937 11.3629 49.6707 11.3629H48.2023V15.2275H49.0029V13.6153H49.0702C49.3402 13.6153 50.2882 15.2275 50.2882 15.2275H51.2988L50.1131 13.5945ZM49.6148 13.041H49.0041V12.0345H49.6148C49.836 12.0345 50.1699 12.0691 50.1699 12.5059C50.1699 12.9426 49.8362 13.041 49.6148 13.041ZM53.5083 11.3629H52.1316V15.2275H53.5083C54.7434 15.2275 55.258 14.4023 55.258 13.3058C55.2582 12.2091 54.7439 11.3629 53.5083 11.3629ZM53.5353 14.5559H52.9221V12.0342H53.5353C54.0638 12.0342 54.3686 12.5441 54.3686 13.3045C54.3695 14.0662 54.0647 14.5559 53.5353 14.5559ZM35.1262 20.9658C35.1262 21.0836 35.1389 21.1576 35.1494 21.2247C35.161 21.2963 35.1736 21.3692 35.1736 21.5564C35.1736 22.1459 35.038 22.4221 34.9441 22.4221C34.9242 22.4221 34.9153 22.421 34.9081 22.4198C34.8978 22.4071 34.8784 22.3818 34.8629 22.3586C34.703 22.1309 34.4841 21.8894 33.8953 21.8894C33.3485 21.8894 32.9822 22.2765 32.9822 22.8521C32.9822 23.6968 33.1966 24.38 33.3679 24.9288C33.4688 25.2477 33.5542 25.5228 33.5542 25.7066C33.5542 25.8533 33.4836 25.9978 33.4408 26.0291C33.2262 26.0257 33.1557 25.9564 33.0039 25.8084C32.7999 25.6073 32.5195 25.3311 31.8915 25.3311C31.624 25.3311 31.0037 25.4224 31.0037 26.2717C31.0037 26.6416 31.1334 26.9583 31.2575 27.2633C31.3908 27.588 31.5274 27.9233 31.5274 28.3638C31.5274 28.3985 31.5241 28.7105 31.4219 28.7105C31.0198 28.7105 30.8679 28.462 30.6362 28.0241C30.4334 27.6415 30.182 27.1676 29.5992 27.1676C28.6421 27.1676 28.6421 28.5937 28.6421 29.13C28.6421 32.1625 31.5277 33.2617 33.4677 33.2617C33.8365 33.2617 34.0516 33.2304 34.2605 33.2004C34.4761 33.1691 34.6789 33.1391 35.0799 33.1391C36.2573 33.1391 37.1483 33.3737 37.685 33.8176C37.3896 33.7054 37.0371 33.6313 36.6178 33.6313C35.605 33.6313 35.2308 33.8717 34.875 34.1618C34.7417 34.2716 34.6433 34.3512 34.4624 34.4033L33.0231 34.8137L34.4832 35.1395C35.0926 35.2759 35.4299 35.7532 35.7879 36.2584C36.1692 36.7969 36.6004 37.4083 37.3931 37.4083C37.4672 37.4083 37.5367 37.4025 37.6038 37.392C37.5354 37.7652 37.4788 38.238 37.4788 38.7845C37.4788 39.5738 37.6722 39.8813 37.9274 40.2015L38.0491 40.3632C38.1625 40.5285 38.2832 40.689 38.4015 40.844C38.8186 41.3941 39.2138 41.9152 39.2138 42.6284C39.2138 43.0086 39.2323 43.3158 39.2498 43.6117C39.2683 43.9087 39.2833 44.1885 39.2833 44.5398C39.2833 45.5915 40.0121 45.9174 40.4037 46.0918C40.4431 46.1102 40.4907 46.1312 40.5278 46.1497C40.603 46.5091 40.959 46.627 41.1813 46.6985L41.2589 46.724L41.3401 46.7562C41.4535 46.8048 41.6075 46.8719 41.888 46.8719C42.6168 46.8719 42.9368 46.332 43.0028 45.8825C43.0156 45.8767 43.0283 45.8722 43.0399 45.8664C43.3608 45.7242 44.0295 45.4305 44.0295 44.4935C44.0295 44.0022 43.9682 43.6314 43.9135 43.3042C43.8741 43.0627 43.8383 42.8534 43.8383 42.6467C43.8383 42.0527 44.0827 41.7511 44.4175 41.3349C44.8693 40.7733 45.4337 40.0765 45.4337 38.5059C45.4337 37.9499 45.4024 37.5246 45.3608 37.2032C45.4523 37.224 45.5471 37.239 45.6459 37.239C46.6888 37.239 47.0493 36.6148 47.3111 36.0982C47.8002 35.1308 48.7458 35.1876 48.7458 35.1876C48.7458 35.1876 47.9972 33.8957 46.2138 33.8957C45.6703 33.8957 45.253 34.0041 44.9377 34.1464C45.084 33.7279 45.3331 33.5421 45.5382 33.4323C46.0306 33.1722 46.7617 33.1489 47.4098 33.1489C47.8074 33.1489 48.0887 33.1778 48.3624 33.2069C48.6196 33.2333 48.8851 33.2612 49.227 33.2612C51.8565 33.2612 52.5471 32.4302 53.2773 31.5509C53.8983 30.8044 54.31 30.0796 54.31 28.9585C54.31 28.2051 54.0922 27.4006 53.4779 27.4006C52.9472 27.4006 52.7189 27.8951 52.5359 28.2927C52.3168 28.7666 52.1882 28.9654 51.9623 28.9654C51.6669 28.9654 51.4269 28.6754 51.4269 28.3193C51.4269 27.9899 51.6461 27.574 51.8581 27.1716C52.0992 26.7116 52.3505 26.2368 52.3505 25.7652C52.3505 25.4993 52.2405 25.2622 52.0399 25.0983C51.8731 24.9608 51.6586 24.8845 51.435 24.8845C50.968 24.8845 50.5959 25.2716 50.2358 25.6462C50.0064 25.8855 49.6935 26.2102 49.5032 26.2219C49.4652 26.1883 49.4059 26.0566 49.4059 25.9515C49.4059 25.6245 49.552 25.1413 49.6946 24.6756C49.8476 24.174 49.9898 23.699 49.9898 23.3189C49.9898 22.497 49.5099 22.1307 49.034 22.1307C48.6006 22.1307 48.3191 22.3331 48.093 22.4959C47.9237 22.6173 47.8148 22.6878 47.6815 22.6983C47.6781 22.6925 47.6759 22.688 47.6743 22.6819C47.6743 22.6647 47.6754 22.289 47.6754 22.289C47.6754 22.1698 47.6766 22.0544 47.6766 21.9435C47.6766 21.0731 47.6406 20.4816 47.3022 20.143C47.1376 19.9777 46.9222 19.8943 46.6626 19.8943C45.4679 19.8943 44.9314 21.4685 44.9314 23.0275C44.9314 23.7509 44.9614 24.3901 44.9905 25.0073C45.0184 25.5968 45.0437 26.1514 45.0437 26.7548C45.0437 28.2017 44.7469 29.3863 44.4931 30.0058C44.4108 29.3156 44.2847 28.2768 43.4792 28.2768C42.8118 28.2768 42.6553 29.1273 42.4757 30.112C42.3136 30.9962 42.0897 32.2072 41.5391 32.2072C41.0769 32.2072 40.9436 31.3648 40.815 30.2632C40.6898 29.1839 40.5473 27.9611 39.5843 27.9611C38.5366 27.9611 38.4684 29.3156 38.4243 30.2113C38.4185 30.3235 38.4114 30.4562 38.4011 30.5845C38.145 30.084 37.8366 29.223 37.8366 28.4325C37.8366 27.4293 37.8992 26.6434 37.9616 25.8828C38.0209 25.1547 38.0822 24.4012 38.0822 23.4859C38.0822 21.468 37.579 20.9226 37.1355 20.4418L37.1042 20.4082C36.8063 20.0858 36.5259 19.7807 36.0844 19.7807C35.4574 19.7834 35.1262 20.3785 35.1262 20.9658Z" fill="black"/>
<path fill-rule="evenodd" clip-rule="evenodd" d="M53.4842 27.7832C52.8516 27.7832 52.8943 29.3468 51.9671 29.3468C51.455 29.3468 51.0493 28.8893 51.0493 28.3195C51.0493 27.4884 51.9718 26.5351 51.9718 25.7653C51.9718 25.4359 51.6936 25.2659 51.4378 25.2659C50.8152 25.2659 50.1827 26.6066 49.4955 26.6066C49.1721 26.6066 49.0263 26.1858 49.0263 25.9523C49.0263 25.2058 49.6113 23.9876 49.6113 23.3197C49.6113 22.7834 49.3669 22.5117 49.0375 22.5117C48.4267 22.5117 48.223 23.0837 47.6492 23.0837C47.43 23.0837 47.2981 22.8444 47.2981 22.6908C47.2981 21.1918 47.3745 20.2742 46.6679 20.2742C45.7523 20.2742 45.32 21.654 45.32 23.0271C45.32 24.4211 45.4323 25.4992 45.4323 26.7554C45.4323 28.7005 44.9617 30.3311 44.5516 30.6826C44.5516 30.6826 44.4496 31.8151 44.8982 31.8151C45.8044 31.8151 47.2761 29.2842 49.1023 29.2842C49.9262 29.2842 49.983 29.7892 49.983 29.9938C49.983 30.656 49.0467 30.9935 49.0467 31.413C49.0467 31.6279 49.3734 31.6465 49.7766 31.6465C50.9748 31.6465 51.8555 30.9094 51.8555 30.9094C51.8555 30.9094 50.9945 31.9276 49.6469 31.9276C49.0558 31.9276 48.598 31.7415 48.598 31.3947C48.598 30.8445 49.7129 30.4053 49.7129 29.854C49.7129 29.6863 49.5264 29.4531 49.1046 29.4531C47.6156 29.4531 46.0428 32.2637 44.817 32.2637C44.5643 32.2637 44.2132 32.0962 44.2132 31.4571C44.2132 30.9116 44.1701 28.658 43.4866 28.658C42.665 28.658 43.0593 32.5886 41.5457 32.5886C39.9476 32.5886 40.9014 28.3425 39.5907 28.3425C38.7946 28.3425 38.9196 29.4924 38.7946 30.5267C38.6912 31.3739 38.4459 32.1447 37.9244 32.1447C37.236 32.1447 36.7494 31.8292 36.1628 31.4673C35.7898 31.2374 35.3933 31.0109 35.0643 30.7647C34.5303 30.3659 34.2367 29.9672 33.7098 29.9672C33.4293 29.9672 33.1198 30.1208 33.1198 30.4073C33.1198 30.9677 33.7098 31.1851 33.7098 31.6682C33.7098 31.941 33.3101 32.1581 32.8521 32.1581C31.4616 32.1581 30.6263 31.2486 30.6263 30.8834C30.6263 30.8834 31.3216 31.8634 32.915 31.8634C33.2591 31.8634 33.3855 31.7871 33.3855 31.6185C33.3855 31.3041 32.908 31.0234 32.908 30.4142C32.908 30.0294 33.2095 29.714 33.6451 29.714C34.2002 29.714 34.5757 30.1186 35.1484 30.5334C35.9723 31.131 37.0442 31.807 37.8658 31.807C38.1811 31.807 38.392 31.6673 38.392 31.3401C38.392 31.0292 37.4581 30.1763 37.4581 28.431C37.4581 26.4364 37.7037 25.3223 37.7037 23.4847C37.7037 21.5686 37.2437 21.118 36.8263 20.6649C36.5135 20.3238 36.342 20.1599 36.0892 20.1599C35.6536 20.1599 35.5065 20.636 35.5065 20.963C35.5065 21.1629 35.5552 21.1754 35.5552 21.5536C35.5552 22.2332 35.3942 22.7995 34.9445 22.7995C34.4182 22.7995 34.692 22.2666 33.8956 22.2666C33.5143 22.2666 33.3649 22.5394 33.3649 22.848C33.3649 24.1643 33.9372 25.1038 33.9372 25.7014C33.9372 25.9997 33.7646 26.4054 33.4573 26.4054C32.6636 26.4054 32.8038 25.7052 31.893 25.7052C31.5047 25.7052 31.3864 25.9292 31.3864 26.2656C31.3864 26.9161 31.9102 27.4144 31.9102 28.3561C31.9102 28.7721 31.77 29.0843 31.4236 29.0843C30.2394 29.0843 30.3863 27.5403 29.6018 27.5403C29.2011 27.5403 29.0269 28.0638 29.0269 29.1214C29.0269 31.9506 31.7988 32.8729 33.4698 32.8729C34.1792 32.8729 34.2554 32.7515 35.082 32.7515C38.9605 32.7515 38.6476 35.1195 38.6476 35.1195C38.6476 35.1195 38.1516 34.0043 36.6197 34.0043C35.1258 34.0043 35.2882 34.5542 34.5685 34.7613C36.06 35.0951 36.1919 37.0206 37.3959 37.0206C37.9338 37.0206 38.2004 36.6105 38.2004 36.6105C38.2004 36.6105 37.8631 37.4771 37.8631 38.7798C37.8631 39.6696 38.1261 39.791 38.3672 40.1446C38.8807 40.8969 39.5979 41.5613 39.5979 42.6247C39.7692 42.6247 39.8993 41.833 39.9955 41.833C40.0581 41.833 40.1115 41.9556 40.1115 42.13C40.1115 42.5357 39.6699 43.25 39.6699 44.5363C39.6699 45.3072 40.1543 45.557 40.5157 45.7198C40.6035 45.7198 41.1101 44.66 41.1101 44.66C40.8064 45.4852 40.8992 45.9486 40.8992 46.0041C40.8992 46.2237 41.1137 46.2688 41.3869 46.359C41.5421 46.4111 41.622 46.4873 41.8946 46.4873C42.5297 46.4873 42.6409 45.9233 42.6409 45.7013C42.6409 45.477 42.4114 45.0563 42.4114 44.8045C42.4114 44.8045 42.4022 44.6506 42.4391 44.6506C42.5181 44.6506 42.854 45.5313 42.854 45.5313C43.1519 45.3996 43.6535 45.2075 43.6535 44.4901C43.6535 43.6546 43.1458 42.5196 43.1458 42.0088C43.1458 41.891 43.1874 41.8122 43.2304 41.8122C43.3288 41.8122 43.4947 42.2747 43.4947 42.2747C43.7136 40.9964 45.0615 40.875 45.0615 38.5038C45.0615 37.0025 44.832 36.5193 44.832 36.5193C44.832 36.5193 45.2319 36.8556 45.6548 36.8556C47.1055 36.8556 46.7627 35.4134 47.9016 34.9326C47.9016 34.7892 47.2887 34.274 46.2215 34.274C44.8736 34.274 44.438 35.0032 44.438 35.0032C44.438 32.8928 45.9202 32.7667 47.415 32.7667C48.2156 32.7667 48.56 32.8789 49.2323 32.8789C51.6855 32.8789 52.288 32.1497 52.9914 31.3025C53.616 30.55 53.9324 29.9017 53.9324 28.9564C53.934 28.4489 53.8074 27.7832 53.4842 27.7832ZM37.6475 35.8513C37.6475 35.9494 37.9615 36.0246 38.1433 36.0246C38.1433 36.1368 37.9233 36.2996 37.718 36.2996C36.9263 36.2996 37.3101 35.0759 35.7283 34.7684C35.7283 34.7684 35.8128 34.7313 36.0179 34.7313C37.2669 34.7313 37.6285 35.6976 38.3079 35.6976C38.11 35.7195 37.6475 35.7345 37.6475 35.8513ZM40.3383 40.8971V40.2904C40.3383 40.1216 40.2632 40.0487 40.1136 40.0487L40.5076 39.1519V39.0629C39.8101 39.0629 39.2052 38.9231 39.2052 38.4284H39.0081C38.9665 38.4284 38.876 38.381 38.876 38.2967C38.876 38.2354 39.1099 37.9709 39.6627 37.9709C40.0845 37.9709 40.3372 38.1478 40.3372 38.1478C40.3372 38.1478 40.0984 37.5873 39.4563 37.5873C39.0775 37.5873 38.9788 37.6381 38.9788 37.6381C38.9788 37.6381 39.2083 37.3436 39.5167 37.3436C40.4852 37.3436 40.7379 37.9503 40.7379 39.0193C40.7417 40.1504 40.3383 40.8971 40.3383 40.8971ZM46.6623 34.9475C46.8197 34.9475 46.9078 34.9753 46.9078 34.9753C45.9634 35.1475 45.9739 36.286 45.2183 36.286C45.0537 36.286 44.9447 36.2122 44.9447 36.2122C45.0512 36.0053 45.4048 35.9555 45.4048 35.677C45.1603 35.677 44.9808 35.6978 44.7406 35.7464C44.7419 35.6547 45.4976 34.9475 46.6623 34.9475ZM44.4964 37.7604L44.4315 37.8669C44.4315 37.8669 44.071 37.7501 43.7387 37.7501C43.1393 37.7501 42.9193 38.1605 42.9193 38.1605C42.9193 38.1605 43.1163 38.0438 43.5043 38.0438C44.0189 38.0438 44.3933 38.3188 44.3933 38.4217C44.3933 38.5282 44.2345 38.5845 44.107 38.5845C44.107 38.8319 43.7698 39.1729 42.7536 39.1729C42.7536 39.6723 43.0631 40.0039 43.0631 40.1495C42.8048 40.1495 42.7677 40.3969 42.7677 40.8361C42.7677 40.8361 42.4121 39.4308 42.4121 38.8656C42.4121 38.0299 42.7493 37.399 43.4654 37.399C43.9773 37.4008 44.4964 37.7604 44.4964 37.7604Z" fill="#ED2127"/>
<path fill-rule="evenodd" clip-rule="evenodd" d="M42.8809 38.7313L42.8252 38.8527C42.8252 38.8527 42.9424 38.937 43.194 38.937C43.7003 38.937 43.9228 38.528 43.8729 38.4795C43.8242 38.4309 43.6055 38.7928 43.2123 38.7928C42.9782 38.7923 42.8809 38.7313 42.8809 38.7313Z" fill="#ED2127"/>
<path fill-rule="evenodd" clip-rule="evenodd" d="M43.4287 38.5915C43.4287 38.6298 43.3788 38.6622 43.3164 38.6622C43.2551 38.6622 43.2041 38.6309 43.2041 38.5915C43.2041 38.5533 43.254 38.5209 43.3164 38.5209C43.3788 38.5209 43.4287 38.5533 43.4287 38.5915ZM39.5584 38.4043C39.6105 38.4437 39.7159 38.7083 39.993 38.7083C40.1947 38.7083 40.2224 38.6333 40.285 38.5985C40.3476 38.5638 40.4136 38.6298 40.374 38.6875C40.3347 38.7465 40.2591 38.8203 40.0019 38.8203C39.6691 38.8203 39.4757 38.5499 39.4502 38.484C39.4041 38.3694 39.4515 38.3303 39.5584 38.4043Z" fill="#ED2127"/>
<path fill-rule="evenodd" clip-rule="evenodd" d="M40.0427 38.4828C40.0427 38.5186 40.0011 38.5477 39.9499 38.5477C39.898 38.5477 39.856 38.5188 39.856 38.4828C39.856 38.4481 39.8976 38.4191 39.9499 38.4191C40.0009 38.4191 40.0427 38.4481 40.0427 38.4828Z" fill="#ED2127"/>
</g>
<defs>
<clipPath id="clip0_37_157">
<rect x="0.299805" y="0.890015" width="82.81" height="60" rx="2" fill="white"/>
</clipPath>
</defs>
</svg>
