<svg width="55" height="17" viewBox="0 0 55 17" fill="none" xmlns="http://www.w3.org/2000/svg">
<g clip-path="url(#clip0_116_336)">
<path d="M45.4194 3.08084L43.3335 6.76245C42.5472 6.14171 41.5862 5.68151 40.363 5.68151C37.469 5.68151 36.3987 7.78987 36.3987 9.26679C36.3987 10.3691 37.0321 11.9959 39.6095 11.9959C40.92 11.9959 42.3179 11.4073 42.9513 10.9257L40.8872 15.0782C39.9262 15.4099 39.3146 15.5063 38.4846 15.5384C33.876 15.6775 32.1177 12.9056 32.1177 10.0909C32.1177 6.35576 35.4158 1.81796 41.051 1.81796C41.4005 1.81796 41.75 1.88218 42.0667 2.06412L42.4708 1.72164L45.4194 3.08084ZM8.69235 14.5216H8.82341C8.93262 14.5216 8.99814 14.4788 9.00906 14.3183C9.00906 14.1685 8.95446 14.1471 8.81249 14.1471H8.70328L8.69235 14.5216ZM8.41933 15.2494L8.4521 13.9544H8.95446C9.19472 13.9544 9.26024 14.1471 9.26024 14.329C9.26024 14.436 9.22748 14.5645 9.12919 14.6394C9.05274 14.7036 8.94354 14.7143 8.85617 14.7143H8.69235L8.68143 15.2494H8.41933ZM7.84052 13.9116L8.10263 13.9437L7.99342 14.8427C7.93881 15.1317 7.8296 15.2494 7.50198 15.2173C7.17435 15.1745 7.0979 15.0354 7.11974 14.7464L7.22895 13.8474L7.49105 13.8795L7.38184 14.7571C7.37092 14.8534 7.34908 14.9925 7.52382 15.014C7.67671 15.0247 7.70947 14.9283 7.73131 14.7999L7.84052 13.9116ZM6.16962 14.2327L6.34436 14.2755C6.45357 14.2862 6.50817 14.2327 6.53001 14.1043C6.55186 13.9865 6.51909 13.9437 6.43173 13.9116L6.23515 13.8688L6.16962 14.2327ZM6.12594 14.4253L6.00581 14.9711L5.74371 14.9176L6.02765 13.6333L6.48633 13.7297C6.74843 13.7832 6.8358 13.9009 6.79212 14.1364C6.77027 14.2755 6.70475 14.4253 6.53001 14.4039C6.67199 14.4574 6.68291 14.5216 6.66106 14.6394C6.65014 14.6929 6.5737 15.0032 6.6283 15.0568V15.0996L6.35528 15.0247C6.34436 14.939 6.38804 14.7785 6.39896 14.6929C6.40988 14.618 6.44265 14.5109 6.35528 14.4681C6.28975 14.436 6.26791 14.436 6.20239 14.4253H6.12594ZM4.65162 13.8581C4.7499 13.537 4.83727 13.3123 5.2195 13.4193C5.427 13.4728 5.54713 13.5584 5.54713 13.7939C5.54713 13.8474 5.52529 13.9009 5.51437 13.9544L5.27411 13.8902C5.30687 13.7618 5.32871 13.6548 5.1649 13.6119C4.97924 13.5584 4.93556 13.7832 4.9028 13.8795L4.80451 14.2327C4.77175 14.3397 4.73898 14.5109 4.9028 14.5538C5.03385 14.5859 5.12121 14.4574 5.1649 14.2648L5.00108 14.222L5.05569 14.0186L5.44884 14.1471L5.26319 14.8213L5.07753 14.7785L5.12121 14.6394C5.03385 14.7571 4.93556 14.7678 4.84819 14.7464C4.45504 14.6394 4.49872 14.3932 4.58609 14.0614L4.65162 13.8581ZM12.8095 14.2434L13.017 14.1899L12.744 13.6548L12.8095 14.2434ZM12.613 14.8641L12.5256 13.5263L12.8423 13.43L13.5194 14.5966L13.2682 14.6715L13.1044 14.3718L12.8205 14.4574L12.8532 14.7892L12.613 14.8641ZM12.2307 14.4681C12.2307 14.4895 12.2417 14.5216 12.2417 14.543C12.2744 14.7785 12.2307 14.9711 11.9577 15.0247C11.5646 15.0996 11.4881 14.8534 11.4117 14.5216L11.3789 14.3397C11.3243 14.0186 11.3025 13.7725 11.6847 13.6869C11.9031 13.6441 12.0451 13.7297 12.1106 13.9437C12.1215 13.9758 12.1324 14.0079 12.1324 14.04L11.8922 14.0936C11.8594 14.0079 11.8267 13.8688 11.7175 13.8795C11.5209 13.9009 11.5864 14.1364 11.6082 14.2327L11.6847 14.5859C11.7065 14.6929 11.7502 14.8641 11.914 14.832C12.0451 14.8106 11.9905 14.5966 11.9796 14.5109L12.2307 14.4681ZM10.5161 14.3932C10.5708 14.3825 10.6472 14.3825 10.68 14.329C10.7018 14.2969 10.7236 14.2648 10.7018 14.1899C10.68 14.0935 10.6472 14.04 10.5271 14.0614L10.4179 14.0828L10.4615 14.4146L10.5161 14.3932ZM10.6144 14.9925C10.669 14.9818 10.7236 14.9818 10.7564 14.9604C10.8219 14.9176 10.811 14.832 10.8001 14.7678C10.7783 14.6287 10.7455 14.5752 10.5926 14.5966L10.4943 14.6073L10.5598 14.9925H10.6144ZM10.3305 15.228L10.1448 13.933L10.5817 13.8688C10.6909 13.8581 10.811 13.8688 10.8656 13.933C10.9202 13.9972 10.9421 14.0614 10.953 14.1471C10.9639 14.2541 10.9421 14.3825 10.811 14.4467C10.953 14.4467 11.0404 14.543 11.0622 14.7143C11.0622 14.7464 11.0731 14.832 11.0622 14.9069C11.0294 15.0782 10.9311 15.1317 10.7564 15.1531L10.3305 15.228ZM9.92642 12.6059C9.92642 11.7925 10.3851 11.0648 10.9857 10.6795C11.5209 10.337 12.2417 10.1123 13.4102 9.82332C13.7706 9.7377 14.1419 9.53435 14.262 9.2775C14.5678 9.57716 14.6333 10.2728 14.5787 10.6688C14.5132 11.129 13.9672 11.8996 13.1372 11.9317C12.6239 11.9531 11.9905 11.8247 11.6847 11.7604C11.1605 11.6534 10.3087 11.9745 10.1776 12.6059H9.92642ZM9.42406 12.6059C9.42406 11.9745 9.41314 10.2728 9.43498 10.0588C9.42406 7.53301 11.2915 5.74572 12.471 5.88485C13.2901 5.95977 13.9781 6.28084 14.3494 7.22265C14.6879 8.10024 14.3822 9.26679 13.2464 9.54505C12.0342 9.84472 11.3243 10.0802 10.811 10.4333C10.1885 10.8507 9.708 11.6641 9.68616 12.6059H9.42406ZM9.06367 1.94639C7.65487 1.94639 6.44265 2.85609 6.44265 4.44004C6.44265 5.76713 7.53474 6.47348 7.91697 6.9872C8.5067 7.74706 8.82341 8.65676 8.85617 10.0481C8.87801 11.1504 8.87801 12.242 8.88893 12.6273H9.19472C9.19472 12.2206 9.17288 11.0648 9.19472 10.016C9.21656 8.62465 9.54419 7.75776 10.1339 6.9979C10.5271 6.49489 11.6082 5.77783 11.6082 4.45074C11.6192 2.8775 10.396 1.9571 8.98722 1.9571H9.06367V1.94639ZM8.13539 12.6059C8.13539 11.7925 7.67671 11.0648 7.07606 10.6795C6.54093 10.337 5.82015 10.1123 4.65162 9.82332C4.29122 9.7377 3.91991 9.53435 3.79978 9.2775C3.494 9.57716 3.43939 10.2728 3.494 10.6688C3.55952 11.129 4.10557 11.8996 4.93556 11.9317C5.43792 11.9531 6.08226 11.8247 6.38804 11.7604C6.92317 11.6534 7.75316 11.9745 7.89513 12.6059H8.13539ZM8.63775 12.6059C8.63775 11.9745 8.64867 10.2728 8.62683 10.0588C8.63775 7.53301 6.77027 5.74572 5.59081 5.88485C4.77175 5.95977 4.08373 6.28084 3.71242 7.22265C3.37387 8.10024 3.67965 9.26679 4.81543 9.54505C6.02765 9.84472 6.73751 10.0802 7.25079 10.4333C7.88421 10.8507 8.39749 11.6641 8.40841 12.6059H8.63775ZM2.53296 14.7999C4.72806 15.7845 6.91225 16.2875 9.04183 16.2875C11.3025 16.2875 13.5412 15.8166 15.5398 14.9176C16.5336 12.8949 17.0359 10.8186 17.0359 8.74238C17.0359 6.65542 16.5117 4.48285 15.5179 2.46011C13.3556 1.47549 11.1059 0.961777 8.98722 0.961777C6.71567 0.961777 4.54241 1.42198 2.52204 2.33168C1.55007 4.31161 1.05863 6.39857 1.05863 8.51763C1.04771 10.6367 1.56099 12.8093 2.53296 14.7999ZM9.04183 16.63C6.84672 16.63 4.58609 16.1056 2.32546 15.0782L2.27085 15.0568L2.24901 15.0032C1.23337 12.9484 0.698242 10.7116 0.698242 8.51763C0.698242 6.32365 1.21153 4.18318 2.22717 2.13903L2.25993 2.08552L2.31454 2.05342C4.40043 1.10091 6.63922 0.630005 8.98722 0.630005C11.1714 0.630005 13.4976 1.16512 15.7254 2.18184L15.78 2.20325L15.8019 2.25676C16.8284 4.34372 17.3745 6.58051 17.3745 8.74238C17.3745 10.8935 16.8503 13.034 15.8237 15.121L15.8019 15.1745L15.7473 15.1959C13.6941 16.1377 11.368 16.63 9.04183 16.63ZM25.3904 9.72699L24.8116 11.9103H26.3078C26.8975 11.9103 27.6948 11.632 27.8913 10.915C28.0879 10.1979 27.5309 9.72699 26.9412 9.72699H25.3904ZM27.1596 7.29756C27.6074 7.29756 28.3937 7.19054 28.5903 6.34506C28.8087 5.43536 28.0661 5.40325 27.7166 5.40325H26.4716L26.0129 7.29756H27.1596ZM29.3657 1.9892C31.5171 1.9999 32.7402 3.14506 32.7402 4.79322C32.7402 6.31295 31.4516 7.66144 30.0428 8.35709C31.4952 8.88151 31.6154 10.1551 31.6154 11.0541C31.6154 13.2374 29.3657 15.2815 26.4498 15.2815H20.0829L22.4636 5.98118L21.4371 5.97047L23.4574 1.9892C23.4574 1.9892 27.6074 1.9785 29.3657 1.9892ZM50.0826 6.40927L48.5865 9.95174H50.2137L50.0826 6.40927ZM54.0033 1.9571L54.593 15.2815H50.4212L50.312 12.9912H47.2432L46.2603 15.2815H41.4114L46.2931 5.95977H45.332L47.6145 1.9571H54.0033Z" fill="#0066B3"/>
</g>
<defs>
<clipPath id="clip0_116_336">
<rect width="53.8947" height="16" fill="white" transform="translate(0.698242 0.630005)"/>
</clipPath>
</defs>
</svg>
