<svg width="56" height="17" viewBox="0 0 56 17" fill="none" xmlns="http://www.w3.org/2000/svg">
<g clip-path="url(#clip0_116_366)">
<mask id="mask0_116_366" style="mask-type:luminance" maskUnits="userSpaceOnUse" x="0" y="0" width="56" height="17">
<path d="M0.554688 16.63H55.3802V0.0970345H0.554688V16.63Z" fill="white"/>
</mask>
<g mask="url(#mask0_116_366)">
<path d="M0.612956 11.6268C0.612956 10.8322 0.597805 10.1656 0.554932 9.57085H2.0584L2.12899 10.5917H2.1709C2.51098 10.0521 3.13539 9.41386 4.2978 9.41386C5.20523 9.41386 5.91377 9.9264 6.2113 10.691H6.24031C6.4824 10.3078 6.76543 10.0254 7.09069 9.82615C7.47332 9.55698 7.91334 9.41386 8.48133 9.41386C9.62827 9.41386 10.7897 10.194 10.7897 12.4069V16.4747H9.08897V12.6609C9.08897 11.513 8.69247 10.8322 7.85725 10.8322C7.26057 10.8322 6.82023 11.2581 6.63713 11.7545C6.59458 11.9244 6.55171 12.1368 6.55171 12.3344V16.4747H4.84999V12.4769C4.84999 11.513 4.46768 10.8322 3.65986 10.8322C3.00741 10.8322 2.56869 11.3425 2.41267 11.8238C2.34207 11.9953 2.31209 12.1932 2.31209 12.3918V16.4747H0.612956V11.6268Z" fill="#003A70"/>
<path d="M15.7159 13.1015C14.4823 13.0725 13.3063 13.341 13.3063 14.3909C13.3063 15.0704 13.746 15.3835 14.2989 15.3835C14.9923 15.3835 15.5038 14.9299 15.6582 14.4338C15.7011 14.3065 15.7159 14.164 15.7159 14.0512V13.1015ZM17.4167 14.8164C17.4167 15.4399 17.4454 16.0472 17.5169 16.4746H15.9429L15.8297 15.7087H15.7856C15.361 16.2477 14.6383 16.63 13.746 16.63C12.356 16.63 11.5769 15.6255 11.5769 14.5743C11.5769 12.8307 13.121 11.9526 15.6731 11.9665V11.853C15.6731 11.3991 15.4884 10.6477 14.2705 10.6477C13.5894 10.6477 12.8795 10.8615 12.4128 11.159L12.072 10.0253C12.5823 9.71226 13.4762 9.41376 14.5677 9.41376C16.7794 9.41376 17.4167 10.8186 17.4167 12.3208V14.8164Z" fill="#003A70"/>
<path d="M18.623 11.6268C18.623 10.8322 18.6072 10.1656 18.5659 9.57085H20.0955L20.1809 10.6056H20.2228C20.5204 10.0679 21.2727 9.41386 22.42 9.41386C23.6263 9.41386 24.8734 10.194 24.8734 12.3773V16.4747H23.1292V12.5765C23.1292 11.584 22.7604 10.8322 21.8111 10.8322C21.1164 10.8322 20.6354 11.3277 20.4501 11.8528C20.3946 12.0095 20.3795 12.2225 20.3795 12.4189V16.4747H18.623V11.6268Z" fill="#003A70"/>
<path d="M30.689 12.4479C30.689 12.307 30.6745 12.1368 30.6468 11.995C30.4904 11.3145 29.9382 10.762 29.144 10.762C28.0241 10.762 27.4007 11.7548 27.4007 13.0446C27.4007 14.3063 28.0241 15.2288 29.1304 15.2288C29.8383 15.2288 30.4627 14.7463 30.6323 13.9949C30.6745 13.8385 30.689 13.667 30.689 13.483V12.4479ZM32.4323 6.797V14.5322C32.4323 15.2408 32.4613 16.007 32.489 16.4741H30.9298L30.8602 15.3836H30.8312C30.4202 16.1479 29.5817 16.6301 28.5766 16.6301C26.9326 16.6301 25.628 15.2288 25.628 13.1016C25.6142 10.79 27.0606 9.41388 28.7191 9.41388C29.6681 9.41388 30.3492 9.81134 30.6606 10.3236H30.689V6.797H32.4323Z" fill="#003A70"/>
<path d="M33.665 9.57075H35.4254V16.474H33.665V9.57075Z" fill="#003A70"/>
<path d="M36.6567 11.7969C36.6567 10.8614 36.6425 10.1941 36.5996 9.57133H38.1169L38.173 10.8885H38.2307C38.5705 9.91044 39.379 9.57133 40.1162 9.57133C40.2861 9.57133 40.3854 9.54199 40.5272 9.57133V11.1028C40.3854 11.0738 40.2297 11.0455 40.0159 11.0455C39.1804 11.0455 38.6134 11.5838 38.458 12.3632C38.4296 12.5189 38.4016 12.7046 38.4016 12.9038V16.4742H36.6567V11.7969Z" fill="#003A70"/>
<path d="M41.3352 9.57075H43.092V16.474H41.3352V9.57075Z" fill="#003A70"/>
<path fill-rule="evenodd" clip-rule="evenodd" d="M53.9396 2.27803C53.0721 1.29001 52.1515 1.73615 51.4165 2.10041C51.1086 2.25256 49.991 2.99656 48.8834 3.51523C48.0943 3.88497 46.9615 3.77311 46.3404 3.00591C46.3026 2.95949 45.2985 1.74292 45.1921 1.59302C44.54 0.775207 42.8905 0.0969715 40.9196 1.22489C39.8636 1.83608 37.375 3.26411 36.4447 3.79536C35.8793 4.08386 34.5666 4.2099 33.8252 3.20835C33.813 3.19191 32.8388 1.9763 32.7998 1.92956C32.7711 1.89668 32.1419 0.963463 30.7393 0.934773C30.533 0.929615 29.5028 0.923491 28.496 1.49503C27.1612 2.25869 24.0543 4.03487 24.0543 4.03487C24.0521 4.03487 24.0521 4.03648 24.0521 4.03648C22.7749 4.76758 21.7788 5.33525 21.7788 5.33525L22.9548 6.78069C23.5053 7.46312 24.7451 7.9921 25.8211 7.37447C25.8211 7.37447 29.7958 5.07285 29.8096 5.0664C31.5291 4.12287 32.8559 4.12287 33.735 4.47424C34.5257 4.80723 35.213 5.63891 35.213 5.63891C35.213 5.63891 36.112 6.75297 36.27 6.94767C36.7812 7.57691 37.6268 7.32998 37.6268 7.32998C37.6268 7.32998 37.9391 7.29388 38.4136 7.01343C38.4136 7.01343 42.2626 4.78176 42.2648 4.78112C43.4878 4.06388 44.6096 3.9301 45.1818 3.98232C46.9764 4.14576 47.5344 5.3994 48.3132 6.27362C48.7712 6.78907 49.1842 7.08048 49.8163 7.06565C50.2325 7.0563 50.7015 6.80519 50.7708 6.76006L55.3805 4.09901C55.3805 4.09901 54.9082 3.38725 53.9396 2.27803Z" fill="#FFB700"/>
</g>
</g>
<defs>
<clipPath id="clip0_116_366">
<rect width="54.8254" height="16" fill="white" transform="translate(0.554932 0.630005)"/>
</clipPath>
</defs>
</svg>
