<svg width="56" height="17" viewBox="0 0 56 17" fill="none" xmlns="http://www.w3.org/2000/svg">
<g clip-path="url(#clip0_116_387)">
<path fill-rule="evenodd" clip-rule="evenodd" d="M33.5743 0.630005H36.9662L45.2339 11.7764V2.32596C45.2339 1.36641 43.9285 0.663478 43.9285 0.663478H48.1684C48.1684 0.663478 47.0526 1.29946 47.0526 2.30365V16.63C47.0526 16.63 45.0889 15.8378 43.6049 13.8183C42.121 11.7988 36.5533 4.53517 36.5533 4.53517V14.1642C36.5533 14.8559 37.7137 15.7039 37.7137 15.7039H33.5296C33.5296 15.7039 34.69 15.0679 34.69 14.22V2.47101C34.7012 1.18788 33.5743 0.630005 33.5743 0.630005ZM51.8169 11.7653V2.3148C51.8169 1.35525 50.5003 0.65232 50.5003 0.65232H55.4989C55.4989 0.65232 54.3832 1.2883 54.3832 2.30365V14.0749C54.3832 14.9787 55.4543 15.7262 55.4543 15.7262H50.6565C50.6565 15.7262 51.8281 15.001 51.8281 14.2534V11.7653H51.8169ZM23.3539 2.14744V6.7109H25.5185C26.5226 6.7109 27.9508 6.17533 27.9508 4.32317C27.9508 2.47101 25.8309 2.14744 25.0945 2.14744H23.3539ZM23.3539 8.20602V14.153H26.2102C27.326 14.153 29.3902 13.1935 29.3902 11.3413C29.3902 9.48914 27.6942 8.20602 26.1098 8.20602H23.3539ZM19.6607 0.641163H26.9913C28.6314 0.641163 30.4948 2.04702 30.4948 3.95497C30.4948 6.55469 28.4975 6.91173 28.4975 6.91173C28.4975 6.91173 31.9899 7.75971 31.9899 11.107C31.9899 14.4543 28.1851 15.7151 26.9132 15.7151L19.5603 15.6928C19.5603 15.6928 20.8323 15.0345 20.8323 13.9187V2.44869C20.8323 1.2883 19.6607 0.641163 19.6607 0.641163Z" fill="#056777"/>
<path fill-rule="evenodd" clip-rule="evenodd" d="M0.380371 15.7039H15.4431V0.641174H0.380371V15.7039Z" fill="white"/>
<path fill-rule="evenodd" clip-rule="evenodd" d="M0.380371 0.641174H5.08888C5.07772 0.674647 5.04425 0.763908 4.99962 0.931272C4.79878 1.72346 4.49753 4.02193 6.56168 7.39152C7.07493 8.22834 7.56587 8.88664 8.06796 9.53378L6.43895 10.8392C3.71649 7.51426 0.380371 3.27437 0.380371 3.27437V0.641174ZM0.380371 6.38734V15.7151L4.94383 12.0331L1.79739 8.10561L0.380371 6.38734ZM15.4431 5.43894C15.4097 5.39431 15.2646 5.18232 15.0638 4.97032C14.4389 4.32318 13.0889 3.29668 11.4487 4.17813C9.94244 4.99264 9.17256 6.86712 11.047 9.3441C12.5868 11.3859 13.9815 11.5756 14.7737 11.464C14.9076 11.4417 15.3316 11.3413 15.432 11.2744V5.43894H15.4431ZM15.4431 2.71649V0.641174H7.06377C7.05262 0.674647 6.99683 0.808538 6.96336 1.02053C6.90757 1.50031 6.88525 2.40408 7.23114 3.69836C7.69976 5.46126 8.98288 7.04564 8.98288 7.04564C8.98288 7.04564 8.86015 5.27158 10.478 3.65373C11.5045 2.62723 12.6649 2.30366 13.6021 2.32597C13.9369 2.32597 14.2381 2.38176 14.5059 2.43755C14.6175 2.44871 15.365 2.67186 15.4431 2.71649ZM15.4431 12.0331C15.4097 12.0666 15.3204 12.1223 15.1642 12.2228C14.7514 12.5017 13.8699 12.9145 12.4083 12.6914C11.0917 12.4905 9.83086 11.6091 8.67047 10.2479L7.00799 11.5756C8.17953 12.9815 9.0833 14.1084 9.38455 14.3316C10.5338 15.1572 11.3148 14.8448 11.3148 14.8448L10.2548 15.7039H15.4431V12.0331ZM7.63281 15.7039H1.88665L2.35527 15.3246L5.54634 12.7695C5.54634 12.7695 6.80715 14.4097 7.30924 15.0122C7.3985 15.1237 7.47661 15.2353 7.53239 15.3246C7.62165 15.5031 7.6105 15.6258 7.63281 15.7039Z" fill="#E35626"/>
</g>
<defs>
<clipPath id="clip0_116_387">
<rect width="55.1186" height="16" fill="white" transform="translate(0.380371 0.630005)"/>
</clipPath>
</defs>
</svg>
