<svg width="69" height="17" viewBox="0 0 69 17" fill="none" xmlns="http://www.w3.org/2000/svg">
<g clip-path="url(#clip0_116_339)">
<mask id="mask0_116_339" style="mask-type:luminance" maskUnits="userSpaceOnUse" x="-49" y="-385" width="402" height="569">
<path d="M-48.7646 183.218H352.584V-384.404H-48.7646V183.218Z" fill="white"/>
</mask>
<g mask="url(#mask0_116_339)">
<path d="M18.9817 4.64575H22.6441C24.1274 4.64575 25.2331 5.29571 25.2331 6.66505C25.2331 7.66897 24.72 8.2279 23.83 8.52456V8.54749C24.8913 8.76459 25.4387 9.33498 25.4387 10.3045C25.4387 12.2099 23.7613 12.609 22.3353 12.609H18.9817V4.64575ZM21.1035 7.79505H21.6968C22.3926 7.79505 23.112 7.6238 23.112 6.95025C23.112 6.22074 22.427 6.15197 21.719 6.15197H21.1035V7.79505ZM21.1035 11.1035H21.7312C22.5072 11.1035 23.3169 10.9888 23.3169 10.1791C23.3169 9.31206 22.4843 9.2325 21.7534 9.2325H21.1035V11.1035Z" fill="#00529C"/>
</g>
<path d="M28.2239 4.64575H30.8251L33.8941 12.609H31.5667L30.9734 10.9093H27.9846L27.3569 12.609H25.2007L28.2239 4.64575ZM29.5245 6.28884H29.5016L28.4747 9.40375H30.4718L29.5245 6.28884Z" fill="#00529C"/>
<path d="M34.1895 4.64575H36.8931L39.5859 10.0537H39.6082L39.5745 4.64575H41.5142V12.609H38.878L36.0948 7.16668H36.0726L36.14 12.609H34.1895V4.64575Z" fill="#00529C"/>
<path d="M42.2341 4.64575H44.3559V7.89753H44.3788L46.7744 4.64575H49.3297L46.3867 8.35331L49.5582 12.609H46.8539L44.3788 8.99247H44.3559V12.609H42.2341V4.64575Z" fill="#00529C"/>
<mask id="mask1_116_339" style="mask-type:luminance" maskUnits="userSpaceOnUse" x="-49" y="-385" width="402" height="569">
<path d="M-48.7646 183.218H352.584V-384.404H-48.7646V183.218Z" fill="white"/>
</mask>
<g mask="url(#mask1_116_339)">
<path d="M52.1897 4.64575H55.8521C57.3347 4.64575 58.4418 5.29571 58.4418 6.66505C58.4418 7.66897 57.9287 8.2279 57.0387 8.52456V8.54749C58.0999 8.76459 58.6467 9.33498 58.6467 10.3045C58.6467 12.2099 56.9699 12.609 55.544 12.609H52.1897V4.64575ZM54.3115 7.79505H54.9048C55.6013 7.79505 56.3193 7.6238 56.3193 6.95025C56.3193 6.22074 55.6357 6.15197 54.9277 6.15197H54.3115V7.79505ZM54.3115 11.1035H54.9392C55.7145 11.1035 56.525 10.9888 56.525 10.1791C56.525 9.31206 55.6923 9.2325 54.9621 9.2325H54.3115V11.1035Z" fill="#00529C"/>
<path d="M59.1174 4.64575H62.9052C64.3197 4.64575 65.472 5.28492 65.472 6.65427C65.472 7.71482 64.9704 8.42208 63.9435 8.66143V8.68435C64.6272 8.86707 64.673 9.47185 65.0728 10.4414L65.8482 12.609H63.6354L63.179 11.1722C62.7454 9.80289 62.471 9.45971 61.6842 9.45971H61.2392V12.609H59.1174V4.64575ZM61.2392 7.95417H61.7981C62.4832 7.95417 63.3502 7.93125 63.3502 7.02981C63.3502 6.28884 62.6086 6.15197 61.7981 6.15197H61.2392V7.95417Z" fill="#00529C"/>
</g>
<path d="M66.4331 4.64557H68.5549V12.6088H66.4331V4.64557Z" fill="#00529C"/>
<path d="M14.1395 0.630007H3.03438C1.68593 0.630007 0.593018 1.74989 0.593018 3.13138V3.15767V14.1293C0.593018 15.4973 1.66571 16.6098 2.99662 16.63H14.1334C15.4819 16.63 16.5755 15.5108 16.5755 14.1293L16.5802 3.13138C16.5802 1.74989 15.488 0.630007 14.1395 0.630007ZM4.35384 15.3483L3.74838 15.355C3.01483 15.355 2.42016 14.7523 2.42016 14.0086L2.41679 13.9028V3.74627L2.42084 3.1988C2.44848 2.4794 2.99528 1.90092 3.71063 1.90092H4.94243C6.05895 1.90092 6.96375 2.8718 6.96375 4.01596C6.96375 4.5823 6.74194 5.09606 6.38257 5.46958L3.24002 8.65866L6.1857 11.6583C6.56529 12.05 6.79452 12.5638 6.79452 13.1267C6.79452 14.3538 5.70228 15.3483 4.35384 15.3483ZM13.4093 15.3382L7.91778 15.3362C7.91778 15.3362 8.55223 13.9641 8.55223 13.1146C8.55223 12.0783 8.20635 11.1533 7.66427 10.5411L5.78589 8.6263L7.7027 6.64543C8.27377 6.10942 8.65269 5.15742 8.65269 4.07259C8.65269 3.21363 8.41536 2.45311 8.03307 1.90092H9.36332C10.4798 1.90092 11.3853 2.8718 11.3853 4.01596C11.3853 4.5823 11.1635 5.09606 10.8041 5.46958L7.72158 8.62562L14.124 15.1541C13.9211 15.2816 13.6655 15.3382 13.4093 15.3382ZM14.7504 13.3L10.1623 8.6236L12.3474 6.40271C12.7917 5.84647 13.0742 5.00909 13.0742 4.07259C13.0742 3.20824 12.8335 2.42816 12.4479 1.87597L13.4255 1.90564C14.1591 1.90564 14.7537 2.50839 14.7537 3.25206L14.7504 13.3Z" fill="#00529C"/>
</g>
<defs>
<clipPath id="clip0_116_339">
<rect width="67.9619" height="16" fill="white" transform="translate(0.593018 0.630005)"/>
</clipPath>
</defs>
</svg>
