<svg width="42" height="17" viewBox="0 0 42 17" fill="none" xmlns="http://www.w3.org/2000/svg">
<g clip-path="url(#clip0_116_470)">
<path d="M40.2486 3.20489C40.2486 4.06319 40.2486 4.92149 40.2486 5.77979C40.2486 5.99841 40.2485 6.00651 40.0299 6.00651H33.4469C33.285 6.00651 33.2364 6.05509 33.2445 6.20894C33.2526 6.36278 33.2607 6.71906 33.2445 6.97007C33.2283 7.22108 33.285 7.15631 33.4307 7.15631H40.119C40.2081 7.15631 40.2566 7.18869 40.2566 7.28586V7.38303C40.2566 9.51528 40.2566 11.6475 40.2566 13.7798C40.2566 13.9984 40.2566 13.9984 40.038 13.9984H29.8356C29.5603 13.9984 29.5603 13.9984 29.5603 13.7231C29.5603 12.9458 29.5603 12.1712 29.5603 11.3992C29.5603 11.1968 29.5603 11.1968 29.7708 11.1968H36.4267C36.6291 11.1968 36.6291 11.1968 36.6291 10.9863C36.6291 10.7757 36.621 10.4033 36.6291 10.1118C36.6372 9.98222 36.5886 9.94983 36.4672 9.94983H29.7303C29.5927 9.94983 29.5522 9.90934 29.5522 9.77169C29.5576 7.59085 29.5576 5.41002 29.5522 3.22918C29.536 3.14821 29.5846 3.11582 29.6575 3.09963C29.7135 3.08955 29.7707 3.08683 29.8275 3.09153H39.9975C40.0866 3.09963 40.2162 3.05104 40.2486 3.20489Z" fill="#FDFDFD"/>
<path d="M9.0177 7.4559C9.0177 7.1806 8.99341 7.14821 8.71001 7.14821H6.43471C6.37086 7.14244 6.30662 7.15361 6.24847 7.1806C6.23856 7.17671 6.22764 7.17619 6.21739 7.17912C6.20715 7.18204 6.19816 7.18825 6.19179 7.19679C6.15532 7.24249 6.13792 7.30051 6.14321 7.35874C6.13781 8.16845 6.13781 8.97547 6.14321 9.77979C6.13661 9.83081 6.14639 9.88262 6.17113 9.92773C6.19587 9.97284 6.23429 10.0089 6.28086 10.0308H8.71811C8.84766 10.0308 8.97722 10.0551 9.0177 9.88505C9.0177 9.08073 9.0177 8.27102 9.0177 7.4559ZM7.98127 9.06724H7.22013C7.13106 9.06724 7.11487 9.02675 7.11487 8.95388V8.20894C7.11487 8.12797 7.13106 8.09558 7.22823 8.10368C7.34959 8.11065 7.47124 8.11065 7.5926 8.10368H7.95697C8.05414 8.10368 8.10272 8.13606 8.10272 8.24133C8.09733 8.47345 8.09733 8.70556 8.10272 8.93768C8.09463 9.02675 8.07033 9.06724 7.98127 9.06724Z" fill="#FDFDFD"/>
<path d="M34.9369 3.2373H40.0138C40.1758 3.2373 40.2244 3.27779 40.2163 3.43973C40.2082 4.20087 40.2082 4.9539 40.2163 5.71504C40.2163 5.86888 40.1758 5.91747 40.0219 5.91747H33.4146C33.1717 5.91747 33.1636 5.93366 33.1636 6.16848V6.99439C33.1636 7.26969 33.1636 7.22921 33.3903 7.22921H39.9814C40.2163 7.22921 40.2163 7.22921 40.2163 7.46403C40.2163 9.5315 40.2163 11.6017 40.2163 13.6746C40.2163 13.9094 40.2163 13.9094 39.9733 13.9094H29.8843C29.6414 13.9094 29.6414 13.9094 29.6414 13.6746C29.6414 12.9296 29.6495 12.1928 29.6414 11.4478C29.6414 11.2859 29.6818 11.2373 29.8519 11.2373H36.4754C36.6778 11.2373 36.6859 11.2373 36.6859 11.0268C36.6859 10.8163 36.6778 10.4114 36.6859 10.1037C36.694 9.95795 36.6454 9.91747 36.4997 9.91747H29.8843C29.6414 9.91747 29.6414 9.91747 29.6414 9.67455C29.6414 7.60708 29.6414 5.5369 29.6414 3.46403C29.6414 3.2373 29.6414 3.2373 29.8681 3.2373H34.9369Z" fill="#FDFDFD"/>
<path d="M12.9611 3.6907C12.958 3.6985 12.958 3.70721 12.9611 3.715C12.9611 5.72849 12.9638 7.74469 12.9692 9.76358C12.9692 9.90123 12.9287 9.93362 12.7992 9.93362H10.4591C10.3134 9.93362 10.281 9.88504 10.281 9.74739C10.2891 8.549 10.281 7.35062 10.281 6.15224C10.281 5.94172 10.281 5.94172 10.0704 5.94172H6.44291C6.28906 5.94172 6.24048 5.89313 6.24048 5.73929C6.24588 4.95656 6.24588 4.17114 6.24048 3.38301C6.24048 3.25346 6.28096 3.22107 6.40242 3.22107H12.37C12.4635 3.22445 12.555 3.24939 12.6372 3.29394C12.7857 3.38722 12.8995 3.52659 12.9611 3.6907Z" fill="#FDFDFD"/>
<path d="M18.3782 11.4802L17.034 10.1927L16.9774 10.1684C16.8815 10.0619 16.7787 9.96181 16.6697 9.86884C16.5887 9.80407 16.5644 9.82836 16.5563 9.92552C16.5482 10.0227 16.5563 10.0308 16.5563 10.0875V13.7636C16.5563 13.9093 16.5158 13.9417 16.3782 13.9417H14.2729C14.1353 13.9417 14.0948 13.9012 14.0948 13.7636C14.1002 11.6853 14.1002 9.60704 14.0948 7.52876C14.0948 7.31824 14.0948 7.31824 14.3053 7.31824H21.6899C21.9247 7.31824 21.9247 7.31824 21.9247 7.08342C21.9247 6.67316 21.922 6.2656 21.9166 5.86075C21.9328 5.76358 21.8923 5.72309 21.7952 5.73119H14.2972C14.1353 5.73119 14.0867 5.69071 14.0867 5.52876C14.0948 4.83241 14.0948 4.13605 14.0867 3.44779C14.0867 3.31824 14.1191 3.26965 14.2567 3.26965H24.5887C24.7344 3.26965 24.7749 3.31824 24.7749 3.46399C24.7695 5.49367 24.7695 7.52606 24.7749 9.56115C24.7749 9.75548 24.7587 9.77168 24.5482 9.77168H20.5239C20.4672 9.77977 20.3944 9.73929 20.3701 9.81216C20.3458 9.88504 20.4187 9.90933 20.4591 9.94982L21.2122 10.6705C21.2853 10.7262 21.353 10.7885 21.4146 10.8567C21.5308 10.981 21.6552 11.0973 21.7871 11.2049L22.6454 12.0065C22.6705 12.0432 22.7038 12.0737 22.7425 12.0956L23.9004 13.1725C23.9733 13.2454 24.5158 13.6583 24.6535 13.8446C24.6616 13.8769 24.7182 13.9255 24.6373 13.9336H21.115C21.0682 13.9343 21.0217 13.9253 20.9785 13.9072C20.9353 13.8891 20.8963 13.8622 20.864 13.8284L19.1069 12.1603L18.5401 11.634C18.4915 11.5854 18.4187 11.5531 18.3782 11.4802Z" fill="#FDFDFD"/>
<path d="M4.91233 3.2697C4.97711 3.32638 4.94472 3.39926 4.94472 3.46404C4.94472 6.01194 4.94472 8.55715 4.94472 11.0997C4.94472 11.3507 4.95282 11.3588 5.20383 11.3588H8.70181C8.93662 11.3588 8.94472 11.375 8.94472 11.6017V13.7474C8.94472 13.9013 8.89614 13.9499 8.74229 13.9499H2.88804C2.79033 13.9475 2.6941 13.9255 2.60507 13.8851C2.51604 13.8448 2.43604 13.7869 2.36982 13.715C2.27042 13.523 2.22561 13.3073 2.24027 13.0916C2.24567 10.0686 2.24836 7.04838 2.24836 4.03084C2.24836 3.70695 2.34553 3.43974 2.66132 3.294C2.72431 3.26286 2.79349 3.24626 2.86375 3.24541H4.81517C4.84755 3.24541 4.88804 3.23731 4.92043 3.2778C4.95282 3.31829 4.75849 3.32638 4.67751 3.32638H3.03379C2.94349 3.32068 2.85291 3.33166 2.76658 3.35877C2.65006 3.39634 2.54939 3.47166 2.48047 3.57285C2.41154 3.67403 2.37831 3.79529 2.38602 3.91748C2.38602 5.69076 2.40221 7.46403 2.37792 9.22922C2.36172 10.2495 2.36172 11.2616 2.34553 12.2818C2.34553 12.5329 2.31314 12.792 2.32124 13.043V13.2049C2.36172 13.6503 2.58035 13.8527 3.02569 13.8527H8.69371C8.7138 13.8574 8.73474 13.8568 8.75456 13.8511C8.77439 13.8455 8.79244 13.8348 8.80702 13.8203C8.8216 13.8057 8.83223 13.7876 8.83791 13.7678C8.84358 13.748 8.84411 13.727 8.83946 13.7069V13.5612C8.83946 12.9674 8.83946 12.3736 8.83946 11.7798C8.83946 11.4721 8.83946 11.4721 8.53176 11.4721H5.24432C4.89614 11.4721 4.86375 11.4397 4.86375 11.0916C4.86375 8.57065 4.86375 6.04973 4.86375 3.52881C4.86375 3.43974 4.84755 3.34258 4.91233 3.2697Z" fill="#FDFDFD"/>
<path d="M41.949 13.7069C41.949 14.4357 41.9409 15.1725 41.949 15.9013C41.949 15.9856 41.9322 16.0691 41.8994 16.1468C41.8667 16.2245 41.8187 16.2948 41.7583 16.3537C41.698 16.4126 41.6264 16.4587 41.5479 16.4895C41.4694 16.5203 41.3855 16.535 41.3012 16.5329H36.8478C36.7263 16.5329 36.6697 16.4924 36.6778 16.3709C36.6859 16.2495 36.6778 16.1361 36.6778 16.0227C36.6778 15.9094 36.7101 15.9094 36.7911 15.9094H40.5968C40.7055 15.9174 40.8145 15.9004 40.9156 15.8597C41.0166 15.819 41.107 15.7557 41.1798 15.6746C41.2963 15.528 41.3541 15.3432 41.3417 15.1563C41.3417 13.958 41.3417 12.7596 41.3417 11.5612C41.3417 11.2697 41.3417 11.2616 41.6332 11.2697C41.9247 11.2778 41.949 11.2211 41.949 11.5855C41.949 12.298 41.949 13.0079 41.949 13.715V13.7069Z" fill="#FDFDFD"/>
<path d="M10.2971 13.9417C10.2971 13.132 10.2971 12.3196 10.2971 11.5045C10.2971 11.2454 10.2971 11.2454 10.5643 11.2454H12.7587C12.953 11.2454 12.9611 11.2616 12.9611 11.4559C12.9611 13.1131 12.9611 14.7676 12.9611 16.4194C12.9611 16.6138 12.9449 16.63 12.7587 16.63H10.4834C10.3295 16.63 10.2971 16.5733 10.2971 16.4356C10.3052 15.6097 10.2971 14.7757 10.2971 13.9417Z" fill="#FDFDFD"/>
<path d="M28.4995 8.58951V13.7474C28.4995 13.9013 28.459 13.9498 28.3052 13.9498H26.0784C25.8679 13.9498 25.8679 13.9498 25.8679 13.7393C25.8679 10.4573 25.8679 7.1752 25.8679 3.89315V3.38303C25.8679 3.21299 25.9084 3.23728 26.0218 3.23728H28.3295C28.4752 3.23728 28.5076 3.29396 28.5076 3.43162C28.5022 5.14821 28.4995 6.86751 28.4995 8.58951Z" fill="#FDFDFD"/>
<path d="M3.38195 0.630005H5.59247C5.74632 0.630005 5.77871 0.686685 5.77871 0.824337C5.77871 1.27778 5.77871 1.27778 5.32527 1.27778H1.84348C1.55199 1.27778 1.32527 1.39114 1.18761 1.66644C1.151 1.77305 1.13991 1.88675 1.15523 1.99843C1.15523 3.2292 1.15523 4.45996 1.15523 5.69073C1.15523 5.94984 1.15523 5.94984 0.888019 5.94984C0.466966 5.94984 0.499355 5.99843 0.499355 5.55308C0.499355 4.16577 0.499355 2.77575 0.499355 1.38304C0.499355 0.897211 0.758464 0.638102 1.24429 0.638102L3.38195 0.630005Z" fill="#FDFDFD"/>
<path d="M8.92866 7.38305C8.92866 7.2535 8.88007 7.21301 8.75052 7.21301H6.42663C6.30517 7.21301 6.25659 7.2535 6.25659 7.37496C6.26199 8.16848 6.26199 8.9647 6.25659 9.76362C6.25659 9.88508 6.29708 9.92556 6.42663 9.92556H8.75052C8.88007 9.92556 8.92866 9.89317 8.92866 9.75552C8.92326 8.9674 8.92326 8.17658 8.92866 7.38305ZM7.98129 9.06726H7.22015C7.13109 9.06726 7.11489 9.02678 7.11489 8.9539V8.20896C7.11489 8.12799 7.13109 8.0956 7.22825 8.1037C7.34961 8.11068 7.47127 8.11068 7.59262 8.1037H7.957C8.05416 8.1037 8.10275 8.13609 8.10275 8.24135C8.09735 8.47347 8.09735 8.70559 8.10275 8.93771C8.09465 9.02678 8.07036 9.06726 7.98129 9.06726Z" fill="#FDFDFD"/>
<path d="M12.9288 6.84862V9.69882C12.9288 9.84457 12.8883 9.90125 12.7344 9.90125H10.5077C10.362 9.90125 10.3215 9.86886 10.3215 9.71502C10.3296 8.50854 10.3215 7.31016 10.3215 6.10368C10.3215 5.88506 10.3215 5.88506 10.1029 5.88506H6.47534C6.32149 5.88506 6.28101 5.83648 6.28101 5.69073C6.2864 4.94579 6.2864 4.20355 6.28101 3.46401C6.28101 3.31826 6.32149 3.27777 6.46724 3.27777H12.2081C12.5725 3.27777 12.9369 3.49639 12.9288 3.99032C12.9207 4.93769 12.9288 5.89316 12.9288 6.84862Z" fill="#FDFDFD"/>
<path d="M4.91221 3.26965C4.91221 5.91473 4.91221 8.5625 4.91221 11.213C4.91221 11.4154 4.9284 11.4235 5.13083 11.4235H8.66929C8.89601 11.4235 8.89601 11.4235 8.89601 11.6421V13.7393C8.89601 13.8688 8.86363 13.9093 8.72597 13.9093H2.90411C2.77017 13.9089 2.64034 13.863 2.53589 13.7792C2.43144 13.6953 2.35857 13.5785 2.32921 13.4478C2.24014 13.1077 2.27253 12.7676 2.29682 12.4275C2.30492 12.3304 2.30492 12.2251 2.30492 12.128C2.30492 11.5126 2.28873 10.8972 2.30492 10.2818C2.3616 8.14415 2.32112 5.9984 2.33731 3.85265C2.3433 3.70209 2.40579 3.55932 2.51233 3.45278C2.61888 3.34623 2.76165 3.28374 2.91221 3.27775H4.91221V3.26965Z" fill="#FDFDFD"/>
<path d="M8.15928 8.58951C8.15928 8.45996 8.15118 8.3223 8.15928 8.19275C8.16737 8.0632 8.11879 8.01461 7.99733 8.02271H7.22001C7.09855 8.02271 7.05806 8.07939 7.05806 8.18465V8.99437C7.05566 9.01552 7.05791 9.03695 7.06468 9.05714C7.07144 9.07733 7.08254 9.09579 7.09721 9.11123C7.11187 9.12666 7.12974 9.1387 7.14956 9.14649C7.16938 9.15428 7.19066 9.15763 7.21191 9.15631H8.00543C8.0281 9.1592 8.05114 9.15672 8.07267 9.14907C8.09421 9.14141 8.11365 9.1288 8.12941 9.11225C8.14517 9.0957 8.15682 9.07567 8.16342 9.05379C8.17001 9.03191 8.17137 9.00878 8.16737 8.98627C8.15928 8.84862 8.15928 8.71907 8.15928 8.58951ZM7.98114 9.06724H7.22001C7.13094 9.06724 7.11474 9.02676 7.11474 8.95388V8.20894C7.11474 8.12797 7.13094 8.09558 7.2281 8.10368C7.34946 8.11066 7.47112 8.11066 7.59248 8.10368H7.95685C8.05401 8.10368 8.1026 8.13607 8.1026 8.24133C8.0972 8.47345 8.0972 8.70557 8.1026 8.93769C8.0945 9.02676 8.07021 9.06724 7.98114 9.06724Z" fill="#FDFDFD"/>
</g>
<defs>
<clipPath id="clip0_116_470">
<rect width="41.4502" height="16" fill="white" transform="translate(0.498779 0.630005)"/>
</clipPath>
</defs>
</svg>
