<svg width="65" height="17" viewBox="0 0 65 17" fill="none" xmlns="http://www.w3.org/2000/svg">
<path d="M3.20534 2.46438H16.7575C16.7327 1.96957 16.5187 1.50322 16.1597 1.16179C15.8008 0.820351 15.3243 0.629963 14.8288 0.630005H2.88931C2.3772 0.630005 1.88606 0.833441 1.52394 1.19556C1.16182 1.55768 0.958385 2.04881 0.958385 2.56093V3.13345C1.09226 2.98509 1.6709 2.46438 3.20534 2.46438ZM3.58315 14.9797C3.44631 14.8655 3.27869 14.7945 3.10148 14.7755C2.92427 14.7566 2.74543 14.7907 2.58758 14.8734C2.42973 14.9562 2.29996 15.0838 2.21467 15.2403C2.12938 15.3968 2.09241 15.5751 2.10843 15.7526C2.12446 15.9301 2.19275 16.0988 2.30468 16.2375C2.41661 16.3762 2.56715 16.4786 2.73726 16.5317C2.90737 16.5848 3.08942 16.5863 3.26038 16.536C3.43134 16.4856 3.58353 16.3857 3.69772 16.2489C3.77355 16.1581 3.83073 16.0531 3.86601 15.9402C3.90129 15.8272 3.91397 15.7084 3.90333 15.5906C3.89269 15.4727 3.85894 15.3581 3.804 15.2533C3.74907 15.1484 3.67402 15.0555 3.58315 14.9797ZM1.71981 8.70802C1.60872 8.71679 1.5005 8.74767 1.4015 8.79884C1.3025 8.85001 1.21472 8.92045 1.14332 9.006C1.07191 9.09156 1.01831 9.19052 0.985672 9.29707C0.953031 9.40362 0.942003 9.51562 0.953236 9.62649C0.978126 9.85342 1.08993 10.0619 1.26519 10.2082C1.44045 10.3545 1.66555 10.4272 1.89327 10.4111C5.14076 10.1556 8.05195 12.585 8.38182 15.8254C8.40514 16.0523 8.51623 16.2611 8.69137 16.4073C8.86652 16.5535 9.09184 16.6254 9.31928 16.6077C9.43037 16.599 9.53859 16.5681 9.63759 16.5169C9.73659 16.4657 9.82437 16.3953 9.89577 16.3098C9.96718 16.2242 10.0208 16.1252 10.0534 16.0187C10.0861 15.9121 10.0971 15.8001 10.0859 15.6893C9.66266 11.5104 5.90766 8.37622 1.71981 8.70802ZM2.24567 11.7244C2.13457 11.7332 2.02635 11.7641 1.92735 11.8153C1.82836 11.8664 1.74058 11.9369 1.66917 12.0224C1.59777 12.108 1.54417 12.2069 1.51153 12.3135C1.47889 12.42 1.46786 12.532 1.47909 12.6429C1.50398 12.8698 1.6158 13.0783 1.79107 13.2245C1.96634 13.3707 2.19144 13.4434 2.41913 13.4272C3.87022 13.311 5.1723 14.3975 5.31744 15.846C5.34101 16.0727 5.45219 16.2813 5.62731 16.4273C5.80242 16.5732 6.02762 16.645 6.25491 16.6274C6.36576 16.619 6.4738 16.5884 6.57265 16.5376C6.6715 16.4867 6.75914 16.4165 6.8304 16.3312C6.90165 16.2459 6.95508 16.1471 6.98751 16.0408C7.01995 15.9344 7.03073 15.8227 7.01923 15.7121C6.78108 13.3249 4.63776 11.5362 2.24567 11.7244ZM14.8932 8.25715C14.3384 8.25715 13.8064 8.47754 13.4141 8.86983C13.0218 9.26213 12.8014 9.79419 12.8014 10.349C12.8014 10.9038 13.0218 11.4358 13.4141 11.8281C13.8064 12.2204 14.3384 12.4408 14.8932 12.4408H19.9458V8.25715H14.8932ZM14.9898 11.2501C14.8115 11.2501 14.6373 11.1972 14.4891 11.0982C14.3409 10.9992 14.2255 10.8585 14.1572 10.6938C14.089 10.5292 14.0712 10.348 14.106 10.1732C14.1407 9.99839 14.2266 9.83783 14.3526 9.71181C14.4786 9.58579 14.6392 9.49997 14.814 9.4652C14.9888 9.43043 15.1699 9.44827 15.3346 9.51648C15.4992 9.58468 15.64 9.70017 15.739 9.84836C15.838 9.99654 15.8909 10.1708 15.8909 10.349C15.8909 10.5879 15.796 10.8171 15.627 10.986C15.4581 11.155 15.229 11.25 14.9901 11.2501H14.9898ZM11.5141 10.349C11.5141 9.45278 11.8701 8.59329 12.5038 7.95959C13.1375 7.32588 13.997 6.96987 14.8932 6.96987H18.6585V5.68258C18.6585 5.17047 18.4551 4.67934 18.093 4.31722C17.7308 3.9551 17.2397 3.75166 16.7276 3.75166H2.88931C2.3772 3.75166 1.88606 3.9551 1.52394 4.31722C1.16182 4.67934 0.958385 5.17047 0.958385 5.68258V7.51696C2.76058 7.10246 6.92526 7.48478 9.42226 10.8317C11.8092 14.0296 11.3667 16.3307 11.2969 16.6245H16.7279C17.24 16.6245 17.7312 16.421 18.0933 16.0589C18.4554 15.6968 18.6588 15.2057 18.6588 14.6936V13.7281H14.8935C14.4498 13.7281 14.0103 13.6408 13.6003 13.471C13.1903 13.3012 12.8177 13.0523 12.5039 12.7385C12.1901 12.4247 11.9412 12.0522 11.7713 11.6422C11.6015 11.2322 11.5141 10.7928 11.5141 10.349Z" fill="#FDFDFD"/>
<path d="M25.9831 7.76538L24.4586 3.65349H22.946L25.2857 9.40796H26.6563L28.9132 3.65349H27.4718L25.9831 7.76538ZM30.356 2.51971C30.4733 2.52107 30.5897 2.49917 30.6985 2.45525C30.8073 2.41134 30.9064 2.3463 30.9899 2.26389C31.0734 2.18147 31.1398 2.08332 31.1851 1.9751C31.2305 1.86689 31.254 1.75076 31.2542 1.63342C31.2542 1.39682 31.1602 1.16992 30.9929 1.00262C30.8256 0.83532 30.5987 0.741333 30.3621 0.741333C30.1255 0.741333 29.8986 0.83532 29.7313 1.00262C29.564 1.16992 29.47 1.39682 29.47 1.63342C29.4699 1.7498 29.4927 1.86507 29.5372 1.97262C29.5816 2.08016 29.6469 2.17788 29.7292 2.26018C29.8115 2.34247 29.9092 2.40773 30.0168 2.45221C30.1243 2.49669 30.2396 2.51952 30.356 2.51939V2.51971ZM29.6827 9.40796H31.0414V3.65349H29.6827V9.40796ZM33.9488 6.66669C33.9488 5.59149 34.4315 4.97713 35.4964 4.97713C35.6473 4.97748 35.7979 4.98931 35.9469 5.01253V3.61809C35.8261 3.59498 35.7034 3.58313 35.5804 3.58269C34.8244 3.58269 34.1863 3.94892 33.9146 4.57518V3.65349H32.5781V9.40796H33.9488V6.66669ZM37.4823 7.76538C37.4823 8.84059 38.144 9.47876 39.2076 9.47876C39.7039 9.47876 39.9636 9.38414 40.0463 9.35003V8.21432C39.8904 8.24293 39.7324 8.25876 39.5739 8.26163C39.0657 8.26163 38.8414 8.04891 38.8414 7.54108V4.86997H40.0347V3.65349H38.8414V1.89313H37.6005V2.75689C37.6005 3.26505 37.3288 3.65477 36.7145 3.65477H36.4191V4.8719H37.4811L37.4823 7.76538ZM43.3321 9.57337C44.0053 9.57337 44.6789 9.28985 44.9624 8.76882C44.9623 8.98242 44.9781 9.19574 45.0097 9.40699H46.3211C46.2819 9.0578 46.2622 8.70668 46.2623 8.35528V3.65349H44.8916V7.05641C44.8916 7.81269 44.4781 8.3437 43.6864 8.3437C42.8593 8.3437 42.5278 7.74125 42.5278 7.03228V3.65316H41.1579V7.28104C41.1579 8.55706 41.9614 9.57337 43.3321 9.57337ZM51.1671 8.67517C51.1671 9.13602 51.2144 9.37256 51.2263 9.40796H52.5024C52.4904 9.34874 52.4315 9.006 52.4315 8.48626V5.62689C52.4315 4.48089 51.758 3.47648 49.9857 3.47648C48.5678 3.47648 47.6686 4.36246 47.5634 5.35495L48.8159 5.6388C48.8751 5.05952 49.2767 4.59899 49.9976 4.59899C50.7536 4.59899 51.0844 4.98872 51.0844 5.47338C51.0844 5.6742 50.9901 5.83961 50.6593 5.88692L49.1821 6.11219C48.2015 6.25412 47.4443 6.8202 47.4443 7.85002C47.4443 8.75981 48.1887 9.58785 49.3939 9.58785C50.3285 9.58496 50.8955 9.11252 51.1671 8.67517ZM48.8159 7.76538C48.8159 7.29295 49.1586 7.05738 49.5838 6.98561L51.0844 6.76034V7.02005C51.0844 8.14256 50.4227 8.50879 49.6549 8.50879C49.1113 8.50976 48.8159 8.15543 48.8159 7.76538ZM55.2201 0.853326H53.8495V9.40796H55.2201V0.853326ZM28.3462 12.4453C28.3462 11.2993 27.6726 10.2949 25.9004 10.2949C24.4824 10.2949 23.5832 11.1812 23.478 12.1737L24.7305 12.4572C24.7894 11.8779 25.1914 11.4174 25.9119 11.4174C26.6682 11.4174 26.9991 11.8074 26.9991 12.2918C26.9991 12.4926 26.9044 12.658 26.5736 12.7053L25.0968 12.9306C24.1162 13.0722 23.3589 13.6386 23.3589 14.6684C23.3589 15.5782 24.1033 16.4063 25.3085 16.4063C26.2418 16.4063 26.8092 15.9335 27.0808 15.4965C27.0808 15.9573 27.1281 16.1935 27.14 16.2289H28.417C28.4051 16.17 28.3462 15.8273 28.3462 15.3072V12.4453ZM26.9991 13.8397C26.9991 14.9623 26.3374 15.3285 25.5695 15.3285C25.026 15.3285 24.7305 14.9745 24.7305 14.5841C24.7305 14.1114 25.0733 13.8761 25.4984 13.8043L26.9991 13.5791V13.8397ZM32.2821 15.1512C31.4196 15.1512 30.6752 14.5014 30.6752 13.3435C30.6752 12.1856 31.4196 11.5593 32.2586 11.5593C33.1329 11.5593 33.5227 12.1264 33.6527 12.6345L34.8817 12.1862C34.6452 11.2645 33.7946 10.2955 32.2467 10.2955C30.5925 10.2955 29.3046 11.5716 29.3046 13.3441C29.3046 15.0929 30.5919 16.4043 32.2821 16.4043C33.7946 16.4043 34.6571 15.4237 34.929 14.5255L33.7238 14.0885C33.5938 14.5249 33.1803 15.1512 32.2821 15.1512ZM38.3805 15.1512C37.5177 15.1512 36.7734 14.5014 36.7734 13.3435C36.7734 12.1856 37.5177 11.5593 38.3567 11.5593C39.2311 11.5593 39.6212 12.1264 39.7512 12.6345L40.9799 12.1862C40.7437 11.2645 39.8928 10.2955 38.3451 10.2955C36.691 10.2949 35.4037 11.5709 35.4037 13.3448C35.4037 15.0936 36.691 16.405 38.3815 16.405C39.8941 16.405 40.7562 15.4244 41.0282 14.5262L39.8229 14.0892C39.692 14.5249 39.2784 15.1512 38.3805 15.1512ZM44.479 10.2949C42.7657 10.2949 41.5016 11.5822 41.5016 13.3435C41.5016 15.1158 42.7657 16.4037 44.479 16.4037C46.204 16.4037 47.4684 15.1164 47.4684 13.3435C47.4681 11.5828 46.2037 10.2949 44.479 10.2949ZM44.479 15.175C43.6401 15.175 42.8722 14.5368 42.8722 13.3435C42.8722 12.1502 43.6401 11.5355 44.479 11.5355C45.3296 11.5355 46.0859 12.1499 46.0859 13.3435C46.0856 14.5487 45.3293 15.175 44.479 15.175ZM53.5669 10.4722H52.1963V13.8751C52.1963 14.6314 51.7828 15.1624 50.9911 15.1624C50.164 15.1624 49.8325 14.5597 49.8325 13.8507V10.4716H48.4619V14.0995C48.4619 15.3758 49.2664 16.3918 50.6358 16.3918C51.3094 16.3918 51.9829 16.1083 52.2665 15.5872C52.2664 15.8007 52.2822 16.0139 52.3138 16.2251H53.6252C53.5859 15.876 53.5663 15.525 53.5663 15.1737L53.5669 10.4722ZM58.141 10.3068C57.5031 10.3068 56.8176 10.5784 56.4395 11.2401V10.4722H55.1043V16.2264H56.4749V12.9061C56.4749 12.1499 56.8884 11.5474 57.6685 11.5474C58.531 11.5474 58.8499 12.1145 58.8499 12.8234V16.2264H60.2206V12.5872C60.2202 11.3228 59.5467 10.3068 58.1406 10.3068H58.141ZM64.121 15.0804C63.6132 15.0804 63.3886 14.8676 63.3886 14.3595V11.6884H64.5819V10.4722H63.3886V8.71057H62.147V9.57337C62.147 10.0812 61.8754 10.4713 61.2607 10.4713H60.9656V11.6884H62.0276V14.5831C62.0276 15.6584 62.6893 16.2962 63.7525 16.2962C64.2488 16.2962 64.5088 16.2019 64.5915 16.1675V15.0331C64.4361 15.0616 64.2787 15.0774 64.1207 15.0804H64.121Z" fill="#FDFDFD"/>
</svg>
